<svg xmlns="http://www.w3.org/2000/svg" width="800" height="520" viewBox="0 0 800 520">
  <rect width="800" height="520" fill="#f7f1e8"/>
  <rect x="0" y="430" width="800" height="90" fill="#d9c2a3"/>
  <path d="M80 430 L370 170 L620 430 Z" fill="#8b6b4d" opacity="0.95"/>
  <path d="M210 430 L420 220 L720 430 Z" fill="#6f533b" opacity="0.92"/>
  <circle cx="410" cy="245" r="42" fill="#5a4635"/>
  <circle cx="355" cy="332" r="18" fill="#2f2f2f"/>
  <path d="M348 350 L326 392 L346 402 L366 360 Z" fill="#2f2f2f"/>
  <path d="M360 351 L390 392 L408 382 L375 345 Z" fill="#2f2f2f"/>
  <path d="M349 367 L320 430 L340 430 L362 382 Z" fill="#2f2f2f"/>
  <path d="M378 374 L370 430 L392 430 L398 390 Z" fill="#2f2f2f"/>
  <path d="M372 342 L394 300" stroke="#2f2f2f" stroke-width="10" stroke-linecap="round"/>
  <path d="M345 346 L375 300" stroke="#2f2f2f" stroke-width="10" stroke-linecap="round"/>
  <path d="M390 299 L384 274" stroke="#2f2f2f" stroke-width="8" stroke-linecap="round"/>
  <path d="M374 300 L390 284" stroke="#2f2f2f" stroke-width="8" stroke-linecap="round"/>
  <text x="52" y="76" font-size="34" font-family="Arial, PingFang SC, Microsoft YaHei, sans-serif" fill="#4b392a" font-weight="700">西西弗斯的苦恼（重绘示意图）</text>
  <text x="52" y="118" font-size="22" font-family="Arial, PingFang SC, Microsoft YaHei, sans-serif" fill="#6d5642">用于承接原文中“持续推进、又容易回退”的隐喻表达</text>
</svg>