<svg xmlns="http://www.w3.org/2000/svg" viewBox="289.76953125 152.11328125 1955.37890625 470.75" width="1955.37890625" height="470.75"><rect x="289.76953125" y="152.11328125" width="1955.37890625" height="470.75" fill="#ffffff"/><defs><marker id="arrow_line_arrow_000000" markerWidth="10" markerHeight="16" refX="9" refY="8" orient="auto" markerUnits="userSpaceOnUse"><polygon points="0 4, 10 8, 0 12" fill="#000000"/></marker><marker id="arrowhead_default" markerWidth="10" markerHeight="16" refX="9" refY="8" orient="auto" markerUnits="userSpaceOnUse"><polygon points="0 4, 10 8, 0 12" fill="#666666"/></marker></defs><polygon points="797.333984375,398.34375 892.15234375,438.34375 797.333984375,478.34375 702.515625,438.34375" fill="#fef1ce" stroke="#000000" stroke-width="1" stroke-dasharray=""/><text x="797.333984375" y="439.04375" fill="#1f2329" font-family="sans-serif" font-size="14" text-anchor="middle"><tspan x="797.333984375" dy="0">识别流是否加密？</tspan></text><circle cx="391.76953125" cy="400.1316671496582" r="23.22214322387695" fill="#ffffff" stroke="#000000" stroke-width="2" stroke-linecap="round" stroke-linejoin="round"/><line x1="391.76953125" y1="423.35381037353517" x2="391.76953125" y2="466.3577793066406" fill="none" stroke="#000000" stroke-width="2" stroke-linecap="round" stroke-linejoin="round"/><line x1="344.96953125" y1="434.1048026068115" x2="438.56953125" y2="434.1048026068115" fill="none" stroke="#000000" stroke-width="2" stroke-linecap="round" stroke-linejoin="round"/><line x1="391.76953125" y1="466.3577793066406" x2="350.16953125" y2="499.7780065917969" fill="none" stroke="#000000" stroke-width="2" stroke-linecap="round" stroke-linejoin="round"/><line x1="391.76953125" y1="466.3577793066406" x2="433.36953125" y2="499.7780065917969" fill="none" stroke="#000000" stroke-width="2" stroke-linecap="round" stroke-linejoin="round"/><text x="391.76953125" y="463.4224324544271" fill="#1f2329" font-family="sans-serif" font-size="14" text-anchor="middle"><tspan x="391.76953125" dy="0">Audience</tspan></text><path d="M 443.76953125 438.3437478218075 L 702.515625 438.34375" fill="none" stroke="#000000" stroke-width="1" stroke-dasharray="" stroke-linejoin="round" data-connector-id="c1:187" marker-end="url(#arrow_line_arrow_000000)"/><rect x="485.3190160065517" y="426.3437487167486" width="129.51999999999998" height="24" fill="#ffffff" fill-opacity="0" rx="4" ry="4"/><text x="550.0790160065517" y="440.14374871674863" fill="#1f2329" font-family="sans-serif" font-size="12" text-anchor="middle" data-connector-id="c1:187" data-role="caption"><tspan x="550.0790160065517" dy="0">Play with stream data</tspan></text><rect x="1076.72265625" y="398.34375" width="148.08203125" height="80" rx="10" ry="10" fill="#f0f4fc" stroke="#000000" stroke-width="1" stroke-dasharray=""/><text x="1150.763671875" y="439.04375" fill="#1f2329" font-family="sans-serif" font-size="14" text-anchor="middle"><tspan x="1150.763671875" dy="0">获取加密后的密钥</tspan></text><path d="M 892.15234375 438.34375 L 1076.72265625 438.34375" fill="none" stroke="#000000" stroke-width="1" stroke-dasharray="" stroke-linejoin="round" data-connector-id="c1:189" marker-end="url(#arrow_line_arrow_000000)"/><rect x="946.9223333458416" y="426.34375" width="23.200000000000003" height="24" fill="#ffffff" fill-opacity="0" rx="4" ry="4"/><text x="958.5223333458416" y="440.14375" fill="#1f2329" font-family="sans-serif" font-size="12" text-anchor="middle" data-connector-id="c1:189" data-role="caption"><tspan x="958.5223333458416" dy="0">是</tspan></text><rect x="1409.375" y="398.34375" width="148.08203125" height="80" rx="10" ry="10" fill="#f0f4fc" stroke="#000000" stroke-width="1" stroke-dasharray=""/><text x="1483.416015625" y="439.04375" fill="#1f2329" font-family="sans-serif" font-size="14" text-anchor="middle"><tspan x="1483.416015625" dy="0">解析明文密钥</tspan></text><path d="M 1224.8046875 438.34375 L 1409.375 438.34375" fill="none" stroke="#000000" stroke-width="1" stroke-dasharray="" stroke-linejoin="round" data-connector-id="c1:190" marker-end="url(#arrow_line_arrow_000000)"/><rect x="1742.02734375" y="492.86328125" width="148.08203125" height="80" rx="10" ry="10" fill="#f0f4fc" stroke="#000000" stroke-width="1" stroke-dasharray=""/><text x="1816.068359375" y="533.56328125" fill="#1f2329" font-family="sans-serif" font-size="14" text-anchor="middle"><tspan x="1816.068359375" dy="0">AES解密音频</tspan></text><path d="M 1557.45703125 438.34375 L 1649.7421875 438.34375 L 1649.7421875 532.86328125 L 1742.02734375 532.86328125" fill="none" stroke="#000000" stroke-width="1" stroke-dasharray="" stroke-linejoin="round" data-connector-id="c1:191" marker-end="url(#arrow_line_arrow_000000)"/><rect x="1742.02734375" y="293.85546875" width="148.08203125" height="80" rx="10" ry="10" fill="#f0f4fc" stroke="#000000" stroke-width="1" stroke-dasharray=""/><text x="1816.068359375" y="334.55546875" fill="#1f2329" font-family="sans-serif" font-size="14" text-anchor="middle"><tspan x="1816.068359375" dy="0">AES解密视频</tspan></text><path d="M 1557.45703125 438.34375 L 1649.7421875 438.34375 L 1649.7421875 333.85546875 L 1742.02734375 333.85546875" fill="none" stroke="#000000" stroke-width="1" stroke-dasharray="" stroke-linejoin="round" data-connector-id="c1:192" marker-end="url(#arrow_line_arrow_000000)"/><rect x="2047.06640625" y="398.34375" width="148.08203125" height="80" rx="10" ry="10" fill="#f0f4fc" stroke="#000000" stroke-width="1" stroke-dasharray=""/><text x="2121.107421875" y="439.04375" fill="#1f2329" font-family="sans-serif" font-size="14" text-anchor="middle"><tspan x="2121.107421875" dy="0">播放视频</tspan></text><path d="M 1890.109375 333.85546875 L 1968.587890625 333.85546875 L 1968.587890625 438.34375 L 2047.06640625 438.34375" fill="none" stroke="#000000" stroke-width="1" stroke-dasharray="" stroke-linejoin="round" data-connector-id="c1:194" marker-end="url(#arrow_line_arrow_000000)"/><path d="M 1890.109375 532.86328125 L 1968.587890625 532.86328125 L 1968.587890625 438.34375 L 2047.06640625 438.34375" fill="none" stroke="#000000" stroke-width="1" stroke-dasharray="" stroke-linejoin="round" data-connector-id="c1:195" marker-end="url(#arrow_line_arrow_000000)"/><path d="M 797.333984375 398.34375 L 797.333984375 202.11328125 L 2121.107421875 202.11328125 L 2121.107421875 398.34375" fill="none" stroke="#000000" stroke-width="1" stroke-dasharray="" stroke-linejoin="round" data-connector-id="c1:196" marker-end="url(#arrow_line_arrow_000000)"/><rect x="785.733984375" y="286.8091535718413" width="23.200000000000003" height="24" fill="#ffffff" fill-opacity="0" rx="4" ry="4"/><text x="797.333984375" y="300.6091535718413" fill="#1f2329" font-family="sans-serif" font-size="12" text-anchor="middle" data-connector-id="c1:196" data-role="caption"><tspan x="797.333984375" dy="0">否</tspan></text></svg>