<svg xmlns="http://www.w3.org/2000/svg" viewBox="-2398.021484375 -11.659912109375 14276.688232421875 2030.32421875" width="14276.688232421875" height="2030.32421875"><rect x="-2398.021484375" y="-11.659912109375" width="14276.688232421875" height="2030.32421875" fill="#ffffff"/><defs><marker id="arrow_line_arrow_000000" markerWidth="10" markerHeight="16" refX="9" refY="8" orient="auto" markerUnits="userSpaceOnUse"><polygon points="0 4, 10 8, 0 12" fill="#000000"/></marker><marker id="arrowhead_default" markerWidth="10" markerHeight="16" refX="9" refY="8" orient="auto" markerUnits="userSpaceOnUse"><polygon points="0 4, 10 8, 0 12" fill="#666666"/></marker></defs><rect x="1798.6953125" y="681" width="249.666748046875" height="80" rx="10" ry="10" fill="#f0f4fc" stroke="#000000" stroke-width="1" stroke-dasharray=""/><text x="1923.5286865234375" y="721.7" fill="#1f2329" font-family="sans-serif" font-size="14" text-anchor="middle"><tspan x="1923.5286865234375" dy="0">BaseJsonContentViewHolder</tspan></text><rect x="1315.9781494140625" y="1688.6640625" width="249.666748046875" height="80" rx="10" ry="10" fill="#f0f4fc" stroke="#000000" stroke-width="1" stroke-dasharray=""/><text x="1440.8115234375" y="1729.3640625" fill="#1f2329" font-family="sans-serif" font-size="14" text-anchor="middle"><tspan x="1440.8115234375" dy="0">ShareCompilationMultiViewHolder</tspan></text><rect x="7662.34033203125" y="1205" width="249.666748046875" height="80" rx="10" ry="10" fill="#f0f4fc" stroke="#000000" stroke-width="1" stroke-dasharray=""/><text x="7787.1737060546875" y="1245.7" fill="#1f2329" font-family="sans-serif" font-size="14" text-anchor="middle"><tspan x="7787.1737060546875" dy="0">PictureReceiveViewHolder</tspan></text><rect x="1044.9781494140625" y="1688.6640625" width="249.666748046875" height="80" rx="10" ry="10" fill="#f0f4fc" stroke="#000000" stroke-width="1" stroke-dasharray=""/><text x="1169.8115234375" y="1729.3640625" fill="#1f2329" font-family="sans-serif" font-size="14" text-anchor="middle"><tspan x="1169.8115234375" dy="0">ShareMusicMultiViewHolder</tspan></text><rect x="636.978515625" y="1274.664306640625" width="249.666748046875" height="80" rx="10" ry="10" fill="#f0f4fc" stroke="#000000" stroke-width="1" stroke-dasharray=""/><text x="761.8118896484375" y="1315.364306640625" fill="#1f2329" font-family="sans-serif" font-size="14" text-anchor="middle"><tspan x="761.8118896484375" dy="0">MultiShareViewHolders</tspan></text><rect x="772.9781494140625" y="1688.6640625" width="249.666748046875" height="80" rx="10" ry="10" fill="#f0f4fc" stroke="#000000" stroke-width="1" stroke-dasharray=""/><text x="897.8115234375" y="1729.3640625" fill="#1f2329" font-family="sans-serif" font-size="14" text-anchor="middle"><tspan x="897.8115234375" dy="0">ShareChallengeViewHolder</tspan></text><path d="M 1169.8115234375 1688.6640625 L 1169.8115234375 1521.6641845703125 L 761.8118896484375 1521.6641845703125 L 761.8118896484375 1354.664306640625" fill="none" stroke="#000000" stroke-width="1" stroke-dasharray="" stroke-linejoin="round" data-connector-id="c1:243" marker-end="url(#arrow_line_arrow_000000)"/><path d="M 897.8115234375 1688.6640625 L 897.8115234375 1521.6641845703125 L 761.8118896484375 1521.6641845703125 L 761.8118896484375 1354.664306640625" fill="none" stroke="#000000" stroke-width="1" stroke-dasharray="" stroke-linejoin="round" data-connector-id="c1:244" marker-end="url(#arrow_line_arrow_000000)"/><path d="M 1440.8115234375 1688.6640625 L 1440.8115234375 1521.6641845703125 L 761.8118896484375 1521.6641845703125 L 761.8118896484375 1354.664306640625" fill="none" stroke="#000000" stroke-width="1" stroke-dasharray="" stroke-linejoin="round" data-connector-id="c1:245" marker-end="url(#arrow_line_arrow_000000)"/><rect x="3330.09521484375" y="1688.6640625" width="249.666748046875" height="80" rx="10" ry="10" fill="#f0f4fc" stroke="#000000" stroke-width="1" stroke-dasharray=""/><text x="3454.9285888671875" y="1729.3640625" fill="#1f2329" font-family="sans-serif" font-size="14" text-anchor="middle"><tspan x="3454.9285888671875" dy="0">ShareCompilationSimpleViewHolder</tspan></text><rect x="500.9781494140625" y="1688.6640625" width="249.666748046875" height="80" rx="10" ry="10" fill="#f0f4fc" stroke="#000000" stroke-width="1" stroke-dasharray=""/><text x="625.8115234375" y="1729.3640625" fill="#1f2329" font-family="sans-serif" font-size="14" text-anchor="middle"><tspan x="625.8115234375" dy="0">ShareEffectMultiViewHolder</tspan></text><rect x="3621.978515625" y="1274.664306640625" width="249.666748046875" height="80" rx="10" ry="10" fill="#f0f4fc" stroke="#000000" stroke-width="1" stroke-dasharray=""/><text x="3746.8118896484375" y="1315.364306640625" fill="#1f2329" font-family="sans-serif" font-size="14" text-anchor="middle"><tspan x="3746.8118896484375" dy="0">ShareSimpleViewHolder</tspan></text><rect x="3032.09521484375" y="1688.6640625" width="249.666748046875" height="80" rx="10" ry="10" fill="#f0f4fc" stroke="#000000" stroke-width="1" stroke-dasharray=""/><text x="3156.9285888671875" y="1729.3640625" fill="#1f2329" font-family="sans-serif" font-size="14" text-anchor="middle"><tspan x="3156.9285888671875" dy="0">ShareQnASimpleViewHolder</tspan></text><rect x="7364.34033203125" y="1205" width="249.666748046875" height="80" rx="10" ry="10" fill="#f0f4fc" stroke="#000000" stroke-width="1" stroke-dasharray=""/><text x="7489.1737060546875" y="1245.7" fill="#1f2329" font-family="sans-serif" font-size="14" text-anchor="middle"><tspan x="7489.1737060546875" dy="0">VideoReceiveViewHolder</tspan></text><path d="M 625.8115234375 1688.6640625 L 625.8115234375 1521.6641845703125 L 761.8118896484375 1521.6641845703125 L 761.8118896484375 1354.664306640625" fill="none" stroke="#000000" stroke-width="1" stroke-dasharray="" stroke-linejoin="round" data-connector-id="c1:248" marker-end="url(#arrow_line_arrow_000000)"/><rect x="6076.72265625" y="1205" width="249.666748046875" height="80" rx="10" ry="10" fill="#f0f4fc" stroke="#000000" stroke-width="1" stroke-dasharray=""/><text x="6201.5560302734375" y="1245.7" fill="#1f2329" font-family="sans-serif" font-size="14" text-anchor="middle"><tspan x="6201.5560302734375" dy="0">ImageCardSimpleReceiveViewHolder</tspan></text><rect x="4885.72265625" y="1205" width="249.666748046875" height="80" rx="10" ry="10" fill="#f0f4fc" stroke="#000000" stroke-width="1" stroke-dasharray=""/><text x="5010.5560302734375" y="1245.7" fill="#1f2329" font-family="sans-serif" font-size="14" text-anchor="middle"><tspan x="5010.5560302734375" dy="0">PortraitCardReceiveViewHolder</tspan></text><rect x="7067.34033203125" y="1205" width="249.666748046875" height="80" rx="10" ry="10" fill="#f0f4fc" stroke="#000000" stroke-width="1" stroke-dasharray=""/><text x="7192.1737060546875" y="1245.7" fill="#1f2329" font-family="sans-serif" font-size="14" text-anchor="middle"><tspan x="7192.1737060546875" dy="0">DynamicCardViewHolder</tspan></text><rect x="5779.72265625" y="1205" width="249.666748046875" height="80" rx="10" ry="10" fill="#f0f4fc" stroke="#000000" stroke-width="1" stroke-dasharray=""/><text x="5904.5560302734375" y="1245.7" fill="#1f2329" font-family="sans-serif" font-size="14" text-anchor="middle"><tspan x="5904.5560302734375" dy="0">StoreStickerReceiveViewHolder</tspan></text><rect x="5480.72265625" y="1205" width="249.666748046875" height="80" rx="10" ry="10" fill="#f0f4fc" stroke="#000000" stroke-width="1" stroke-dasharray=""/><text x="5605.5560302734375" y="1245.7" fill="#1f2329" font-family="sans-serif" font-size="14" text-anchor="middle"><tspan x="5605.5560302734375" dy="0">InfoCardReceiveViewHolder</tspan></text><rect x="6389.78076171875" y="1205" width="249.666748046875" height="80" rx="10" ry="10" fill="#f0f4fc" stroke="#000000" stroke-width="1" stroke-dasharray=""/><text x="6514.6141357421875" y="1245.7" fill="#1f2329" font-family="sans-serif" font-size="14" text-anchor="middle"><tspan x="6514.6141357421875" dy="0">ImageCardMultiReceiveViewHolder</tspan></text><rect x="5183.72265625" y="1205" width="249.666748046875" height="80" rx="10" ry="10" fill="#f0f4fc" stroke="#000000" stroke-width="1" stroke-dasharray=""/><text x="5308.5560302734375" y="1245.7" fill="#1f2329" font-family="sans-serif" font-size="14" text-anchor="middle"><tspan x="5308.5560302734375" dy="0">InteractiveNoticeViewHolder</tspan></text><rect x="6378.44384765625" y="681" width="938.5631713867188" height="354.02685546875" rx="10" ry="10" fill="#509863" stroke="#ffffff" stroke-width="1" stroke-dasharray=""/><text x="6847.725433349609" y="860.413427734375" fill="#ffffff" font-family="sans-serif" font-size="48" text-anchor="middle"><tspan x="6847.725433349609" dy="0">BaseTemplateViewHolder</tspan></text><path d="M 3156.92870791757 1688.6640625 L 3156.9287109375 1521.6641845703125 L 3746.81201171875 1521.6641845703125 L 3746.81200869882 1354.664306640625" fill="none" stroke="#000000" stroke-width="1" stroke-dasharray="" stroke-linejoin="round" data-connector-id="c1:254" marker-end="url(#arrow_line_arrow_000000)"/><path d="M 3454.92870791757 1688.6640625 L 3454.9287109375 1521.6641845703125 L 3746.81201171875 1521.6641845703125 L 3746.81200869882 1354.664306640625" fill="none" stroke="#000000" stroke-width="1" stroke-dasharray="" stroke-linejoin="round" data-connector-id="c1:255" marker-end="url(#arrow_line_arrow_000000)"/><path d="M 5010.55614932382 1205 L 5010.55615234375 1120.013427734375 L 6847.7255859375 1120.013427734375 L 6847.725601177783 1035.02685546875" fill="none" stroke="#000000" stroke-width="1" stroke-dasharray="" stroke-linejoin="round" data-connector-id="c1:258" marker-end="url(#arrow_line_arrow_000000)"/><path d="M 5605.55614932382 1205 L 5605.55615234375 1120.013427734375 L 6847.72265625 1120.013427734375 L 6847.72266418475 1035.0267288588802" fill="none" stroke="#000000" stroke-width="1" stroke-dasharray="" stroke-linejoin="round" data-connector-id="c1:260" marker-end="url(#arrow_line_arrow_000000)"/><path d="M 5308.55614932382 1205 L 5308.55615234375 1120.013427734375 L 6847.7255859375 1120.013427734375 L 6847.725601177783 1035.02685546875" fill="none" stroke="#000000" stroke-width="1" stroke-dasharray="" stroke-linejoin="round" data-connector-id="c1:261" marker-end="url(#arrow_line_arrow_000000)"/><path d="M 6514.61425479257 1205 L 6514.6142578125 1120.013427734375 L 6847.7255859375 1120.013427734375 L 6847.725601177783 1035.02685546875" fill="none" stroke="#000000" stroke-width="1" stroke-dasharray="" stroke-linejoin="round" data-connector-id="c1:262" marker-end="url(#arrow_line_arrow_000000)"/><path d="M 6201.55614932382 1205 L 6201.55615234375 1120.013427734375 L 6847.7255859375 1120.013427734375 L 6847.725601177783 1035.02685546875" fill="none" stroke="#000000" stroke-width="1" stroke-dasharray="" stroke-linejoin="round" data-connector-id="c1:263" marker-end="url(#arrow_line_arrow_000000)"/><path d="M 5904.55614932382 1205 L 5904.55615234375 1120.013427734375 L 6847.7255859375 1120.013427734375 L 6847.725601177783 1035.02685546875" fill="none" stroke="#000000" stroke-width="1" stroke-dasharray="" stroke-linejoin="round" data-connector-id="c1:264" marker-end="url(#arrow_line_arrow_000000)"/><path d="M 7192.17382510507 1205 L 7192.173828125 1120.013427734375 L 6847.7255859375 1120.013427734375 L 6847.725601177783 1035.02685546875" fill="none" stroke="#000000" stroke-width="1" stroke-dasharray="" stroke-linejoin="round" data-connector-id="c1:265" marker-end="url(#arrow_line_arrow_000000)"/><path d="M 7787.17382510507 1205 L 7787.173828125 1120.013427734375 L 6847.7255859375 1120.013427734375 L 6847.725601177783 1035.02685546875" fill="none" stroke="#000000" stroke-width="1" stroke-dasharray="" stroke-linejoin="round" data-connector-id="c1:266" marker-end="url(#arrow_line_arrow_000000)"/><path d="M 761.8118896484375 1274.664306640625 L 761.8118896484375 1017.8321533203125 L 1923.5286865234375 1017.8321533203125 L 1923.5286865234375 761" fill="none" stroke="#000000" stroke-width="1" stroke-dasharray="" stroke-linejoin="round" data-connector-id="c1:267" marker-end="url(#arrow_line_arrow_000000)"/><path d="M 3746.81200869882 1274.664306640625 L 3746.81201171875 1017.8321533203125 L 1923.5286865234375 1017.8321533203125 L 1923.5286865234375 761" fill="none" stroke="#000000" stroke-width="1" stroke-dasharray="" stroke-linejoin="round" data-connector-id="c1:268" marker-end="url(#arrow_line_arrow_000000)"/><rect x="3627.09521484375" y="1688.6640625" width="249.666748046875" height="80" rx="10" ry="10" fill="#f0f4fc" stroke="#000000" stroke-width="1" stroke-dasharray=""/><text x="3751.9285888671875" y="1729.3640625" fill="#1f2329" font-family="sans-serif" font-size="14" text-anchor="middle"><tspan x="3751.9285888671875" dy="0">ShareChallengeSimpleViewHolder</tspan></text><rect x="3925.094970703125" y="1688.6640625" width="249.666748046875" height="80" rx="10" ry="10" fill="#f0f4fc" stroke="#000000" stroke-width="1" stroke-dasharray=""/><text x="4049.9283447265625" y="1729.3640625" fill="#1f2329" font-family="sans-serif" font-size="14" text-anchor="middle"><tspan x="4049.9283447265625" dy="0">ShareSimpleLinkViewHolder</tspan></text><rect x="4223.09423828125" y="1688.664306640625" width="249.666748046875" height="80" rx="10" ry="10" fill="#f0f4fc" stroke="#000000" stroke-width="1" stroke-dasharray=""/><text x="4347.9276123046875" y="1729.364306640625" fill="#1f2329" font-family="sans-serif" font-size="14" text-anchor="middle"><tspan x="4347.9276123046875" dy="0">ShareMusicSimpleViewHolder</tspan></text><path d="M 3751.92870791757 1688.6640625 L 3751.9287109375 1521.6641845703125 L 3746.81201171875 1521.6641845703125 L 3746.81200869882 1354.664306640625" fill="none" stroke="#000000" stroke-width="1" stroke-dasharray="" stroke-linejoin="round" data-connector-id="c1:269" marker-end="url(#arrow_line_arrow_000000)"/><path d="M 4347.92773135507 1688.664306640625 L 4347.927734375 1521.664306640625 L 3746.81201171875 1521.664306640625 L 3746.81200869882 1354.664306640625" fill="none" stroke="#000000" stroke-width="1" stroke-dasharray="" stroke-linejoin="round" data-connector-id="c1:270" marker-end="url(#arrow_line_arrow_000000)"/><path d="M 4049.92822567618 1688.6640625 L 4049.92822265625 1521.6641845703125 L 3746.81201171875 1521.6641845703125 L 3746.81200869882 1354.664306640625" fill="none" stroke="#000000" stroke-width="1" stroke-dasharray="" stroke-linejoin="round" data-connector-id="c1:271" marker-end="url(#arrow_line_arrow_000000)"/><rect x="4520.09423828125" y="1688.664306640625" width="249.666748046875" height="80" rx="10" ry="10" fill="#f0f4fc" stroke="#000000" stroke-width="1" stroke-dasharray=""/><text x="4644.9276123046875" y="1729.364306640625" fill="#1f2329" font-family="sans-serif" font-size="14" text-anchor="middle"><tspan x="4644.9276123046875" dy="0">ShareEffectSimpleViewHolder</tspan></text><path d="M 4644.92773135507 1688.664306640625 L 4644.927734375 1521.664306640625 L 3746.81201171875 1521.664306640625 L 3746.81200869882 1354.664306640625" fill="none" stroke="#000000" stroke-width="1" stroke-dasharray="" stroke-linejoin="round" data-connector-id="c1:272" marker-end="url(#arrow_line_arrow_000000)"/><rect x="229.9781494140625" y="1688.6640625" width="249.666748046875" height="80" rx="10" ry="10" fill="#f0f4fc" stroke="#000000" stroke-width="1" stroke-dasharray=""/><text x="354.8115234375" y="1729.3640625" fill="#1f2329" font-family="sans-serif" font-size="14" text-anchor="middle"><tspan x="354.8115234375" dy="0">ShareQnAMultiViewHolder</tspan></text><rect x="-42.0211181640625" y="1688.6640625" width="249.666748046875" height="80" rx="10" ry="10" fill="#f0f4fc" stroke="#000000" stroke-width="1" stroke-dasharray=""/><text x="82.812255859375" y="1729.3640625" fill="#1f2329" font-family="sans-serif" font-size="14" text-anchor="middle"><tspan x="82.812255859375" dy="0">ShareUserMultiReceiveViewHolder</tspan></text><rect x="7960.3408203125" y="1205" width="249.666748046875" height="80" rx="10" ry="10" fill="#f0f4fc" stroke="#000000" stroke-width="1" stroke-dasharray=""/><text x="8085.1741943359375" y="1245.7" fill="#1f2329" font-family="sans-serif" font-size="14" text-anchor="middle"><tspan x="8085.1741943359375" dy="0">UnavailableTemplateViewHolder</tspan></text><rect x="8257.34375" y="1205" width="249.666748046875" height="80" rx="10" ry="10" fill="#f0f4fc" stroke="#000000" stroke-width="1" stroke-dasharray=""/><text x="8382.177124023438" y="1245.7" fill="#1f2329" font-family="sans-serif" font-size="14" text-anchor="middle"><tspan x="8382.177124023438" dy="0">UnavailableBulletinViewHolder</tspan></text><rect x="8555.34375" y="1205" width="249.666748046875" height="80" rx="10" ry="10" fill="#f0f4fc" stroke="#000000" stroke-width="1" stroke-dasharray=""/><text x="8680.177124023438" y="1245.7" fill="#1f2329" font-family="sans-serif" font-size="14" text-anchor="middle"><tspan x="8680.177124023438" dy="0">BulletinTextViewHolder</tspan></text><path d="M 8085.17431338632 1205 L 8085.17431640625 1120.013427734375 L 6847.7255859375 1120.013427734375 L 6847.725601177783 1035.02685546875" fill="none" stroke="#000000" stroke-width="1" stroke-dasharray="" stroke-linejoin="round" data-connector-id="c1:273" marker-end="url(#arrow_line_arrow_000000)"/><path d="M 8382.17675943164 1205 L 8382.1767578125 1120.013427734375 L 6847.7255859375 1120.013427734375 L 6847.725601177783 1035.02685546875" fill="none" stroke="#000000" stroke-width="1" stroke-dasharray="" stroke-linejoin="round" data-connector-id="c1:274" marker-end="url(#arrow_line_arrow_000000)"/><path d="M 8680.17675943164 1205 L 8680.1767578125 1120.013427734375 L 6847.7255859375 1120.013427734375 L 6847.725601177783 1035.02685546875" fill="none" stroke="#000000" stroke-width="1" stroke-dasharray="" stroke-linejoin="round" data-connector-id="c1:275" marker-end="url(#arrow_line_arrow_000000)"/><rect x="6378.44384765625" y="38.340087890625" width="938.563232421875" height="354.02685546875" rx="10" ry="10" fill="#509863" stroke="#000000" stroke-width="1" stroke-dasharray=""/><text x="6847.7254638671875" y="217.753515625" fill="#ffffff" font-family="sans-serif" font-size="48" text-anchor="middle"><tspan x="6847.7254638671875" dy="0">BaseViewHolder</tspan></text><path d="M 1923.5286865234375 681 L 1923.5286865234375 536.6834716796875 L 6847.7254638671875 536.6834716796875 L 6847.725575752644 392.366943359375" fill="none" stroke="#000000" stroke-width="1" stroke-dasharray="" stroke-linejoin="round" data-connector-id="c1:276" marker-end="url(#arrow_line_arrow_000000)"/><path d="M 6847.725601177783 681 L 6847.725575752644 392.366943359375" fill="none" stroke="#000000" stroke-width="1" stroke-dasharray="" stroke-linejoin="round" data-connector-id="c1:277" marker-end="url(#arrow_line_arrow_000000)"/><rect x="-1685.021484375" y="1274.664306640625" width="249.666748046875" height="80" rx="10" ry="10" fill="#f0f4fc" stroke="#000000" stroke-width="1" stroke-dasharray=""/><text x="-1560.1881103515625" y="1315.364306640625" fill="#1f2329" font-family="sans-serif" font-size="14" text-anchor="middle"><tspan x="-1560.1881103515625" dy="0">ShareLiveEventReceiveViewHolder</tspan></text><rect x="-2016.021484375" y="1274.664306640625" width="249.666748046875" height="80" rx="10" ry="10" fill="#f0f4fc" stroke="#000000" stroke-width="1" stroke-dasharray=""/><text x="-1891.1881103515625" y="1315.364306640625" fill="#1f2329" font-family="sans-serif" font-size="14" text-anchor="middle"><tspan x="-1891.1881103515625" dy="0">ShareUserSimpleReceiveViewHolder</tspan></text><rect x="-1353.021484375" y="1274.664306640625" width="249.666748046875" height="80" rx="10" ry="10" fill="#f0f4fc" stroke="#000000" stroke-width="1" stroke-dasharray=""/><text x="-1228.1881103515625" y="1315.364306640625" fill="#1f2329" font-family="sans-serif" font-size="14" text-anchor="middle"><tspan x="-1228.1881103515625" dy="0">NudgeViewHolder</tspan></text><rect x="-2348.021484375" y="1274.664306640625" width="249.666748046875" height="80" rx="10" ry="10" fill="#f0f4fc" stroke="#000000" stroke-width="1" stroke-dasharray=""/><text x="-2223.1881103515625" y="1315.364306640625" fill="#1f2329" font-family="sans-serif" font-size="14" text-anchor="middle"><tspan x="-2223.1881103515625" dy="0">UnavailableAwemeJsonViewHolder</tspan></text><rect x="-1021.021484375" y="1274.664306640625" width="249.666748046875" height="80" rx="10" ry="10" fill="#f0f4fc" stroke="#000000" stroke-width="1" stroke-dasharray=""/><text x="-896.1881103515625" y="1305.564306640625" fill="#1f2329" font-family="sans-serif" font-size="14" text-anchor="middle"><tspan x="-896.1881103515625" dy="0">ShareAwemeReceiveAutoPlayViewHolde</tspan><tspan x="-896.1881103515625" dy="19.599999999999998">r</tspan></text><rect x="-358.021484375" y="1274.664306640625" width="249.666748046875" height="80" rx="10" ry="10" fill="#f0f4fc" stroke="#000000" stroke-width="1" stroke-dasharray=""/><text x="-233.1881103515625" y="1315.364306640625" fill="#1f2329" font-family="sans-serif" font-size="14" text-anchor="middle"><tspan x="-233.1881103515625" dy="0">SystemCardViewHolder</tspan></text><rect x="304.978515625" y="1274.664306640625" width="249.666748046875" height="80" rx="10" ry="10" fill="#f0f4fc" stroke="#000000" stroke-width="1" stroke-dasharray=""/><text x="429.8118896484375" y="1315.364306640625" fill="#1f2329" font-family="sans-serif" font-size="14" text-anchor="middle"><tspan x="429.8118896484375" dy="0">CommentViewHolder</tspan></text><rect x="-690.021484375" y="1274.664306640625" width="249.666748046875" height="80" rx="10" ry="10" fill="#f0f4fc" stroke="#000000" stroke-width="1" stroke-dasharray=""/><text x="-565.1881103515625" y="1315.364306640625" fill="#1f2329" font-family="sans-serif" font-size="14" text-anchor="middle"><tspan x="-565.1881103515625" dy="0">SystemViewHolder</tspan></text><rect x="2958.978515625" y="1274.664306640625" width="249.666748046875" height="80" rx="10" ry="10" fill="#f0f4fc" stroke="#000000" stroke-width="1" stroke-dasharray=""/><text x="3083.8118896484375" y="1315.364306640625" fill="#1f2329" font-family="sans-serif" font-size="14" text-anchor="middle"><tspan x="3083.8118896484375" dy="0">ShareProductReceiveViewHolder</tspan></text><rect x="2294.978515625" y="1274.664306640625" width="249.666748046875" height="80" rx="10" ry="10" fill="#f0f4fc" stroke="#000000" stroke-width="1" stroke-dasharray=""/><text x="2419.8118896484375" y="1315.364306640625" fill="#1f2329" font-family="sans-serif" font-size="14" text-anchor="middle"><tspan x="2419.8118896484375" dy="0">TextViewHolder</tspan></text><rect x="2626.978515625" y="1274.664306640625" width="249.666748046875" height="80" rx="10" ry="10" fill="#f0f4fc" stroke="#000000" stroke-width="1" stroke-dasharray=""/><text x="2751.8118896484375" y="1315.364306640625" fill="#1f2329" font-family="sans-serif" font-size="14" text-anchor="middle"><tspan x="2751.8118896484375" dy="0">LoadMoreViewHolder</tspan></text><rect x="968.978515625" y="1274.664306640625" width="249.666748046875" height="80" rx="10" ry="10" fill="#f0f4fc" stroke="#000000" stroke-width="1" stroke-dasharray=""/><text x="1093.8118896484375" y="1315.364306640625" fill="#1f2329" font-family="sans-serif" font-size="14" text-anchor="middle"><tspan x="1093.8118896484375" dy="0">GifViewHolder</tspan></text><rect x="1299.978515625" y="1274.664306640625" width="249.666748046875" height="80" rx="10" ry="10" fill="#f0f4fc" stroke="#000000" stroke-width="1" stroke-dasharray=""/><text x="1424.8118896484375" y="1315.364306640625" fill="#1f2329" font-family="sans-serif" font-size="14" text-anchor="middle"><tspan x="1424.8118896484375" dy="0">ShareLiveReceiveViewHolder</tspan></text><rect x="-26.021484375" y="1274.664306640625" width="249.666748046875" height="80" rx="10" ry="10" fill="#f0f4fc" stroke="#000000" stroke-width="1" stroke-dasharray=""/><text x="98.8118896484375" y="1315.364306640625" fill="#1f2329" font-family="sans-serif" font-size="14" text-anchor="middle"><tspan x="98.8118896484375" dy="0">GroupGreetingViewHolder</tspan></text><rect x="3289.978515625" y="1274.664306640625" width="249.666748046875" height="80" rx="10" ry="10" fill="#f0f4fc" stroke="#000000" stroke-width="1" stroke-dasharray=""/><text x="3414.8118896484375" y="1315.364306640625" fill="#1f2329" font-family="sans-serif" font-size="14" text-anchor="middle"><tspan x="3414.8118896484375" dy="0">SayHelloViewHolder</tspan></text><rect x="1631.978515625" y="1274.664306640625" width="249.666748046875" height="80" rx="10" ry="10" fill="#f0f4fc" stroke="#000000" stroke-width="1" stroke-dasharray=""/><text x="1756.8118896484375" y="1315.364306640625" fill="#1f2329" font-family="sans-serif" font-size="14" text-anchor="middle"><tspan x="1756.8118896484375" dy="0">BrandInvitationCardViewHolder</tspan></text><rect x="1963.978515625" y="1274.664306640625" width="249.666748046875" height="80" rx="10" ry="10" fill="#f0f4fc" stroke="#000000" stroke-width="1" stroke-dasharray=""/><text x="2088.8118896484375" y="1315.364306640625" fill="#1f2329" font-family="sans-serif" font-size="14" text-anchor="middle"><tspan x="2088.8118896484375" dy="0">GroupInviteCardViewHolder</tspan></text><path d="M 2751.81200869882 1274.664306640625 L 2751.81201171875 1017.8321533203125 L 1923.5286865234375 1017.8321533203125 L 1923.5286865234375 761" fill="none" stroke="#000000" stroke-width="1" stroke-dasharray="" stroke-linejoin="round" data-connector-id="c1:278" marker-end="url(#arrow_line_arrow_000000)"/><path d="M 2088.81200869882 1274.664306640625 L 2088.81201171875 1017.8321533203125 L 1923.5286865234375 1017.8321533203125 L 1923.5286865234375 761" fill="none" stroke="#000000" stroke-width="1" stroke-dasharray="" stroke-linejoin="round" data-connector-id="c1:279" marker-end="url(#arrow_line_arrow_000000)"/><path d="M 1756.8118896484375 1274.664306640625 L 1756.8118896484375 1017.8321533203125 L 1923.5286865234375 1017.8321533203125 L 1923.5286865234375 761" fill="none" stroke="#000000" stroke-width="1" stroke-dasharray="" stroke-linejoin="round" data-connector-id="c1:280" marker-end="url(#arrow_line_arrow_000000)"/><path d="M 1424.8118896484375 1274.664306640625 L 1424.8118896484375 1017.8321533203125 L 1923.5286865234375 1017.8321533203125 L 1923.5286865234375 761" fill="none" stroke="#000000" stroke-width="1" stroke-dasharray="" stroke-linejoin="round" data-connector-id="c1:281" marker-end="url(#arrow_line_arrow_000000)"/><path d="M 2419.81200869882 1274.664306640625 L 2419.81201171875 1017.8321533203125 L 1923.5286865234375 1017.8321533203125 L 1923.5286865234375 761" fill="none" stroke="#000000" stroke-width="1" stroke-dasharray="" stroke-linejoin="round" data-connector-id="c1:282" marker-end="url(#arrow_line_arrow_000000)"/><path d="M 1093.8118896484375 1274.664306640625 L 1093.8118896484375 1017.8321533203125 L 1923.5286865234375 1017.8321533203125 L 1923.5286865234375 761" fill="none" stroke="#000000" stroke-width="1" stroke-dasharray="" stroke-linejoin="round" data-connector-id="c1:283" marker-end="url(#arrow_line_arrow_000000)"/><path d="M 3083.81200869882 1274.664306640625 L 3083.81201171875 1017.8321533203125 L 1923.5286865234375 1017.8321533203125 L 1923.5286865234375 761" fill="none" stroke="#000000" stroke-width="1" stroke-dasharray="" stroke-linejoin="round" data-connector-id="c1:284" marker-end="url(#arrow_line_arrow_000000)"/><path d="M 429.8118896484375 1274.664306640625 L 429.8118896484375 1017.8321533203125 L 1923.5286865234375 1017.8321533203125 L 1923.5286865234375 761" fill="none" stroke="#000000" stroke-width="1" stroke-dasharray="" stroke-linejoin="round" data-connector-id="c1:285" marker-end="url(#arrow_line_arrow_000000)"/><path d="M -233.1881103515625 1274.664306640625 L -233.1881103515625 1017.8321533203125 L 1923.5286865234375 1017.8321533203125 L 1923.5286865234375 761" fill="none" stroke="#000000" stroke-width="1" stroke-dasharray="" stroke-linejoin="round" data-connector-id="c1:286" marker-end="url(#arrow_line_arrow_000000)"/><path d="M 98.8118896484375 1274.664306640625 L 98.8118896484375 1017.8321533203125 L 1923.5286865234375 1017.8321533203125 L 1923.5286865234375 761" fill="none" stroke="#000000" stroke-width="1" stroke-dasharray="" stroke-linejoin="round" data-connector-id="c1:287" marker-end="url(#arrow_line_arrow_000000)"/><path d="M 3414.81200869882 1274.664306640625 L 3414.81201171875 1017.8321533203125 L 1923.5286865234375 1017.8321533203125 L 1923.5286865234375 761" fill="none" stroke="#000000" stroke-width="1" stroke-dasharray="" stroke-linejoin="round" data-connector-id="c1:288" marker-end="url(#arrow_line_arrow_000000)"/><path d="M 354.8115234375 1688.6640625 L 354.8115234375 1521.6641845703125 L 761.8118896484375 1521.6641845703125 L 761.8118896484375 1354.664306640625" fill="none" stroke="#000000" stroke-width="1" stroke-dasharray="" stroke-linejoin="round" data-connector-id="c1:289" marker-end="url(#arrow_line_arrow_000000)"/><path d="M 82.812255859375 1688.6640625 L 82.812255859375 1521.6641845703125 L 761.8118896484375 1521.6641845703125 L 761.8118896484375 1354.664306640625" fill="none" stroke="#000000" stroke-width="1" stroke-dasharray="" stroke-linejoin="round" data-connector-id="c1:290" marker-end="url(#arrow_line_arrow_000000)"/><path d="M -565.1881103515625 1274.664306640625 L -565.1881103515625 1017.8321533203125 L 1923.5286865234375 1017.8321533203125 L 1923.5286865234375 761" fill="none" stroke="#000000" stroke-width="1" stroke-dasharray="" stroke-linejoin="round" data-connector-id="c1:291" marker-end="url(#arrow_line_arrow_000000)"/><path d="M -896.1881103515625 1274.664306640625 L -896.1881103515625 1017.8321533203125 L 1923.5286865234375 1017.8321533203125 L 1923.5286865234375 761" fill="none" stroke="#000000" stroke-width="1" stroke-dasharray="" stroke-linejoin="round" data-connector-id="c1:292" marker-end="url(#arrow_line_arrow_000000)"/><path d="M -1560.1881103515625 1274.664306640625 L -1560.1881103515625 1017.8321533203125 L 1923.5286865234375 1017.8321533203125 L 1923.5286865234375 761" fill="none" stroke="#000000" stroke-width="1" stroke-dasharray="" stroke-linejoin="round" data-connector-id="c1:293" marker-end="url(#arrow_line_arrow_000000)"/><path d="M -1891.1881103515625 1274.664306640625 L -1891.1881103515625 1017.8321533203125 L 1923.5286865234375 1017.8321533203125 L 1923.5286865234375 761" fill="none" stroke="#000000" stroke-width="1" stroke-dasharray="" stroke-linejoin="round" data-connector-id="c1:294" marker-end="url(#arrow_line_arrow_000000)"/><path d="M -1228.1881103515625 1274.664306640625 L -1228.1881103515625 1017.8321533203125 L 1923.5286865234375 1017.8321533203125 L 1923.5286865234375 761" fill="none" stroke="#000000" stroke-width="1" stroke-dasharray="" stroke-linejoin="round" data-connector-id="c1:295" marker-end="url(#arrow_line_arrow_000000)"/><path d="M -2223.18799130118 1274.664306640625 L -2223.18798828125 1017.8321533203125 L 1923.52880859375 1017.8321533203125 L 1923.5286865234375 761" fill="none" stroke="#000000" stroke-width="1" stroke-dasharray="" stroke-linejoin="round" data-connector-id="c1:296" marker-end="url(#arrow_line_arrow_000000)"/><rect x="3627.09521484375" y="1888.6640625" width="249.666748046875" height="80" rx="10" ry="10" fill="#f0f4fc" stroke="#000000" stroke-width="1" stroke-dasharray=""/><text x="3751.9285888671875" y="1919.5640625" fill="#1f2329" font-family="sans-serif" font-size="14" text-anchor="middle"><tspan x="3751.9285888671875" dy="0">ShareSubscribeInviteReceiveViewHol</tspan><tspan x="3751.9285888671875" dy="19.599999999999998">der</tspan></text><rect x="3925.094970703125" y="1888.6640625" width="249.666748046875" height="80" rx="10" ry="10" fill="#f0f4fc" stroke="#000000" stroke-width="1" stroke-dasharray=""/><text x="4049.9283447265625" y="1929.3640625" fill="#1f2329" font-family="sans-serif" font-size="14" text-anchor="middle"><tspan x="4049.9283447265625" dy="0">ShareSearchLinkViewHolder</tspan></text><rect x="4223.09423828125" y="1888.664306640625" width="249.666748046875" height="80" rx="10" ry="10" fill="#f0f4fc" stroke="#000000" stroke-width="1" stroke-dasharray=""/><text x="4347.9276123046875" y="1929.364306640625" fill="#1f2329" font-family="sans-serif" font-size="14" text-anchor="middle"><tspan x="4347.9276123046875" dy="0">ShareWebLinkViewHolder</tspan></text><path d="M 3751.92870791757 1888.6640625 L 3751.9287109375 1828.6640625 L 4049.92822265625 1828.6640625 L 4049.92822567618 1768.6640625" fill="none" stroke="#000000" stroke-width="1" stroke-dasharray="" stroke-linejoin="round" data-connector-id="c1:297" marker-end="url(#arrow_line_arrow_000000)"/><path d="M 4049.92822567618 1888.6640625 L 4049.92822567618 1768.6640625" fill="none" stroke="#000000" stroke-width="1" stroke-dasharray="" stroke-linejoin="round" data-connector-id="c1:298" marker-end="url(#arrow_line_arrow_000000)"/><path d="M 4347.92773135507 1888.664306640625 L 4347.927734375 1828.6641845703125 L 4049.92822265625 1828.6641845703125 L 4049.92822567618 1768.6640625" fill="none" stroke="#000000" stroke-width="1" stroke-dasharray="" stroke-linejoin="round" data-connector-id="c1:299" marker-end="url(#arrow_line_arrow_000000)"/><rect x="2294.978515625" y="1688.6640625" width="249.666748046875" height="80" rx="10" ry="10" fill="#f0f4fc" stroke="#000000" stroke-width="1" stroke-dasharray=""/><text x="2419.8118896484375" y="1729.3640625" fill="#1f2329" font-family="sans-serif" font-size="14" text-anchor="middle"><tspan x="2419.8118896484375" dy="0">TextSendViewHolder</tspan></text><path d="M 2419.81200869882 1688.6640625 L 2419.81200869882 1354.664306640625" fill="none" stroke="#000000" stroke-width="1" stroke-dasharray="" stroke-linejoin="round" data-connector-id="c1:300" marker-end="url(#arrow_line_arrow_000000)"/><rect x="5480.72265625" y="1410" width="249.666748046875" height="80" rx="10" ry="10" fill="#f0f4fc" stroke="#000000" stroke-width="1" stroke-dasharray=""/><text x="5605.5560302734375" y="1450.7" fill="#1f2329" font-family="sans-serif" font-size="14" text-anchor="middle"><tspan x="5605.5560302734375" dy="0">InfoCardSendViewHolder</tspan></text><path d="M 5605.55614932382 1410 L 5605.55614932382 1285" fill="none" stroke="#000000" stroke-width="1" stroke-dasharray="" stroke-linejoin="round" data-connector-id="c1:301" marker-end="url(#arrow_line_arrow_000000)"/><rect x="-1061.6881103515625" y="1688.6640625" width="249.666748046875" height="80" rx="10" ry="10" fill="#f0f4fc" stroke="#000000" stroke-width="1" stroke-dasharray=""/><text x="-936.854736328125" y="1729.3640625" fill="#1f2329" font-family="sans-serif" font-size="14" text-anchor="middle"><tspan x="-936.854736328125" dy="0">ShareAwemeSendAutoPlayViewHolder</tspan></text><path d="M -936.854736328125 1688.6640625 L -936.854736328125 1521.6641845703125 L -896.1881103515625 1521.6641845703125 L -896.1881103515625 1354.664306640625" fill="none" stroke="#000000" stroke-width="1" stroke-dasharray="" stroke-linejoin="round" data-connector-id="c1:302" marker-end="url(#arrow_line_arrow_000000)"/><rect x="-1353.021484375" y="1688.6640625" width="249.666748046875" height="80" rx="10" ry="10" fill="#f0f4fc" stroke="#000000" stroke-width="1" stroke-dasharray=""/><text x="-1228.1881103515625" y="1729.3640625" fill="#1f2329" font-family="sans-serif" font-size="14" text-anchor="middle"><tspan x="-1228.1881103515625" dy="0">NudgeSendViewHolder</tspan></text><path d="M -1228.1881103515625 1688.6640625 L -1228.1881103515625 1354.664306640625" fill="none" stroke="#000000" stroke-width="1" stroke-dasharray="" stroke-linejoin="round" data-connector-id="c1:303" marker-end="url(#arrow_line_arrow_000000)"/><rect x="8910" y="681" width="249.666748046875" height="80" rx="10" ry="10" fill="#fef1ce" stroke="#000000" stroke-width="1" stroke-dasharray=""/><text x="9034.833374023438" y="721.7" fill="#1f2329" font-family="sans-serif" font-size="14" text-anchor="middle"><tspan x="9034.833374023438" dy="0">AiMojiEntranceViewHolder</tspan></text><rect x="9911" y="681" width="267.958740234375" height="80" rx="10" ry="10" fill="#f0f4fc" stroke="#000000" stroke-width="1" stroke-dasharray=""/><text x="10044.979370117188" y="721.7" fill="#1f2329" font-family="sans-serif" font-size="14" text-anchor="middle"><tspan x="10044.979370117188" dy="0">BulletinBoardProfileItemViewHolder</tspan></text><rect x="9577" y="681" width="249.666748046875" height="80" rx="10" ry="10" fill="#f0f4fc" stroke="#000000" stroke-width="1" stroke-dasharray=""/><text x="9701.833374023438" y="721.7" fill="#1f2329" font-family="sans-serif" font-size="14" text-anchor="middle"><tspan x="9701.833374023438" dy="0">RecalledMessageViewHolder</tspan></text><rect x="10245" y="681" width="249.666748046875" height="80" rx="10" ry="10" fill="#f0f4fc" stroke="#000000" stroke-width="1" stroke-dasharray=""/><text x="10369.833374023438" y="721.7" fill="#1f2329" font-family="sans-serif" font-size="14" text-anchor="middle"><tspan x="10369.833374023438" dy="0">BaseFakeMessageViewHolder</tspan></text><rect x="9244" y="681" width="249.666748046875" height="80" rx="10" ry="10" fill="#f0f4fc" stroke="#000000" stroke-width="1" stroke-dasharray=""/><text x="9368.833374023438" y="721.7" fill="#1f2329" font-family="sans-serif" font-size="14" text-anchor="middle"><tspan x="9368.833374023438" dy="0">CollapseInlineViewHolder</tspan></text><rect x="10578" y="681" width="249.666748046875" height="80" rx="10" ry="10" fill="#f0f4fc" stroke="#000000" stroke-width="1" stroke-dasharray=""/><text x="10702.833374023438" y="721.7" fill="#1f2329" font-family="sans-serif" font-size="14" text-anchor="middle"><tspan x="10702.833374023438" dy="0">ViolationReceiveViewHolder</tspan></text><rect x="11246" y="681" width="249.666748046875" height="80" rx="10" ry="10" fill="#f0f4fc" stroke="#000000" stroke-width="1" stroke-dasharray=""/><text x="11370.833374023438" y="721.7" fill="#1f2329" font-family="sans-serif" font-size="14" text-anchor="middle"><tspan x="11370.833374023438" dy="0">GroupChatCreationViewHolder</tspan></text><rect x="10912" y="681" width="249.666748046875" height="80" rx="10" ry="10" fill="#f0f4fc" stroke="#000000" stroke-width="1" stroke-dasharray=""/><text x="11036.833374023438" y="721.7" fill="#1f2329" font-family="sans-serif" font-size="14" text-anchor="middle"><tspan x="11036.833374023438" dy="0">ProfileItemViewHolder</tspan></text><rect x="11579" y="681" width="249.666748046875" height="80" rx="10" ry="10" fill="#fef1ce" stroke="#000000" stroke-width="1" stroke-dasharray=""/><text x="11703.833374023438" y="721.7" fill="#1f2329" font-family="sans-serif" font-size="14" text-anchor="middle"><tspan x="11703.833374023438" dy="0">DateViewHolder</tspan></text><rect x="10394.501953125" y="1057.2421875" width="249.666748046875" height="80" rx="10" ry="10" fill="#f0f4fc" stroke="#000000" stroke-width="1" stroke-dasharray=""/><text x="10519.335327148438" y="1097.9421875" fill="#1f2329" font-family="sans-serif" font-size="14" text-anchor="middle"><tspan x="10519.335327148438" dy="0">UserRecCardViewHolder</tspan></text><rect x="10095.4990234375" y="1057.2421875" width="249.666748046875" height="80" rx="10" ry="10" fill="#f0f4fc" stroke="#000000" stroke-width="1" stroke-dasharray=""/><text x="10220.332397460938" y="1097.9421875" fill="#1f2329" font-family="sans-serif" font-size="14" text-anchor="middle"><tspan x="10220.332397460938" dy="0">ClientInlineMsgViewHolder</tspan></text><path d="M 10220.33203286914 1057.2421875 L 10220.33203125 909.12109375 L 10369.8330078125 909.12109375 L 10369.83300943164 761" fill="none" stroke="#000000" stroke-width="1" stroke-dasharray="" stroke-linejoin="round" data-connector-id="c1:304" marker-end="url(#arrow_line_arrow_000000)"/><path d="M 10519.33496255664 1057.2421875 L 10519.3349609375 909.12109375 L 10369.8330078125 909.12109375 L 10369.83300943164 761" fill="none" stroke="#000000" stroke-width="1" stroke-dasharray="" stroke-linejoin="round" data-connector-id="c1:305" marker-end="url(#arrow_line_arrow_000000)"/><path d="M 9368.83300943164 681 L 9368.8330078125 536.6834716796875 L 6847.7255859375 536.6834716796875 L 6847.725575752644 392.366943359375" fill="none" stroke="#000000" stroke-width="1" stroke-dasharray="" stroke-linejoin="round" data-connector-id="c1:306" marker-end="url(#arrow_line_arrow_000000)"/><path d="M 9034.83300943164 681 L 9034.8330078125 536.6834716796875 L 6847.7255859375 536.6834716796875 L 6847.725575752644 392.366943359375" fill="none" stroke="#000000" stroke-width="1" stroke-dasharray="" stroke-linejoin="round" data-connector-id="c1:307" marker-end="url(#arrow_line_arrow_000000)"/><path d="M 11036.83300943164 681 L 11036.8330078125 536.6834716796875 L 6847.7255859375 536.6834716796875 L 6847.725575752644 392.366943359375" fill="none" stroke="#000000" stroke-width="1" stroke-dasharray="" stroke-linejoin="round" data-connector-id="c1:308" marker-end="url(#arrow_line_arrow_000000)"/><path d="M 9701.83300943164 681 L 9701.8330078125 536.6834716796875 L 6847.7255859375 536.6834716796875 L 6847.725575752644 392.366943359375" fill="none" stroke="#000000" stroke-width="1" stroke-dasharray="" stroke-linejoin="round" data-connector-id="c1:309" marker-end="url(#arrow_line_arrow_000000)"/><path d="M 11370.83300943164 681 L 11370.8330078125 536.6834716796875 L 6847.7255859375 536.6834716796875 L 6847.725575752644 392.366943359375" fill="none" stroke="#000000" stroke-width="1" stroke-dasharray="" stroke-linejoin="round" data-connector-id="c1:310" marker-end="url(#arrow_line_arrow_000000)"/><path d="M 10044.979497889872 681 L 10044.9794921875 536.6834716796875 L 6847.7255859375 536.6834716796875 L 6847.725575752644 392.366943359375" fill="none" stroke="#000000" stroke-width="1" stroke-dasharray="" stroke-linejoin="round" data-connector-id="c1:312" marker-end="url(#arrow_line_arrow_000000)"/><path d="M 11703.83300943164 681 L 11703.8330078125 536.6834716796875 L 6847.7255859375 536.6834716796875 L 6847.725575752644 392.366943359375" fill="none" stroke="#000000" stroke-width="1" stroke-dasharray="" stroke-linejoin="round" data-connector-id="c1:314" marker-end="url(#arrow_line_arrow_000000)"/><path d="M 10369.83300943164 681 L 10369.8330078125 536.6834716796875 L 6847.7255859375 536.6834716796875 L 6847.725575752644 392.366943359375" fill="none" stroke="#000000" stroke-width="1" stroke-dasharray="" stroke-linejoin="round" data-connector-id="c1:315" marker-end="url(#arrow_line_arrow_000000)"/><rect x="6686.78125" y="1173.84130859375" width="321.88836669921875" height="217.74462890625" rx="10" ry="10" fill="#509863" stroke="#ffffff" stroke-width="1" stroke-dasharray=""/><text x="6847.725433349609" y="1217.913623046875" fill="#ffffff" font-family="sans-serif" font-size="48" text-anchor="middle"><tspan x="6847.725433349609" dy="0">AwemeVideoCa</tspan><tspan x="6847.725433349609" dy="67.19999999999999">rdReceiveView</tspan><tspan x="6847.725433349609" dy="67.19999999999999">Holder</tspan></text><path d="M 6847.725586837943 1173.84130859375 L 6847.725601177783 1035.02685546875" fill="none" stroke="#000000" stroke-width="1" stroke-dasharray="" stroke-linejoin="round" data-connector-id="c1:316" marker-end="url(#arrow_line_arrow_000000)"/><path d="M 10702.83300943164 681 L 10702.8330078125 536.6834716796875 L 6847.7255859375 536.6834716796875 L 6847.725575752644 392.366943359375" fill="none" stroke="#000000" stroke-width="1" stroke-dasharray="" stroke-linejoin="round" data-connector-id="c14:2" marker-end="url(#arrow_line_arrow_000000)"/></svg>