<svg xmlns="http://www.w3.org/2000/svg" viewBox="-50 -30 809.9052734375 696.1120262145996" width="809.9052734375" height="696.1120262145996"><rect x="-50" y="-30" width="809.9052734375" height="696.1120262145996" fill="#ffffff"/><defs><marker id="arrow_triangle_arrow_000000" markerWidth="10" markerHeight="16" refX="9" refY="8" orient="auto" markerUnits="userSpaceOnUse"><polygon points="0 4, 10 8, 0 12" fill="#000000"/></marker><marker id="arrowhead_default" markerWidth="10" markerHeight="16" refX="9" refY="8" orient="auto" markerUnits="userSpaceOnUse"><polygon points="0 4, 10 8, 0 12" fill="#666666"/></marker></defs><path d="M 60 152.16799926757812 L 325.46826171875 152.16799926757812" fill="none" stroke="#000000" stroke-width="1" stroke-dasharray="" stroke-linejoin="round" data-connector-id="c1:1" marker-end="url(#arrow_triangle_arrow_000000)"/><rect x="133.614130859375" y="140.16799926757812" width="118.24000000000001" height="24" fill="#ffffff" fill-opacity="0" rx="4" ry="4"/><text x="192.734130859375" y="153.96799926757814" fill="#1f2329" font-family="sans-serif" font-size="12" text-anchor="middle" data-connector-id="c1:1" data-role="caption"><tspan x="192.734130859375" dy="0">准备发起 API 请求</tspan></text><path d="M 325.46826171875 204.33599853515625 L 385.46826171875 204.33599853515625 L 385.46826171875 264.33599853515625 L 325.46826171875 264.33599853515625" fill="none" stroke="#000000" stroke-width="1" stroke-dasharray="" stroke-linejoin="round" data-connector-id="c1:2" marker-end="url(#arrow_triangle_arrow_000000)"/><rect x="303.18826171875" y="222.33599853515625" width="164.56" height="24" fill="#ffffff" fill-opacity="0" rx="4" ry="4"/><text x="385.46826171875" y="236.13599853515626" fill="#1f2329" font-family="sans-serif" font-size="12" text-anchor="middle" data-connector-id="c1:2" data-role="caption"><tspan x="385.46826171875" dy="0">扫历史，挑过气 tool_result</tspan></text><path d="M 325.46826171875 336.5039978027344 L 385.46826171875 336.5039978027344 L 385.46826171875 396.5039978027344 L 325.46826171875 396.5039978027344" fill="none" stroke="#000000" stroke-width="1" stroke-dasharray="" stroke-linejoin="round" data-connector-id="c1:3" marker-end="url(#arrow_triangle_arrow_000000)"/><rect x="290.46826171875" y="354.5039978027344" width="190" height="24" fill="#ffffff" fill-opacity="0" rx="4" ry="4"/><text x="385.46826171875" y="368.3039978027344" fill="#1f2329" font-family="sans-serif" font-size="12" text-anchor="middle" data-connector-id="c1:3" data-role="caption"><tspan x="385.46826171875" dy="0">规则判定（白名单+年龄+保留 N）</tspan></text><path d="M 325.46826171875 488.6719970703125 L 649.9052734375 488.6719970703125" fill="none" stroke="#000000" stroke-width="1" stroke-dasharray="" stroke-linejoin="round" data-connector-id="c1:4" marker-end="url(#arrow_triangle_arrow_000000)"/><rect x="406.726767578125" y="476.6719970703125" width="161.92" height="24" fill="#ffffff" fill-opacity="0" rx="4" ry="4"/><text x="487.686767578125" y="490.4719970703125" fill="#1f2329" font-family="sans-serif" font-size="12" text-anchor="middle" data-connector-id="c1:4" data-role="caption"><tspan x="487.686767578125" dy="0">携带 cache_edits 发出请求</tspan></text><path d="M 649.9052734375 560.8400268554688 L 60 560.8400268554688" fill="none" stroke="#000000" stroke-width="1" stroke-dasharray="4, 4" stroke-linejoin="round" data-connector-id="c1:5" marker-end="url(#arrow_triangle_arrow_000000)"/><rect x="285.39263671875" y="548.8400268554688" width="139.12" height="24" fill="#ffffff" fill-opacity="0" rx="4" ry="4"/><text x="354.95263671875" y="562.6400268554687" fill="#1f2329" font-family="sans-serif" font-size="12" text-anchor="middle" data-connector-id="c1:5" data-role="caption"><tspan x="354.95263671875" dy="0">返回 assistant message</tspan></text><path d="M 30 575.8400268554688 L 346.600830078125 575.8400268554688 L 361.600830078125 590.8400268554688 L 361.600830078125 616.1120262145996 L 30 616.1120262145996 Z" fill="#fef1ce" stroke="#000000" stroke-width="1" stroke-dasharray=""/><path d="M 346.600830078125 575.8400268554688 L 346.600830078125 590.8400268554688 L 361.600830078125 590.8400268554688" fill="none" stroke="#000000" stroke-width="1"/><text x="195.8004150390625" y="596.6760265350342" fill="#1f2329" font-family="sans-serif" font-size="14" text-anchor="middle"><tspan x="195.8004150390625" dy="0">下一轮 loop 又叫醒一次 Microcompact</tspan></text></svg>