<svg xmlns="http://www.w3.org/2000/svg" viewBox="-50 -50 1107.6396484375 405.0879936218262" width="1107.6396484375" height="405.0879936218262"><rect x="-50" y="-50" width="1107.6396484375" height="405.0879936218262" fill="#ffffff"/><defs><marker id="arrow_triangle_arrow_000000" markerWidth="10" markerHeight="16" refX="9" refY="8" orient="auto" markerUnits="userSpaceOnUse"><polygon points="0 4, 10 8, 0 12" fill="#000000"/></marker><marker id="arrowhead_default" markerWidth="10" markerHeight="16" refX="9" refY="8" orient="auto" markerUnits="userSpaceOnUse"><polygon points="0 4, 10 8, 0 12" fill="#666666"/></marker></defs><path d="M 461.396 39.33999858674838 L 461.396 47.82800006866455 L 397.77699279785156 47.82800006866455 L 397.77699279785156 86.95000076293945 L 143.29899978637695 86.95000076293945 L 143.29899978637695 121.2720031407519 L 79.67899906635284 121.2720031407519" fill="none" stroke="#000000" stroke-width="1" stroke-dasharray="" stroke-linejoin="round" data-connector-id="c1:1" marker-end="url(#arrow_triangle_arrow_000000)"/><path d="M 461.396 44.207999140277934 L 461.396 51.88600015640259 L 431.6699981689453 51.88600015640259 L 431.6699981689453 87.76100158691406 L 312.76399421691895 87.76100158691406 L 312.76399421691895 121.2720031407519 L 283.0379979610443 121.2720031407519" fill="none" stroke="#000000" stroke-width="1" stroke-dasharray="" stroke-linejoin="round" data-connector-id="c1:2" marker-end="url(#arrow_triangle_arrow_000000)"/><path d="M 500.3960007429123 60.27199935913086 L 500.3960015773773 121.2720031407519" fill="none" stroke="#000000" stroke-width="1" stroke-dasharray="" stroke-linejoin="round" data-connector-id="c1:3" marker-end="url(#arrow_triangle_arrow_000000)"/><path d="M 539.39599609375 44.207999140277934 L 539.39599609375 51.88600015640259 L 569.1219959259033 51.88600015640259 L 569.1219959259033 87.76100158691406 L 688.0279998779297 87.76100158691406 L 688.0279998779297 121.2720031407519 L 717.753999710083 121.2720031407519" fill="none" stroke="#000000" stroke-width="1" stroke-dasharray="" stroke-linejoin="round" data-connector-id="c1:4" marker-end="url(#arrow_triangle_arrow_000000)"/><path d="M 539.39599609375 39.249999806647565 L 539.39599609375 47.753000259399414 L 604.2529983520508 47.753000259399414 L 604.2529983520508 86.93500137329102 L 863.6799926757812 86.93500137329102 L 863.6799926757812 121.2720031407519 L 928.5370001792908 121.2720031407519" fill="none" stroke="#000000" stroke-width="1" stroke-dasharray="" stroke-linejoin="round" data-connector-id="c1:5" marker-end="url(#arrow_triangle_arrow_000000)"/><path d="M 79.67899906635284 192.81600189208984 L 79.67899841532926 253.81599426351826" fill="none" stroke="#000000" stroke-width="1" stroke-dasharray="" stroke-linejoin="round" data-connector-id="c1:6" marker-end="url(#arrow_triangle_arrow_000000)"/><path d="M 283.0379979610443 192.81600189208984 L 283.0379992630915 253.81599426351826" fill="none" stroke="#000000" stroke-width="1" stroke-dasharray="" stroke-linejoin="round" data-connector-id="c1:7" marker-end="url(#arrow_triangle_arrow_000000)"/><path d="M 500.3960015773773 192.81600189208984 L 500.39599609375 253.81599426351826" fill="none" stroke="#000000" stroke-width="1" stroke-dasharray="" stroke-linejoin="round" data-connector-id="c1:8" marker-end="url(#arrow_triangle_arrow_000000)"/><path d="M 717.753999710083 192.81600189208984 L 717.7540014692349 253.81599426351826" fill="none" stroke="#000000" stroke-width="1" stroke-dasharray="" stroke-linejoin="round" data-connector-id="c1:9" marker-end="url(#arrow_triangle_arrow_000000)"/><path d="M 928.5370001792908 192.81600189208984 L 928.5369982863776 253.81599426351826" fill="none" stroke="#000000" stroke-width="1" stroke-dasharray="" stroke-linejoin="round" data-connector-id="c1:10" marker-end="url(#arrow_triangle_arrow_000000)"/><rect x="461.39599609375" y="8" width="78" height="52.27199935913086" rx="10" ry="10" fill="#f0f4fc" stroke="#000000" stroke-width="1" stroke-dasharray=""/><text x="500.39599609375" y="34.83599967956543" fill="#1f2329" font-family="sans-serif" font-size="14" text-anchor="middle"><tspan x="500.39599609375" dy="0">一句话</tspan></text><rect x="33.67919921875" y="120.27200317382812" width="92" height="72.54399871826172" rx="10" ry="10" fill="#f0f4fc" stroke="#000000" stroke-width="1" stroke-dasharray=""/><text x="79.67919921875" y="147.444002532959" fill="#1f2329" font-family="sans-serif" font-size="14" text-anchor="middle"><tspan x="79.67919921875" dy="0">产品视角</tspan><tspan x="79.67919921875" dy="19.599999999999998">发布计划</tspan></text><rect x="237.03759765625" y="120.27200317382812" width="92" height="72.54399871826172" rx="10" ry="10" fill="#f0f4fc" stroke="#000000" stroke-width="1" stroke-dasharray=""/><text x="283.03759765625" y="147.444002532959" fill="#1f2329" font-family="sans-serif" font-size="14" text-anchor="middle"><tspan x="283.03759765625" dy="0">法务视角</tspan><tspan x="283.03759765625" dy="19.599999999999998">审批依赖</tspan></text><rect x="454.39599609375" y="120.27200317382812" width="92" height="72.54399871826172" rx="10" ry="10" fill="#f0f4fc" stroke="#000000" stroke-width="1" stroke-dasharray=""/><text x="500.39599609375" y="147.444002532959" fill="#1f2329" font-family="sans-serif" font-size="14" text-anchor="middle"><tspan x="500.39599609375" dy="0">客户视角</tspan><tspan x="500.39599609375" dy="19.599999999999998">条件承诺</tspan></text><rect x="671.75439453125" y="120.27200317382812" width="92" height="72.54399871826172" rx="10" ry="10" fill="#f0f4fc" stroke="#000000" stroke-width="1" stroke-dasharray=""/><text x="717.75439453125" y="147.444002532959" fill="#1f2329" font-family="sans-serif" font-size="14" text-anchor="middle"><tspan x="717.75439453125" dy="0">工程视角</tspan><tspan x="717.75439453125" dy="19.599999999999998">交付假设</tspan></text><rect x="875.53662109375" y="120.27200317382812" width="106" height="72.54399871826172" rx="10" ry="10" fill="#f0f4fc" stroke="#000000" stroke-width="1" stroke-dasharray=""/><text x="928.53662109375" y="147.444002532959" fill="#1f2329" font-family="sans-serif" font-size="14" text-anchor="middle"><tspan x="928.53662109375" dy="0">管理视角</tspan><tspan x="928.53662109375" dy="19.599999999999998">未闭环决策</tspan></text><rect x="8" y="252.8159942626953" width="143.3583984375" height="52.27199935913086" rx="10" ry="10" fill="#f0f4fc" stroke="#000000" stroke-width="1" stroke-dasharray=""/><text x="79.67919921875" y="279.65199394226073" fill="#1f2329" font-family="sans-serif" font-size="14" text-anchor="middle"><tspan x="79.67919921875" dy="0">action：确认范围</tspan></text><rect x="211.3583984375" y="252.8159942626953" width="143.3583984375" height="52.27199935913086" rx="10" ry="10" fill="#f0f4fc" stroke="#000000" stroke-width="1" stroke-dasharray=""/><text x="283.03759765625" y="279.65199394226073" fill="#1f2329" font-family="sans-serif" font-size="14" text-anchor="middle"><tspan x="283.03759765625" dy="0">action：补齐签字</tspan></text><rect x="414.716796875" y="252.8159942626953" width="171.3583984375" height="52.27199935913086" rx="10" ry="10" fill="#f0f4fc" stroke="#000000" stroke-width="1" stroke-dasharray=""/><text x="500.39599609375" y="279.65199394226073" fill="#1f2329" font-family="sans-serif" font-size="14" text-anchor="middle"><tspan x="500.39599609375" dy="0">action：同步客户预期</tspan></text><rect x="646.0751953125" y="252.8159942626953" width="143.3583984375" height="52.27199935913086" rx="10" ry="10" fill="#f0f4fc" stroke="#000000" stroke-width="1" stroke-dasharray=""/><text x="717.75439453125" y="279.65199394226073" fill="#1f2329" font-family="sans-serif" font-size="14" text-anchor="middle"><tspan x="717.75439453125" dy="0">action：验证限制</tspan></text><rect x="849.43359375" y="252.8159942626953" width="158.2060546875" height="52.27199935913086" rx="10" ry="10" fill="#f0f4fc" stroke="#000000" stroke-width="1" stroke-dasharray=""/><text x="928.53662109375" y="279.65199394226073" fill="#1f2329" font-family="sans-serif" font-size="14" text-anchor="middle"><tspan x="928.53662109375" dy="0">action：明确 owner</tspan></text></svg>