<svg xmlns="http://www.w3.org/2000/svg" viewBox="-50 -50 494.9892578125 609.3600120544434" width="494.9892578125" height="609.3600120544434"><rect x="-50" y="-50" width="494.9892578125" height="609.3600120544434" fill="#ffffff"/><defs><marker id="arrow_triangle_arrow_000000" markerWidth="10" markerHeight="16" refX="9" refY="8" orient="auto" markerUnits="userSpaceOnUse"><polygon points="0 4, 10 8, 0 12" fill="#000000"/></marker><marker id="arrowhead_default" markerWidth="10" markerHeight="16" refX="9" refY="8" orient="auto" markerUnits="userSpaceOnUse"><polygon points="0 4, 10 8, 0 12" fill="#666666"/></marker></defs><path d="M 127.72998046875 34.13599967956543 L 145.7229995727539 34.13600105047226 L 234.38300323486328 34.13600105047226 L 234.38300323486328 65.71700286865234 L 319.1269989013672 65.71700286865234 L 319.1269989013672 192.0420036315918 L 335.8140003917506 192.0420036315918 L 335.8140003917506 223.6229924095387" fill="none" stroke="#000000" stroke-width="1" stroke-dasharray="" stroke-linejoin="round" data-connector-id="c1:1" marker-end="url(#arrow_triangle_arrow_000000)"/><rect x="253.95270455063735" y="53.717002868652344" width="76" height="24" fill="#ffffff" fill-opacity="0" rx="4" ry="4"/><text x="291.95270455063735" y="67.51700286865234" fill="#1f2329" font-family="sans-serif" font-size="12" text-anchor="middle" data-connector-id="c1:1" data-role="caption"><tspan x="291.95270455063735" dy="0">持久化记忆</tspan></text><path d="M 116.79900068091229 146.40800285339355 L 136.61400413513184 146.4080047607422 L 230.84900665283203 146.4080047607422 L 230.84900665283203 160.57800483703613 L 310.5630111694336 160.57800483703613 L 310.5630111694336 217.25800323486328 L 325.53800009720726 217.25800323486328 L 325.53800009720726 231.4279928651522" fill="none" stroke="#000000" stroke-width="1" stroke-dasharray="" stroke-linejoin="round" data-connector-id="c1:2" marker-end="url(#arrow_triangle_arrow_000000)"/><rect x="211.49891469443892" y="148.57800483703613" width="62.800000000000004" height="24" fill="#ffffff" fill-opacity="0" rx="4" ry="4"/><text x="242.89891469443893" y="162.37800483703614" fill="#1f2329" font-family="sans-serif" font-size="12" text-anchor="middle" data-connector-id="c1:2" data-role="caption"><tspan x="242.89891469443893" dy="0">通用工具</tspan></text><path d="M 128.478515625 258.6800060272217 L 314.68800002883654 258.67999267578125" fill="none" stroke="#000000" stroke-width="1" stroke-dasharray="" stroke-linejoin="round" data-connector-id="c1:3" marker-end="url(#arrow_triangle_arrow_000000)"/><rect x="190.18325782691826" y="246.67999935150146" width="62.800000000000004" height="24" fill="#ffffff" fill-opacity="0" rx="4" ry="4"/><text x="221.58325782691827" y="260.4799993515015" fill="#1f2329" font-family="sans-serif" font-size="12" text-anchor="middle" data-connector-id="c1:3" data-role="caption"><tspan x="221.58325782691827" dy="0">安全边界</tspan></text><path d="M 157.68800368969096 370.9520092010498 L 170.68800354003906 370.9520034790039 L 237.66300201416016 370.9520034790039 L 237.66300201416016 356.7820053100586 L 310.56300354003906 356.7820053100586 L 310.56300354003906 300.10200691223145 L 325.53800009720726 300.10200691223145 L 325.53800009720726 285.93199127493426" fill="none" stroke="#000000" stroke-width="1" stroke-dasharray="" stroke-linejoin="round" data-connector-id="c1:4" marker-end="url(#arrow_triangle_arrow_000000)"/><rect x="248.3138819197374" y="344.7820053100586" width="49.6" height="24" fill="#ffffff" fill-opacity="0" rx="4" ry="4"/><text x="273.1138819197374" y="358.5820053100586" fill="#1f2329" font-family="sans-serif" font-size="12" text-anchor="middle" data-connector-id="c1:4" data-role="caption"><tspan x="273.1138819197374" dy="0">跨会话</tspan></text><path d="M 120.685546875 483.22401237487793 L 139.85299682617188 483.2239990234375 L 233.20899963378906 483.2239990234375 L 233.20899963378906 451.64300537109375 L 319.12699127197266 451.64300537109375 L 319.12699127197266 325.3179988861084 L 335.8140003917506 325.3179988861084 L 335.8140003917506 293.7369935477618" fill="none" stroke="#000000" stroke-width="1" stroke-dasharray="" stroke-linejoin="round" data-connector-id="c1:5" marker-end="url(#arrow_triangle_arrow_000000)"/><rect x="254.95459430485377" y="439.64300537109375" width="62.800000000000004" height="24" fill="#ffffff" fill-opacity="0" rx="4" ry="4"/><text x="286.3545943048538" y="453.44300537109376" fill="#1f2329" font-family="sans-serif" font-size="12" text-anchor="middle" data-connector-id="c1:5" data-role="caption"><tspan x="286.3545943048538" dy="0">纪律执行</tspan></text><rect x="37.95849609375" y="8" width="89.771484375" height="52.27199935913086" rx="10" ry="10" fill="#f0f4fc" stroke="#000000" stroke-width="1" stroke-dasharray=""/><text x="82.84423828125" y="25.035999679565432" fill="#1f2329" font-family="sans-serif" font-size="14" text-anchor="middle"><tspan x="82.84423828125" dy="0">FileSystem &amp;</tspan><tspan x="82.84423828125" dy="19.599999999999998">Git</tspan></text><rect x="313.6884765625" y="218.02960205078125" width="81.30078125" height="81.30078125" fill="#eae2fe" stroke="#000000" stroke-width="1" stroke-dasharray=""/><text x="354.3388671875" y="259.37999267578124" fill="#1f2329" font-family="sans-serif" font-size="14" text-anchor="middle"><tspan x="354.3388671875" dy="0">ReAct Loop</tspan></text><rect x="48.88916015625" y="120.27200317382812" width="67.91015625" height="52.27199935913086" rx="10" ry="10" fill="#f0f4fc" stroke="#000000" stroke-width="1" stroke-dasharray=""/><text x="82.84423828125" y="147.10800285339354" fill="#1f2329" font-family="sans-serif" font-size="14" text-anchor="middle"><tspan x="82.84423828125" dy="0">Bash</tspan></text><rect x="37.2099609375" y="232.54400634765625" width="91.2685546875" height="52.27199935913086" rx="10" ry="10" fill="#f0f4fc" stroke="#000000" stroke-width="1" stroke-dasharray=""/><text x="82.84423828125" y="259.38000602722167" fill="#1f2329" font-family="sans-serif" font-size="14" text-anchor="middle"><tspan x="82.84423828125" dy="0">Sandbox</tspan></text><rect x="8" y="344.8160095214844" width="149.6884765625" height="52.27199935913086" rx="10" ry="10" fill="#f0f4fc" stroke="#000000" stroke-width="1" stroke-dasharray=""/><text x="82.84423828125" y="371.6520092010498" fill="#1f2329" font-family="sans-serif" font-size="14" text-anchor="middle"><tspan x="82.84423828125" dy="0">Memory &amp; Search</tspan></text><rect x="45.0029296875" y="457.0880126953125" width="75.6826171875" height="52.27199935913086" rx="10" ry="10" fill="#f0f4fc" stroke="#000000" stroke-width="1" stroke-dasharray=""/><text x="82.84423828125" y="483.9240123748779" fill="#1f2329" font-family="sans-serif" font-size="14" text-anchor="middle"><tspan x="82.84423828125" dy="0">Hooks</tspan></text></svg>