<svg xmlns="http://www.w3.org/2000/svg" viewBox="-42 -19.716999053955078 638.953125 280.8769989013672" width="638.953125" height="280.8769989013672"><rect x="-42" y="-19.716999053955078" width="638.953125" height="280.8769989013672" fill="#ffffff"/><defs><marker id="arrow_triangle_arrow_000000" markerWidth="10" markerHeight="16" refX="9" refY="8" orient="auto" markerUnits="userSpaceOnUse"><polygon points="0 4, 10 8, 0 12" fill="#000000"/></marker><marker id="arrowhead_default" markerWidth="10" markerHeight="16" refX="9" refY="8" orient="auto" markerUnits="userSpaceOnUse"><polygon points="0 4, 10 8, 0 12" fill="#666666"/></marker></defs><path d="M 73.55859375 84.83700134171204 L 73.55859375 82.82299995422363 L 83.55899810791016 82.82299995422363 L 83.55899810791016 76.59099987149239 L 133.7229995727539 76.59099987149239 L 133.7229995727539 81.87799978256226 L 184.37899780273438 81.87799978256226 L 184.37899780273438 83.70400001282951 L 194.5430000042179 83.70400001282951" fill="none" stroke="#000000" stroke-width="1" stroke-dasharray="" stroke-linejoin="round" data-connector-id="c1:1" marker-end="url(#arrow_triangle_arrow_000000)"/><rect x="115.5229995727539" y="64.69315470600259" width="36.400000000000006" height="24" fill="#ffffff" fill-opacity="0" rx="4" ry="4"/><text x="133.7229995727539" y="78.49315470600258" fill="#1f2329" font-family="sans-serif" font-size="12" text-anchor="middle" data-connector-id="c1:1" data-role="caption"><tspan x="133.7229995727539" dy="0">问题</tspan></text><path d="M 281.68900136626326 67.85000090702205 L 281.68900136626326 59.323001861572266 L 297.6169958114624 59.323001861572266 L 297.6169958114624 32.01300096511841 L 377.40899658203125 32.01300096511841 L 377.40899658203125 50.67600059509277 L 457.66200256347656 50.67600059509277 L 457.66200256347656 57.47400063315524 L 473.7430000018594 57.47400063315524" fill="none" stroke="#000000" stroke-width="1" stroke-dasharray="" stroke-linejoin="round" data-connector-id="c1:2" marker-end="url(#arrow_triangle_arrow_000000)"/><rect x="322.1680005471279" y="20.013000965118408" width="100.72" height="24" fill="#ffffff" fill-opacity="0" rx="4" ry="4"/><text x="372.52800054712793" y="33.813000965118405" fill="#1f2329" font-family="sans-serif" font-size="12" text-anchor="middle" data-connector-id="c1:2" data-role="caption"><tspan x="372.52800054712793" dy="0">messages + tools</tspan></text><path d="M 472.822265625 77.97500208936117 L 472.822265625 80.21899843215942 L 456.8949890136719 80.21899843215942 L 456.8949890136719 89.1959981918335 L 377.08899688720703 89.1959981918335 L 377.08899688720703 91.43999862670898 L 296.7839946746826 91.43999862670898 L 280.68900188442785 91.44000053405762" fill="none" stroke="#000000" stroke-width="1" stroke-dasharray="" stroke-linejoin="round" data-connector-id="c1:3" marker-end="url(#arrow_triangle_arrow_000000)"/><rect x="349.2441315885123" y="77.1959981918335" width="64" height="24" fill="#ffffff" fill-opacity="0" rx="4" ry="4"/><text x="381.2441315885123" y="90.9959981918335" fill="#1f2329" font-family="sans-serif" font-size="12" text-anchor="middle" data-connector-id="c1:3" data-role="caption"><tspan x="381.2441315885123" dy="0">tool_call</tspan></text><path d="M 281.68900136626326 115.02999996636481 L 281.68900136626326 123.55699920654297 L 297.6169958114624 123.55699920654297 L 297.6169958114624 160.0970001220703 L 378.45799255371094 160.0970001220703 L 378.45799255371094 178.35300064086914 L 462.90599060058594 178.35300064086914 L 462.90599060058594 180.78600042198468 L 480.03600000511506 180.78600042198468" fill="none" stroke="#000000" stroke-width="1" stroke-dasharray="" stroke-linejoin="round" data-connector-id="c1:4" marker-end="url(#arrow_triangle_arrow_000000)"/><rect x="338.59401449392476" y="148.0970001220703" width="62.800000000000004" height="24" fill="#ffffff" fill-opacity="0" rx="4" ry="4"/><text x="369.99401449392474" y="161.89700012207032" fill="#1f2329" font-family="sans-serif" font-size="12" text-anchor="middle" data-connector-id="c1:4" data-role="caption"><tspan x="369.99401449392474" dy="0">真实调用</tspan></text><path d="M 479.04638671875 189.35299881872857 L 479.04638671875 191.73399353027344 L 462.0810089111328 191.73399353027344 L 462.0810089111328 186.80999755859375 L 376.24000549316406 186.80999755859375 L 376.24000549316406 131.39799690246582 L 287.35100173950195 131.39799690246582 L 287.35100173950195 116.94999990563178 L 269.3710009516217 116.94999990563178" fill="none" stroke="#000000" stroke-width="1" stroke-dasharray="" stroke-linejoin="round" data-connector-id="c1:5" marker-end="url(#arrow_triangle_arrow_000000)"/><rect x="358.0400054931641" y="140.06698191299174" width="36.400000000000006" height="24" fill="#ffffff" fill-opacity="0" rx="4" ry="4"/><text x="376.24000549316406" y="153.86698191299175" fill="#1f2329" font-family="sans-serif" font-size="12" text-anchor="middle" data-connector-id="c1:5" data-role="caption"><tspan x="376.24000549316406" dy="0">结果</tspan></text><path d="M 281.68900136626326 79.64500081790402 L 281.68900136626326 75.3809986114502 L 297.6169958114624 75.3809986114502 L 297.6169958114624 60.59499907493591 L 377.4209976196289 60.59499907493591 L 377.4209976196289 65.40099906921387 L 457.7200012207031 65.40099906921387 L 457.7200012207031 67.66900143847101 L 473.8119999777791 67.66900143847101" fill="none" stroke="#000000" stroke-width="1" stroke-dasharray="" stroke-linejoin="round" data-connector-id="c1:6" marker-end="url(#arrow_triangle_arrow_000000)"/><rect x="338.0825009823047" y="48.59499907493591" width="67.36" height="24" fill="#ffffff" fill-opacity="0" rx="4" ry="4"/><text x="371.7625009823047" y="62.39499907493591" fill="#1f2329" font-family="sans-serif" font-size="12" text-anchor="middle" data-connector-id="c1:6" data-role="caption"><tspan x="371.7625009823047" dy="0">role: tool</tspan></text><path d="M 472.822265625 88.42000141007884 L 472.822265625 95.1519980430603 L 456.8949890136719 95.1519980430603 L 456.8949890136719 117.77699851989746 L 377.0949935913086 117.77699851989746 L 377.0949935913086 107.28299903869629 L 296.8119926452637 107.28299903869629 L 296.8119926452637 102.97699917762975 L 280.72299935587216 102.97699917762975" fill="none" stroke="#000000" stroke-width="1" stroke-dasharray="" stroke-linejoin="round" data-connector-id="c1:7" marker-end="url(#arrow_triangle_arrow_000000)"/><rect x="352.65113137421156" y="105.77699851989746" width="62.800000000000004" height="24" fill="#ffffff" fill-opacity="0" rx="4" ry="4"/><text x="384.05113137421154" y="119.57699851989746" fill="#1f2329" font-family="sans-serif" font-size="12" text-anchor="middle" data-connector-id="c1:7" data-role="caption"><tspan x="384.05113137421154" dy="0">最终回答</tspan></text><path d="M 193.55899999998925 99.35300135638408 L 193.55899999998925 101.149001121521 L 183.5590057373047 101.149001121521 L 183.5590057373047 106.28500080108643 L 133.39500427246094 106.28500080108643 L 133.39500427246094 99.89200115203857 L 82.74200248718262 99.89200115203857 L 82.74200248718262 97.84499991765824 L 72.57800189801492 97.84499991765824" fill="none" stroke="#000000" stroke-width="1" stroke-dasharray="" stroke-linejoin="round" data-connector-id="c1:8" marker-end="url(#arrow_triangle_arrow_000000)"/><rect x="115.19500427246093" y="92.86361458728027" width="36.400000000000006" height="24" fill="#ffffff" fill-opacity="0" rx="4" ry="4"/><text x="133.39500427246094" y="106.66361458728026" fill="#1f2329" font-family="sans-serif" font-size="12" text-anchor="middle" data-connector-id="c1:8" data-role="caption"><tspan x="133.39500427246094" dy="0">返回</tspan></text><rect x="8" y="65.30400085449219" width="65.55859375" height="52.27199935913086" rx="10" ry="10" fill="#f0f4fc" stroke="#000000" stroke-width="1" stroke-dasharray=""/><text x="40.779296875" y="92.14000053405762" fill="#1f2329" font-family="sans-serif" font-size="14" text-anchor="middle"><tspan x="40.779296875" dy="0">User</tspan></text><rect x="193.55859375" y="65.30400085449219" width="88.130859375" height="52.27199935913086" rx="10" ry="10" fill="#f0f4fc" stroke="#000000" stroke-width="1" stroke-dasharray=""/><text x="237.6240234375" y="92.14000053405762" fill="#1f2329" font-family="sans-serif" font-size="14" text-anchor="middle"><tspan x="237.6240234375" dy="0">Harness</tspan></text><rect x="472.822265625" y="46.61600112915039" width="74.130859375" height="52.27199935913086" rx="10" ry="10" fill="#f0f4fc" stroke="#000000" stroke-width="1" stroke-dasharray=""/><text x="509.8876953125" y="73.45200080871582" fill="#1f2329" font-family="sans-serif" font-size="14" text-anchor="middle"><tspan x="509.8876953125" dy="0">Model</tspan></text><rect x="479.04638671875" y="158.88800048828125" width="61.6826171875" height="52.27199935913086" rx="10" ry="10" fill="#f0f4fc" stroke="#000000" stroke-width="1" stroke-dasharray=""/><text x="509.8876953125" y="185.72400016784667" fill="#1f2329" font-family="sans-serif" font-size="14" text-anchor="middle"><tspan x="509.8876953125" dy="0">Tool</tspan></text></svg>