<svg xmlns="http://www.w3.org/2000/svg" viewBox="-50 -50 1253.0244140625 384.8160057067871" width="1253.0244140625" height="384.8160057067871"><rect x="-50" y="-50" width="1253.0244140625" height="384.8160057067871" fill="#ffffff"/><defs><marker id="arrow_triangle_arrow_000000" markerWidth="10" markerHeight="16" refX="9" refY="8" orient="auto" markerUnits="userSpaceOnUse"><polygon points="0 4, 10 8, 0 12" fill="#000000"/></marker><marker id="arrowhead_default" markerWidth="10" markerHeight="16" refX="9" refY="8" orient="auto" markerUnits="userSpaceOnUse"><polygon points="0 4, 10 8, 0 12" fill="#666666"/></marker></defs><path d="M 100 146.40800285339355 L 161.00000005215406 146.40800285339355" fill="none" stroke="#000000" stroke-width="1" stroke-dasharray="" stroke-linejoin="round" data-connector-id="c1:1" marker-end="url(#arrow_triangle_arrow_000000)"/><path d="M 280 146.40800285339355 L 340.9999999845477 146.4080047607422" fill="none" stroke="#000000" stroke-width="1" stroke-dasharray="" stroke-linejoin="round" data-connector-id="c1:2" marker-end="url(#arrow_triangle_arrow_000000)"/><path d="M 448.92800370883197 119.25600478797423 L 448.92800370883197 105.06900024414062 L 468.0890083312988 105.06900024414062 L 468.0890083312988 48.323001861572266 L 558.1320114135742 48.323001861572266 L 558.1320114135742 34.13600158691406 L 630.8840026855469 34.13600158691406 L 644.2810000248628 34.13599967956543" fill="none" stroke="#000000" stroke-width="1" stroke-dasharray="" stroke-linejoin="round" data-connector-id="c1:3" marker-end="url(#arrow_triangle_arrow_000000)"/><rect x="479.25731022111296" y="36.323001861572266" width="61.120000000000005" height="24" fill="#ffffff" fill-opacity="0" rx="4" ry="4"/><text x="509.81731022111296" y="50.12300186157226" fill="#1f2329" font-family="sans-serif" font-size="12" text-anchor="middle" data-connector-id="c1:3" data-role="caption"><tspan x="509.81731022111296" dy="0">&lt; 60 分钟</tspan></text><path d="M 460.90700015600305 164.4190025630669 L 460.90700015600305 170.77300643920898 L 478.07201385498047 170.77300643920898 L 478.07201385498047 196.19000625610352 L 561.6880111694336 196.19000625610352 L 561.6880111694336 202.54400634765625 L 638.6820068359375 202.54400634765625 L 653.6400000080466 202.54400444030762" fill="none" stroke="#000000" stroke-width="1" stroke-dasharray="" stroke-linejoin="round" data-connector-id="c1:4" marker-end="url(#arrow_triangle_arrow_000000)"/><rect x="511.11927598786696" y="184.19000625610352" width="61.120000000000005" height="24" fill="#ffffff" fill-opacity="0" rx="4" ry="4"/><text x="541.679275987867" y="197.99000625610353" fill="#1f2329" font-family="sans-serif" font-size="12" text-anchor="middle" data-connector-id="c1:4" data-role="caption"><tspan x="541.679275987867" dy="0">≥ 60 分钟</tspan></text><path d="M 753.9980006803526 34.13599967956543 L 814.9979999884963 34.13599967956543" fill="none" stroke="#000000" stroke-width="1" stroke-dasharray="" stroke-linejoin="round" data-connector-id="c1:5" marker-end="url(#arrow_triangle_arrow_000000)"/><path d="M 738.380998134613 176.4080047607422 L 738.380998134613 171.4080047607422 L 745.9839816093445 171.4080047607422 L 745.9839816093445 151.4080047607422 L 782.7289810180664 151.4080047607422 L 782.7289810180664 146.40800285339355 L 821.9979999978095 146.40800285339355" fill="none" stroke="#000000" stroke-width="1" stroke-dasharray="" stroke-linejoin="round" data-connector-id="c1:6" marker-end="url(#arrow_triangle_arrow_000000)"/><path d="M 738.380998134613 228.68000411987305 L 738.380998134613 233.67999267578125 L 745.9839816093445 233.67999267578125 L 745.9839816093445 253.67999267578125 L 782.9809799194336 253.67999267578125 L 782.9809799194336 258.6800060272217 L 823.5119999831641 258.6800060272217" fill="none" stroke="#000000" stroke-width="1" stroke-dasharray="" stroke-linejoin="round" data-connector-id="c1:7" marker-end="url(#arrow_triangle_arrow_000000)"/><path d="M 933.9979968070984 34.13599967956543 L 994.9979999933448 34.13599967956543" fill="none" stroke="#000000" stroke-width="1" stroke-dasharray="" stroke-linejoin="round" data-connector-id="c1:8" marker-end="url(#arrow_triangle_arrow_000000)"/><path d="M 926.9980026483536 146.40800285339355 L 933.1649856567383 146.4080047607422 L 967.7339859008789 146.4080047607422 L 967.7339859008789 151.48400497436523 L 1023.4139999098334 151.48400497436523 L 1023.4139999098334 176.86400476579092" fill="none" stroke="#000000" stroke-width="1" stroke-dasharray="" stroke-linejoin="round" data-connector-id="c1:9" marker-end="url(#arrow_triangle_arrow_000000)"/><path d="M 925.48388671875 258.6800060272217 L 931.9030089378357 258.67999839782715 L 967.4820098876953 258.67999839782715 L 967.4820098876953 253.6039981842041 L 1023.4139999098334 253.6039981842041 L 1023.4139999098334 228.22400323854663" fill="none" stroke="#000000" stroke-width="1" stroke-dasharray="" stroke-linejoin="round" data-connector-id="c1:10" marker-end="url(#arrow_triangle_arrow_000000)"/><rect x="8" y="120.27200317382812" width="92" height="52.27199935913086" rx="10" ry="10" fill="#f0f4fc" stroke="#000000" stroke-width="1" stroke-dasharray=""/><text x="54" y="147.10800285339354" fill="#1f2329" font-family="sans-serif" font-size="14" text-anchor="middle"><tspan x="54" dy="0">消息历史</tspan></text><rect x="160" y="120.27200317382812" width="120" height="52.27199935913086" rx="10" ry="10" fill="#f0f4fc" stroke="#000000" stroke-width="1" stroke-dasharray=""/><text x="220" y="147.10800285339354" fill="#1f2329" font-family="sans-serif" font-size="14" text-anchor="middle"><tspan x="220" dy="0">候选池识别器</tspan></text><polygon points="412.2548828125,91.27200317382812 484.509765625,146.4080047607422 412.2548828125,201.54400634765625 340,146.4080047607422" fill="#fef1ce" stroke="#000000" stroke-width="1" stroke-dasharray=""/><text x="412.2548828125" y="147.10800476074218" fill="#1f2329" font-family="sans-serif" font-size="14" text-anchor="middle"><tspan x="412.2548828125" dy="0">idle 时长</tspan></text><rect x="643.28125" y="8" width="110.716796875" height="52.27199935913086" rx="10" ry="10" fill="#f0f4fc" stroke="#000000" stroke-width="1" stroke-dasharray=""/><text x="698.6396484375" y="34.83599967956543" fill="#1f2329" font-family="sans-serif" font-size="14" text-anchor="middle"><tspan x="698.6396484375" dy="0">cache_edits</tspan></text><rect x="652.6396484375" y="176.4080047607422" width="92" height="52.27199935913086" rx="10" ry="10" fill="#f0f4fc" stroke="#000000" stroke-width="1" stroke-dasharray=""/><text x="698.6396484375" y="203.2440044403076" fill="#1f2329" font-family="sans-serif" font-size="14" text-anchor="middle"><tspan x="698.6396484375" dy="0">本地改写</tspan></text><rect x="813.998046875" y="8" width="120" height="52.27199935913086" rx="10" ry="10" fill="#f0f4fc" stroke="#000000" stroke-width="1" stroke-dasharray=""/><text x="873.998046875" y="34.83599967956543" fill="#1f2329" font-family="sans-serif" font-size="14" text-anchor="middle"><tspan x="873.998046875" dy="0">服务器端擦除</tspan></text><rect x="820.998046875" y="120.27200317382812" width="106" height="52.27199935913086" rx="10" ry="10" fill="#f0f4fc" stroke="#000000" stroke-width="1" stroke-dasharray=""/><text x="873.998046875" y="147.10800285339354" fill="#1f2329" font-family="sans-serif" font-size="14" text-anchor="middle"><tspan x="873.998046875" dy="0">替换占位符</tspan></text><rect x="822.51220703125" y="232.54400634765625" width="102.9716796875" height="52.27199935913086" rx="10" ry="10" fill="#f0f4fc" stroke="#000000" stroke-width="1" stroke-dasharray=""/><text x="873.998046875" y="259.38000602722167" fill="#1f2329" font-family="sans-serif" font-size="14" text-anchor="middle"><tspan x="873.998046875" dy="0">丢 thinking</tspan></text><rect x="993.998046875" y="8" width="159.0263671875" height="52.27199935913086" rx="10" ry="10" fill="#f0f4fc" stroke="#000000" stroke-width="1" stroke-dasharray=""/><text x="1073.51123046875" y="34.83599967956543" fill="#1f2329" font-family="sans-serif" font-size="14" text-anchor="middle"><tspan x="1073.51123046875" dy="0">Prompt Cache 保留</tspan></text><rect x="1018.91845703125" y="176.4080047607422" width="109.185546875" height="52.27199935913086" rx="10" ry="10" fill="#f0f4fc" stroke="#000000" stroke-width="1" stroke-dasharray=""/><text x="1073.51123046875" y="203.2440044403076" fill="#1f2329" font-family="sans-serif" font-size="14" text-anchor="middle"><tspan x="1073.51123046875" dy="0">Cache 重建</tspan></text></svg>