<svg xmlns="http://www.w3.org/2000/svg" viewBox="-50 -50 937.0244140625 497.08800888061523" width="937.0244140625" height="497.08800888061523"><rect x="-50" y="-50" width="937.0244140625" height="497.08800888061523" fill="#ffffff"/><defs><marker id="arrow_triangle_arrow_000000" markerWidth="10" markerHeight="16" refX="9" refY="8" orient="auto" markerUnits="userSpaceOnUse"><polygon points="0 4, 10 8, 0 12" fill="#000000"/></marker><marker id="arrowhead_default" markerWidth="10" markerHeight="16" refX="9" refY="8" orient="auto" markerUnits="userSpaceOnUse"><polygon points="0 4, 10 8, 0 12" fill="#666666"/></marker></defs><path d="M 466.50537109375 39.79499934315572 L 466.50537109375 48.207998275756836 L 419.3730010986328 48.207998275756836 L 419.3730010986328 87.02599716186523 L 230.84399795532227 87.02599716186523 L 230.84399795532227 121.27200317465108 L 183.71099894374493 121.27200317465108" fill="none" stroke="#000000" stroke-width="1" stroke-dasharray="" stroke-linejoin="round" data-connector-id="c1:1" marker-end="url(#arrow_triangle_arrow_000000)"/><path d="M 498.2080002540024 60.27199935913086 L 498.20800136809703 121.27200317465108" fill="none" stroke="#000000" stroke-width="1" stroke-dasharray="" stroke-linejoin="round" data-connector-id="c1:2" marker-end="url(#arrow_triangle_arrow_000000)"/><path d="M 529.91064453125 42.21399930396137 L 529.91064453125 50.22400093078613 L 561.3440113067627 50.22400093078613 L 561.3440113067627 87.42900085449219 L 687.0790100097656 87.42900085449219 L 687.0790100097656 121.27200317465108 L 718.5120007361111 121.27200317465108" fill="none" stroke="#000000" stroke-width="1" stroke-dasharray="" stroke-linejoin="round" data-connector-id="c1:3" marker-end="url(#arrow_triangle_arrow_000000)"/><path d="M 134.32421875 166.13900314935836 L 134.32421875 172.20600748062134 L 119.13700485229492 172.20600748062134 L 119.13700485229492 201.64300918579102 L 58.387001037597656 201.64300918579102 L 58.387001037597656 233.5440063484792 L 43.199000554159284 233.5440063484792" fill="none" stroke="#000000" stroke-width="1" stroke-dasharray="" stroke-linejoin="round" data-connector-id="c1:4" marker-end="url(#arrow_triangle_arrow_000000)"/><path d="M 183.71099894374493 172.54400253295898 L 183.7109990446479 233.5440063484792" fill="none" stroke="#000000" stroke-width="1" stroke-dasharray="" stroke-linejoin="round" data-connector-id="c1:5" marker-end="url(#arrow_triangle_arrow_000000)"/><path d="M 233.0986328125 163.48900237313228 L 233.0986328125 169.99899864196777 L 251.91799926757812 169.99899864196777 L 251.91799926757812 201.20199966430664 L 327.1969985961914 201.20199966430664 L 327.1969985961914 233.5440063484792 L 346.0170024083927 233.5440063484792" fill="none" stroke="#000000" stroke-width="1" stroke-dasharray="" stroke-linejoin="round" data-connector-id="c1:6" marker-end="url(#arrow_triangle_arrow_000000)"/><path d="M 289.0244140625 283.66000462041984 L 289.0244140625 288.8530035018921 L 277.177001953125 288.8530035018921 L 277.177001953125 314.790002822876 L 229.78900146484375 314.790002822876 L 229.78900146484375 345.8160095223073 L 217.9420008956222 345.8160095223073" fill="none" stroke="#000000" stroke-width="1" stroke-dasharray="" stroke-linejoin="round" data-connector-id="c1:7" marker-end="url(#arrow_triangle_arrow_000000)"/><path d="M 346.0170024083927 284.8160057067871 L 346.01700121792965 345.8160095223073" fill="none" stroke="#000000" stroke-width="1" stroke-dasharray="" stroke-linejoin="round" data-connector-id="c1:8" marker-end="url(#arrow_triangle_arrow_000000)"/><path d="M 403.0087890625 283.43500455451385 L 403.0087890625 288.66499757766724 L 415.0500030517578 288.66499757766724 L 415.0500030517578 314.75199699401855 L 463.21500396728516 314.75199699401855 L 463.21500396728516 345.8160095223073 L 475.2560007898137 345.8160095223073" fill="none" stroke="#000000" stroke-width="1" stroke-dasharray="" stroke-linejoin="round" data-connector-id="c1:9" marker-end="url(#arrow_triangle_arrow_000000)"/><path d="M 498.20800136809703 172.54400253295898 L 498.2079994203523 233.5440063484792" fill="none" stroke="#000000" stroke-width="1" stroke-dasharray="" stroke-linejoin="round" data-connector-id="c1:10" marker-end="url(#arrow_triangle_arrow_000000)"/><path d="M 685.8880006032559 172.54400253295898 L 685.8880006032559 177.54400634765625 L 679.6469783782959 177.54400634765625 L 679.6469783782959 202.71100616455078 L 654.6819791793823 202.71100616455078 L 654.6819791793823 233.5440063484792 L 648.4410011122236 233.5440063484792" fill="none" stroke="#000000" stroke-width="1" stroke-dasharray="" stroke-linejoin="round" data-connector-id="c1:11" marker-end="url(#arrow_triangle_arrow_000000)"/><path d="M 751.1370028225356 172.54400253295898 L 751.1370028225356 177.54400634765625 L 757.3780241012573 177.54400634765625 L 757.3780241012573 202.71100616455078 L 782.3430233001709 202.71100616455078 L 782.3430233001709 233.5440063484792 L 788.5840016986476 233.5440063484792" fill="none" stroke="#000000" stroke-width="1" stroke-dasharray="" stroke-linejoin="round" data-connector-id="c1:12" marker-end="url(#arrow_triangle_arrow_000000)"/><rect x="466.50537109375" y="8" width="63.4052734375" height="52.27199935913086" rx="10" ry="10" fill="#f0f4fc" stroke="#000000" stroke-width="1" stroke-dasharray=""/><text x="498.2080078125" y="34.83599967956543" fill="#1f2329" font-family="sans-serif" font-size="14" text-anchor="middle"><tspan x="498.2080078125" dy="0">/mnt</tspan></text><rect x="134.32421875" y="120.27200317382812" width="98.7744140625" height="52.27199935913086" rx="10" ry="10" fill="#f0f4fc" stroke="#000000" stroke-width="1" stroke-dasharray=""/><text x="183.71142578125" y="147.10800285339354" fill="#1f2329" font-family="sans-serif" font-size="14" text-anchor="middle"><tspan x="183.71142578125" dy="0">/mnt/user/</tspan></text><rect x="444.1484375" y="120.27200317382812" width="108.119140625" height="52.27199935913086" rx="10" ry="10" fill="#f0f4fc" stroke="#000000" stroke-width="1" stroke-dasharray=""/><text x="498.2080078125" y="147.10800285339354" fill="#1f2329" font-family="sans-serif" font-size="14" text-anchor="middle"><tspan x="498.2080078125" dy="0">/mnt/public/</tspan></text><rect x="659.008056640625" y="120.27200317382812" width="119.0087890625" height="52.27199935913086" rx="10" ry="10" fill="#f0f4fc" stroke="#000000" stroke-width="1" stroke-dasharray=""/><text x="718.512451171875" y="147.10800285339354" fill="#1f2329" font-family="sans-serif" font-size="14" text-anchor="middle"><tspan x="718.512451171875" dy="0">/mnt/session/</tspan></text><rect x="8" y="232.54400634765625" width="70.3984375" height="52.27199935913086" rx="10" ry="10" fill="#f0f4fc" stroke="#000000" stroke-width="1" stroke-dasharray=""/><text x="43.19921875" y="259.38000602722167" fill="#1f2329" font-family="sans-serif" font-size="14" text-anchor="middle"><tspan x="43.19921875" dy="0">skills/</tspan></text><rect x="138.3984375" y="232.54400634765625" width="90.6259765625" height="52.27199935913086" rx="10" ry="10" fill="#f0f4fc" stroke="#000000" stroke-width="1" stroke-dasharray=""/><text x="183.71142578125" y="259.38000602722167" fill="#1f2329" font-family="sans-serif" font-size="14" text-anchor="middle"><tspan x="183.71142578125" dy="0">memory/</tspan></text><rect x="289.0244140625" y="232.54400634765625" width="113.984375" height="52.27199935913086" rx="10" ry="10" fill="#f0f4fc" stroke="#000000" stroke-width="1" stroke-dasharray=""/><text x="346.0166015625" y="259.38000602722167" fill="#1f2329" font-family="sans-serif" font-size="14" text-anchor="middle"><tspan x="346.0166015625" dy="0">workspaces/</tspan></text><rect x="182.736328125" y="344.8160095214844" width="70.412109375" height="52.27199935913086" rx="10" ry="10" fill="#f0f4fc" stroke="#000000" stroke-width="1" stroke-dasharray=""/><text x="217.9423828125" y="371.6520092010498" fill="#1f2329" font-family="sans-serif" font-size="14" text-anchor="middle"><tspan x="217.9423828125" dy="0">drive/</tspan></text><rect x="313.1484375" y="344.8160095214844" width="65.736328125" height="52.27199935913086" rx="10" ry="10" fill="#f0f4fc" stroke="#000000" stroke-width="1" stroke-dasharray=""/><text x="346.0166015625" y="371.6520092010498" fill="#1f2329" font-family="sans-serif" font-size="14" text-anchor="middle"><tspan x="346.0166015625" dy="0">mail/</tspan></text><rect x="438.884765625" y="344.8160095214844" width="72.7431640625" height="52.27199935913086" rx="10" ry="10" fill="#f0f4fc" stroke="#000000" stroke-width="1" stroke-dasharray=""/><text x="475.25634765625" y="371.6520092010498" fill="#1f2329" font-family="sans-serif" font-size="14" text-anchor="middle"><tspan x="475.25634765625" dy="0">tasks/</tspan></text><rect x="463.0087890625" y="232.54400634765625" width="70.3984375" height="52.27199935913086" rx="10" ry="10" fill="#f0f4fc" stroke="#000000" stroke-width="1" stroke-dasharray=""/><text x="498.2080078125" y="259.38000602722167" fill="#1f2329" font-family="sans-serif" font-size="14" text-anchor="middle"><tspan x="498.2080078125" dy="0">skills/</tspan></text><rect x="616.73828125" y="232.54400634765625" width="63.4052734375" height="52.27199935913086" rx="10" ry="10" fill="#f0f4fc" stroke="#000000" stroke-width="1" stroke-dasharray=""/><text x="648.44091796875" y="259.38000602722167" fill="#1f2329" font-family="sans-serif" font-size="14" text-anchor="middle"><tspan x="648.44091796875" dy="0">tmp/</tspan></text><rect x="740.1435546875" y="232.54400634765625" width="96.880859375" height="52.27199935913086" rx="10" ry="10" fill="#f0f4fc" stroke="#000000" stroke-width="1" stroke-dasharray=""/><text x="788.583984375" y="259.38000602722167" fill="#1f2329" font-family="sans-serif" font-size="14" text-anchor="middle"><tspan x="788.583984375" dy="0">clipboard/</tspan></text></svg>