<svg xmlns="http://www.w3.org/2000/svg" viewBox="-50 -30 680.5966796875 1311.83203125" width="680.5966796875" height="1311.83203125"><rect x="-50" y="-30" width="680.5966796875" height="1311.83203125" fill="#ffffff"/><defs><marker id="arrow_triangle_arrow_000000" markerWidth="10" markerHeight="16" refX="9" refY="8" orient="auto" markerUnits="userSpaceOnUse"><polygon points="0 4, 10 8, 0 12" fill="#000000"/></marker><marker id="arrowhead_default" markerWidth="10" markerHeight="16" refX="9" refY="8" orient="auto" markerUnits="userSpaceOnUse"><polygon points="0 4, 10 8, 0 12" fill="#666666"/></marker></defs><path d="M 30 95 L 535.5966796875 95 L 550.5966796875 110 L 550.5966796875 135.27199935913086 L 30 135.27199935913086 Z" fill="#fef1ce" stroke="#000000" stroke-width="1" stroke-dasharray=""/><path d="M 535.5966796875 95 L 535.5966796875 110 L 550.5966796875 110" fill="none" stroke="#000000" stroke-width="1"/><text x="290.29833984375" y="115.83599967956543" fill="#1f2329" font-family="sans-serif" font-size="14" text-anchor="middle"><tspan x="290.29833984375" dy="0">Turn 3 机制 A</tspan></text><path d="M 60 207.44000244140625 L 283.6103515625 207.44000244140625" fill="none" stroke="#000000" stroke-width="1" stroke-dasharray="" stroke-linejoin="round" data-connector-id="c1:1" marker-end="url(#arrow_triangle_arrow_000000)"/><rect x="154.80517578125" y="195.44000244140625" width="34" height="24" fill="#ffffff" fill-opacity="0" rx="4" ry="4"/><text x="171.80517578125" y="209.24000244140626" fill="#1f2329" font-family="sans-serif" font-size="12" text-anchor="middle" data-connector-id="c1:1" data-role="caption"><tspan x="171.80517578125" dy="0">bash</tspan></text><path d="M 283.6103515625 279.6080017089844 L 520.5966796875 279.6080017089844" fill="none" stroke="#000000" stroke-width="1" stroke-dasharray="" stroke-linejoin="round" data-connector-id="c1:2" marker-end="url(#arrow_triangle_arrow_000000)"/><rect x="352.223515625" y="267.6080017089844" width="99.76" height="24" fill="#ffffff" fill-opacity="0" rx="4" ry="4"/><text x="402.103515625" y="281.4080017089844" fill="#1f2329" font-family="sans-serif" font-size="12" text-anchor="middle" data-connector-id="c1:2" data-role="caption"><tspan x="402.103515625" dy="0">写入 abc123.log</tspan></text><path d="M 520.5966796875 351.7760009765625 L 283.6103515625 351.7760009765625" fill="none" stroke="#000000" stroke-width="1" stroke-dasharray="4, 4" stroke-linejoin="round" data-connector-id="c1:3" marker-end="url(#arrow_triangle_arrow_000000)"/><rect x="370.703515625" y="339.7760009765625" width="62.800000000000004" height="24" fill="#ffffff" fill-opacity="0" rx="4" ry="4"/><text x="402.103515625" y="353.5760009765625" fill="#1f2329" font-family="sans-serif" font-size="12" text-anchor="middle" data-connector-id="c1:3" data-role="caption"><tspan x="402.103515625" dy="0">保存成功</tspan></text><path d="M 283.6103515625 423.9440002441406 L 60 423.9440002441406" fill="none" stroke="#000000" stroke-width="1" stroke-dasharray="4, 4" stroke-linejoin="round" data-connector-id="c1:4" marker-end="url(#arrow_triangle_arrow_000000)"/><rect x="127.20517578125" y="411.9440002441406" width="89.2" height="24" fill="#ffffff" fill-opacity="0" rx="4" ry="4"/><text x="171.80517578125" y="425.74400024414064" fill="#1f2329" font-family="sans-serif" font-size="12" text-anchor="middle" data-connector-id="c1:4" data-role="caption"><tspan x="171.80517578125" dy="0">返回路径引用</tspan></text><path d="M 30 438.9440002441406 L 535.5966796875 438.9440002441406 L 550.5966796875 453.9440002441406 L 550.5966796875 479.2159996032715 L 30 479.2159996032715 Z" fill="#fef1ce" stroke="#000000" stroke-width="1" stroke-dasharray=""/><path d="M 535.5966796875 438.9440002441406 L 535.5966796875 453.9440002441406 L 550.5966796875 453.9440002441406" fill="none" stroke="#000000" stroke-width="1"/><text x="290.29833984375" y="459.77999992370604" fill="#1f2329" font-family="sans-serif" font-size="14" text-anchor="middle"><tspan x="290.29833984375" dy="0">Turn 4 正常消费</tspan></text><path d="M 60 551.3839721679688 L 283.6103515625 551.3839721679688" fill="none" stroke="#000000" stroke-width="1" stroke-dasharray="" stroke-linejoin="round" data-connector-id="c1:5" marker-end="url(#arrow_triangle_arrow_000000)"/><rect x="139.80517578125" y="539.3839721679688" width="64" height="24" fill="#ffffff" fill-opacity="0" rx="4" ry="4"/><text x="171.80517578125" y="553.1839721679687" fill="#1f2329" font-family="sans-serif" font-size="12" text-anchor="middle" data-connector-id="c1:5" data-role="caption"><tspan x="171.80517578125" dy="0">read_file</tspan></text><path d="M 283.6103515625 623.552001953125 L 520.5966796875 623.552001953125" fill="none" stroke="#000000" stroke-width="1" stroke-dasharray="" stroke-linejoin="round" data-connector-id="c1:6" marker-end="url(#arrow_triangle_arrow_000000)"/><rect x="383.903515625" y="611.552001953125" width="36.400000000000006" height="24" fill="#ffffff" fill-opacity="0" rx="4" ry="4"/><text x="402.103515625" y="625.352001953125" fill="#1f2329" font-family="sans-serif" font-size="12" text-anchor="middle" data-connector-id="c1:6" data-role="caption"><tspan x="402.103515625" dy="0">读取</tspan></text><path d="M 520.5966796875 695.719970703125 L 283.6103515625 695.719970703125" fill="none" stroke="#000000" stroke-width="1" stroke-dasharray="4, 4" stroke-linejoin="round" data-connector-id="c1:7" marker-end="url(#arrow_triangle_arrow_000000)"/><rect x="370.703515625" y="683.719970703125" width="62.800000000000004" height="24" fill="#ffffff" fill-opacity="0" rx="4" ry="4"/><text x="402.103515625" y="697.519970703125" fill="#1f2329" font-family="sans-serif" font-size="12" text-anchor="middle" data-connector-id="c1:7" data-role="caption"><tspan x="402.103515625" dy="0">完整内容</tspan></text><path d="M 283.6103515625 767.8880004882812 L 60 767.8880004882812" fill="none" stroke="#000000" stroke-width="1" stroke-dasharray="4, 4" stroke-linejoin="round" data-connector-id="c1:8" marker-end="url(#arrow_triangle_arrow_000000)"/><rect x="128.52517578125" y="755.8880004882812" width="86.56" height="24" fill="#ffffff" fill-opacity="0" rx="4" ry="4"/><text x="171.80517578125" y="769.6880004882812" fill="#1f2329" font-family="sans-serif" font-size="12" text-anchor="middle" data-connector-id="c1:8" data-role="caption"><tspan x="171.80517578125" dy="0">返回 1k Token</tspan></text><path d="M 30 782.8880004882812 L 535.5966796875 782.8880004882812 L 550.5966796875 797.8880004882812 L 550.5966796875 823.1599998474121 L 30 823.1599998474121 Z" fill="#fef1ce" stroke="#000000" stroke-width="1" stroke-dasharray=""/><path d="M 535.5966796875 782.8880004882812 L 535.5966796875 797.8880004882812 L 550.5966796875 797.8880004882812" fill="none" stroke="#000000" stroke-width="1"/><text x="290.29833984375" y="803.7240001678467" fill="#1f2329" font-family="sans-serif" font-size="14" text-anchor="middle"><tspan x="290.29833984375" dy="0">Turn N 机制 B</tspan></text><path d="M 60 895.3280029296875 L 283.6103515625 895.3280029296875" fill="none" stroke="#000000" stroke-width="1" stroke-dasharray="" stroke-linejoin="round" data-connector-id="c1:9" marker-end="url(#arrow_triangle_arrow_000000)"/><rect x="140.40517578125" y="883.3280029296875" width="62.800000000000004" height="24" fill="#ffffff" fill-opacity="0" rx="4" ry="4"/><text x="171.80517578125" y="897.1280029296875" fill="#1f2329" font-family="sans-serif" font-size="12" text-anchor="middle" data-connector-id="c1:9" data-role="caption"><tspan x="171.80517578125" dy="0">继续对话</tspan></text><path d="M 283.6103515625 947.4959716796875 L 343.6103515625 947.4959716796875 L 343.6103515625 1007.4959716796875 L 283.6103515625 1007.4959716796875" fill="none" stroke="#000000" stroke-width="1" stroke-dasharray="" stroke-linejoin="round" data-connector-id="c1:10" marker-end="url(#arrow_triangle_arrow_000000)"/><rect x="290.7303515625" y="965.4959716796875" width="105.76" height="24" fill="#ffffff" fill-opacity="0" rx="4" ry="4"/><text x="343.6103515625" y="979.2959716796875" fill="#1f2329" font-family="sans-serif" font-size="12" text-anchor="middle" data-connector-id="c1:10" data-role="caption"><tspan x="343.6103515625" dy="0">触发 compression</tspan></text><path d="M 283.6103515625 1079.6639404296875 L 343.6103515625 1079.6639404296875 L 343.6103515625 1139.6639404296875 L 283.6103515625 1139.6639404296875" fill="none" stroke="#000000" stroke-width="1" stroke-dasharray="" stroke-linejoin="round" data-connector-id="c1:11" marker-end="url(#arrow_triangle_arrow_000000)"/><rect x="291.4503515625" y="1097.6639404296875" width="104.32000000000001" height="24" fill="#ffffff" fill-opacity="0" rx="4" ry="4"/><text x="343.6103515625" y="1111.4639404296875" fill="#1f2329" font-family="sans-serif" font-size="12" text-anchor="middle" data-connector-id="c1:11" data-role="caption"><tspan x="343.6103515625" dy="0">改写 Turn 4 记录</tspan></text><path d="M 283.6103515625 1231.83203125 L 60 1231.83203125" fill="none" stroke="#000000" stroke-width="1" stroke-dasharray="4, 4" stroke-linejoin="round" data-connector-id="c1:12" marker-end="url(#arrow_triangle_arrow_000000)"/><rect x="133.80517578125" y="1219.83203125" width="76" height="24" fill="#ffffff" fill-opacity="0" rx="4" ry="4"/><text x="171.80517578125" y="1233.63203125" fill="#1f2329" font-family="sans-serif" font-size="12" text-anchor="middle" data-connector-id="c1:12" data-role="caption"><tspan x="171.80517578125" dy="0">历史已回收</tspan></text></svg>