<svg xmlns="http://www.w3.org/2000/svg" viewBox="6.30078125 -6.5 1993.44140625 1067.9800415039062" width="1993.44140625" height="1067.9800415039062"><rect x="6.30078125" y="-6.5" width="1993.44140625" height="1067.9800415039062" fill="#ffffff"/><defs><marker id="arrow_line_arrow_000000" markerWidth="10" markerHeight="16" refX="9" refY="8" orient="auto" markerUnits="userSpaceOnUse"><polygon points="0 4, 10 8, 0 12" fill="#000000"/></marker><marker id="arrowhead_default" markerWidth="10" markerHeight="16" refX="9" refY="8" orient="auto" markerUnits="userSpaceOnUse"><polygon points="0 4, 10 8, 0 12" fill="#666666"/></marker></defs><rect x="953.999267578125" y="471.240478515625" width="117.071044921875" height="96" fill="#eae2fe" stroke="#000000" stroke-width="1" stroke-dasharray=""/><rect x="466.6796875" y="176.6953125" width="120" height="80" rx="10" ry="10" fill="#f0f4fc" stroke="#000000" stroke-width="1" stroke-dasharray=""/><text x="526.6796875" y="217.3953125" fill="#1f2329" font-family="sans-serif" font-size="14" text-anchor="middle"><tspan x="526.6796875" dy="0">LiveRoomModel</tspan></text><rect x="76.94140625" y="405.5546875" width="181.63671875" height="80" rx="10" ry="10" fill="#f0f4fc" stroke="#000000" stroke-width="1" stroke-dasharray=""/><text x="167.759765625" y="446.2546875" fill="#1f2329" font-family="sans-serif" font-size="14" text-anchor="middle"><tspan x="167.759765625" dy="0">IESLiveUserModel</tspan></text><path d="M 526.6796875 256.6953125 L 526.6796875 331.125 L 167.759765625 331.125 L 167.759765625 405.5546875" fill="none" stroke="#000000" stroke-width="1" stroke-dasharray="" stroke-linejoin="round" data-connector-id="c1:56" marker-end="url(#arrow_line_arrow_000000)"/><rect x="344.71875" y="405.5546875" width="120" height="80" rx="10" ry="10" fill="#f0f4fc" stroke="#000000" stroke-width="1" stroke-dasharray=""/><text x="404.71875" y="446.2546875" fill="#1f2329" font-family="sans-serif" font-size="14" text-anchor="middle"><tspan x="404.71875" dy="0">IESLiveImage</tspan></text><path d="M 526.6796875 256.6953125 L 526.6796875 331.125 L 404.71875 331.125 L 404.71875 405.5546875" fill="none" stroke="#000000" stroke-width="1" stroke-dasharray="" stroke-linejoin="round" data-connector-id="c1:57" marker-end="url(#arrow_line_arrow_000000)"/><rect x="558.23046875" y="405.5546875" width="154.45703125" height="80" rx="10" ry="10" fill="#f0f4fc" stroke="#000000" stroke-width="1" stroke-dasharray=""/><text x="635.458984375" y="446.2546875" fill="#1f2329" font-family="sans-serif" font-size="14" text-anchor="middle"><tspan x="635.458984375" dy="0">IESLiveCommentBox</tspan></text><path d="M 526.6796875 256.6953125 L 526.6796875 331.125 L 635.458984375 331.125 L 635.458984375 405.5546875" fill="none" stroke="#000000" stroke-width="1" stroke-dasharray="" stroke-linejoin="round" data-connector-id="c1:58" marker-end="url(#arrow_line_arrow_000000)"/><rect x="56.30078125" y="605.5546875" width="222.91796875" height="80" rx="10" ry="10" fill="#f0f4fc" stroke="#000000" stroke-width="1" stroke-dasharray=""/><text x="167.759765625" y="646.2546875" fill="#1f2329" font-family="sans-serif" font-size="14" text-anchor="middle"><tspan x="167.759765625" dy="0">HTSLiveUserFansclubModel</tspan></text><path d="M 167.759765625 485.5546875 L 167.759765625 605.5546875" fill="none" stroke="#000000" stroke-width="1" stroke-dasharray="" stroke-linejoin="round" data-connector-id="c1:59" marker-end="url(#arrow_line_arrow_000000)"/><rect x="323.8359375" y="605.5546875" width="161.765625" height="80" rx="10" ry="10" fill="#f0f4fc" stroke="#000000" stroke-width="1" stroke-dasharray=""/><text x="404.71875" y="646.2546875" fill="#1f2329" font-family="sans-serif" font-size="14" text-anchor="middle"><tspan x="404.71875" dy="0">IESLiveImageContent</tspan></text><path d="M 404.71875 485.5546875 L 404.71875 605.5546875" fill="none" stroke="#000000" stroke-width="1" stroke-dasharray="" stroke-linejoin="round" data-connector-id="c1:60" marker-end="url(#arrow_line_arrow_000000)"/><rect x="558.23046875" y="605.5546875" width="154.45703125" height="80" rx="10" ry="10" fill="#f0f4fc" stroke="#000000" stroke-width="1" stroke-dasharray=""/><text x="635.458984375" y="646.2546875" fill="#1f2329" font-family="sans-serif" font-size="14" text-anchor="middle"><tspan x="635.458984375" dy="0">IESLiveImage</tspan></text><path d="M 635.458984375 485.5546875 L 635.458984375 605.5546875" fill="none" stroke="#000000" stroke-width="1" stroke-dasharray="" stroke-linejoin="round" data-connector-id="c1:61" marker-end="url(#arrow_line_arrow_000000)"/><rect x="814.97265625" y="405.5546875" width="120" height="80" rx="10" ry="10" fill="#f0f4fc" stroke="#000000" stroke-width="1" stroke-dasharray=""/><text x="874.97265625" y="446.2546875" fill="#1f2329" font-family="sans-serif" font-size="14" text-anchor="middle"><tspan x="874.97265625" dy="0">......</tspan></text><path d="M 526.6796875 256.6953125 L 526.6796875 331.125 L 874.97265625 331.125 L 874.97265625 405.5546875" fill="none" stroke="#000000" stroke-width="1" stroke-dasharray="" stroke-linejoin="round" data-connector-id="c1:62" marker-end="url(#arrow_line_arrow_000000)"/><rect x="814.97265625" y="605.5546875" width="120" height="80" rx="10" ry="10" fill="#f0f4fc" stroke="#000000" stroke-width="1" stroke-dasharray=""/><text x="874.97265625" y="646.2546875" fill="#1f2329" font-family="sans-serif" font-size="14" text-anchor="middle"><tspan x="874.97265625" dy="0">.....</tspan></text><path d="M 874.97265625 485.5546875 L 874.97265625 605.5546875" fill="none" stroke="#000000" stroke-width="1" stroke-dasharray="" stroke-linejoin="round" data-connector-id="c1:63" marker-end="url(#arrow_line_arrow_000000)"/><rect x="1481.44921875" y="176.6953125" width="120" height="80" rx="10" ry="10" fill="#fef1ce" stroke="#000000" stroke-width="1" stroke-dasharray=""/><text x="1541.44921875" y="217.3953125" fill="#1f2329" font-family="sans-serif" font-size="14" text-anchor="middle"><tspan x="1541.44921875" dy="0">HTSLiveRoom</tspan></text><rect x="1091.7109375" y="405.5546875" width="181.63671875" height="80" rx="10" ry="10" fill="#fef1ce" stroke="#000000" stroke-width="1" stroke-dasharray=""/><text x="1182.529296875" y="446.2546875" fill="#1f2329" font-family="sans-serif" font-size="14" text-anchor="middle"><tspan x="1182.529296875" dy="0">HTSLiveUser</tspan></text><path d="M 1541.44921875 256.6953125 L 1541.44921875 331.125 L 1182.529296875 331.125 L 1182.529296875 405.5546875" fill="none" stroke="#000000" stroke-width="1" stroke-dasharray="" stroke-linejoin="round" data-connector-id="c1:64" marker-end="url(#arrow_line_arrow_000000)"/><rect x="1359.48828125" y="405.5546875" width="120" height="80" rx="10" ry="10" fill="#fef1ce" stroke="#000000" stroke-width="1" stroke-dasharray=""/><text x="1419.48828125" y="446.2546875" fill="#1f2329" font-family="sans-serif" font-size="14" text-anchor="middle"><tspan x="1419.48828125" dy="0">HTSLiveImage</tspan></text><path d="M 1541.44921875 256.6953125 L 1541.44921875 331.125 L 1419.48828125 331.125 L 1419.48828125 405.5546875" fill="none" stroke="#000000" stroke-width="1" stroke-dasharray="" stroke-linejoin="round" data-connector-id="c1:65" marker-end="url(#arrow_line_arrow_000000)"/><rect x="1573" y="405.5546875" width="154.45703125" height="80" rx="10" ry="10" fill="#fef1ce" stroke="#000000" stroke-width="1" stroke-dasharray=""/><text x="1650.228515625" y="446.2546875" fill="#1f2329" font-family="sans-serif" font-size="14" text-anchor="middle"><tspan x="1650.228515625" dy="0">HTSLiveCommentBox</tspan></text><path d="M 1541.44921875 256.6953125 L 1541.44921875 331.125 L 1650.228515625 331.125 L 1650.228515625 405.5546875" fill="none" stroke="#000000" stroke-width="1" stroke-dasharray="" stroke-linejoin="round" data-connector-id="c1:66" marker-end="url(#arrow_line_arrow_000000)"/><rect x="1071.0703125" y="605.5546875" width="222.91796875" height="80" rx="10" ry="10" fill="#fef1ce" stroke="#000000" stroke-width="1" stroke-dasharray=""/><text x="1182.529296875" y="646.2546875" fill="#1f2329" font-family="sans-serif" font-size="14" text-anchor="middle"><tspan x="1182.529296875" dy="0">HTSLiveUser_FansClub</tspan></text><path d="M 1182.529296875 485.5546875 L 1182.529296875 605.5546875" fill="none" stroke="#000000" stroke-width="1" stroke-dasharray="" stroke-linejoin="round" data-connector-id="c1:67" marker-end="url(#arrow_line_arrow_000000)"/><rect x="1333.6549072265625" y="605.5546875" width="171.666748046875" height="80" rx="10" ry="10" fill="#fef1ce" stroke="#000000" stroke-width="1" stroke-dasharray=""/><text x="1419.48828125" y="646.2546875" fill="#1f2329" font-family="sans-serif" font-size="14" text-anchor="middle"><tspan x="1419.48828125" dy="0">HTSLiveImage_Content</tspan></text><path d="M 1419.48828125 485.5546875 L 1419.48828125 605.5546875" fill="none" stroke="#000000" stroke-width="1" stroke-dasharray="" stroke-linejoin="round" data-connector-id="c1:68" marker-end="url(#arrow_line_arrow_000000)"/><rect x="1573" y="605.5546875" width="154.45703125" height="80" rx="10" ry="10" fill="#fef1ce" stroke="#000000" stroke-width="1" stroke-dasharray=""/><text x="1650.228515625" y="646.2546875" fill="#1f2329" font-family="sans-serif" font-size="14" text-anchor="middle"><tspan x="1650.228515625" dy="0">HTSLiveImage</tspan></text><path d="M 1650.228515625 485.5546875 L 1650.228515625 605.5546875" fill="none" stroke="#000000" stroke-width="1" stroke-dasharray="" stroke-linejoin="round" data-connector-id="c1:69" marker-end="url(#arrow_line_arrow_000000)"/><rect x="1829.7421875" y="405.5546875" width="120" height="80" rx="10" ry="10" fill="#fef1ce" stroke="#000000" stroke-width="1" stroke-dasharray=""/><text x="1889.7421875" y="446.2546875" fill="#1f2329" font-family="sans-serif" font-size="14" text-anchor="middle"><tspan x="1889.7421875" dy="0">......</tspan></text><path d="M 1541.44921875 256.6953125 L 1541.44921875 331.125 L 1889.7421875 331.125 L 1889.7421875 405.5546875" fill="none" stroke="#000000" stroke-width="1" stroke-dasharray="" stroke-linejoin="round" data-connector-id="c1:70" marker-end="url(#arrow_line_arrow_000000)"/><rect x="1829.7421875" y="605.5546875" width="120" height="80" rx="10" ry="10" fill="#fef1ce" stroke="#000000" stroke-width="1" stroke-dasharray=""/><text x="1889.7421875" y="646.2546875" fill="#1f2329" font-family="sans-serif" font-size="14" text-anchor="middle"><tspan x="1889.7421875" dy="0">.....</tspan></text><path d="M 1889.7421875 485.5546875 L 1889.7421875 605.5546875" fill="none" stroke="#000000" stroke-width="1" stroke-dasharray="" stroke-linejoin="round" data-connector-id="c1:71" marker-end="url(#arrow_line_arrow_000000)"/><path d="M 996.828125 1011.4800415039062 L 996.828125 43.5" fill="none" stroke="#000000" stroke-width="1" stroke-dasharray="8, 6" stroke-linejoin="round" data-connector-id="c1:72" marker-end="url(#arrowhead_default)"/><text x="492.9836730957031" y="83.3494873046875" fill="#1f2329" font-family="sans-serif" font-size="24" text-anchor="start" font-weight="bold"><tspan x="492.9836730957031" dy="0">Curren</tspan><tspan x="492.9836730957031" dy="33.599999999999994">t</tspan></text><text x="1507.753173828125" y="83.3494873046875" fill="#1f2329" font-family="sans-serif" font-size="24" text-anchor="start" font-weight="bold"><tspan x="1507.753173828125" dy="0">Targe</tspan><tspan x="1507.753173828125" dy="33.599999999999994">t</tspan></text></svg>