<svg xmlns="http://www.w3.org/2000/svg" viewBox="-50 -50 956.20703125 497.08800888061523" width="956.20703125" height="497.08800888061523"><rect x="-50" y="-50" width="956.20703125" height="497.08800888061523" fill="#ffffff"/><defs><marker id="arrow_triangle_arrow_000000" markerWidth="10" markerHeight="16" refX="9" refY="8" orient="auto" markerUnits="userSpaceOnUse"><polygon points="0 4, 10 8, 0 12" fill="#000000"/></marker><marker id="arrowhead_default" markerWidth="10" markerHeight="16" refX="9" refY="8" orient="auto" markerUnits="userSpaceOnUse"><polygon points="0 4, 10 8, 0 12" fill="#666666"/></marker></defs><path d="M 99.302734375 202.54400444030762 L 160.30299999119143 202.54400444030762" fill="none" stroke="#000000" stroke-width="1" stroke-dasharray="" stroke-linejoin="round" data-connector-id="c1:1" marker-end="url(#arrow_triangle_arrow_000000)"/><path d="M 258.32300020213006 202.54400444030762 L 447.1220000322264 202.54400444030762" fill="none" stroke="#000000" stroke-width="1" stroke-dasharray="" stroke-linejoin="round" data-connector-id="c1:2" marker-end="url(#arrow_triangle_arrow_000000)"/><rect x="300.20250011717826" y="190.54400444030762" width="105.03999999999999" height="24" fill="#ffffff" fill-opacity="0" rx="4" ry="4"/><text x="352.72250011717824" y="204.34400444030763" fill="#1f2329" font-family="sans-serif" font-size="12" text-anchor="middle" data-connector-id="c1:2" data-role="caption"><tspan x="352.72250011717824" dy="0">RPC / in-process</tspan></text><path d="M 506.9160019038245 176.4080047607422 L 506.9160019038245 152.6959991455078 L 524.563985824585 152.6959991455078 L 524.563985824585 57.84800148010254 L 610.333984375 57.84800148010254 L 610.333984375 34.13600158691406 L 688.6939849853516 34.13600158691406 L 703.8719999934551 34.13599967956543" fill="none" stroke="#000000" stroke-width="1" stroke-dasharray="" stroke-linejoin="round" data-connector-id="c1:3" marker-end="url(#arrow_triangle_arrow_000000)"/><rect x="509.1296532830339" y="45.84800148010254" width="89.2" height="24" fill="#ffffff" fill-opacity="0" rx="4" ry="4"/><text x="553.7296532830339" y="59.648001480102536" fill="#1f2329" font-family="sans-serif" font-size="12" text-anchor="middle" data-connector-id="c1:3" data-role="caption"><tspan x="553.7296532830339" dy="0">最长前缀派发</tspan></text><path d="M 528.8046875 184.02900493671962 L 528.8046875 177.7590045928955 L 542.8049926757812 177.7590045928955 L 542.8049926757812 152.6780047416687 L 616.1879959106445 152.6780047416687 L 616.1879959106445 146.4080047607422 L 699.7220001220703 146.4080047607422 L 717.1060000492907 146.40800285339355" fill="none" stroke="#000000" stroke-width="1" stroke-dasharray="" stroke-linejoin="round" data-connector-id="c1:4" marker-end="url(#arrow_triangle_arrow_000000)"/><path d="M 528.8046875 221.0590055017226 L 528.8046875 227.3290057182312 L 542.8049926757812 227.3290057182312 L 542.8049926757812 252.410005569458 L 616.7719955444336 252.410005569458 L 616.7719955444336 258.68000411987305 L 702.6389923095703 258.68000411987305 L 720.6060000234074 258.6800060272217" fill="none" stroke="#000000" stroke-width="1" stroke-dasharray="" stroke-linejoin="round" data-connector-id="c1:5" marker-end="url(#arrow_triangle_arrow_000000)"/><path d="M 506.9160019038245 228.68000411987305 L 506.9160019038245 252.39199256896973 L 524.563985824585 252.39199256896973 L 524.563985824585 347.239990234375 L 609.3229827880859 347.239990234375 L 609.3229827880859 370.9519958496094 L 683.6379852294922 370.9519958496094 L 697.8050000115727 370.9520092010498" fill="none" stroke="#000000" stroke-width="1" stroke-dasharray="" stroke-linejoin="round" data-connector-id="c1:6" marker-end="url(#arrow_triangle_arrow_000000)"/><rect x="8" y="176.4080047607422" width="91.302734375" height="52.27199935913086" rx="10" ry="10" fill="#f0f4fc" stroke="#000000" stroke-width="1" stroke-dasharray=""/><text x="53.6513671875" y="203.2440044403076" fill="#1f2329" font-family="sans-serif" font-size="14" text-anchor="middle"><tspan x="53.6513671875" dy="0">Agent 端</tspan></text><rect x="159.302734375" y="176.4080047607422" width="99.0205078125" height="52.27199935913086" rx="10" ry="10" fill="#f0f4fc" stroke="#000000" stroke-width="1" stroke-dasharray=""/><text x="208.81298828125" y="203.2440044403076" fill="#1f2329" font-family="sans-serif" font-size="14" text-anchor="middle"><tspan x="208.81298828125" dy="0">AFSClient</tspan></text><rect x="446.1220703125" y="176.4080047607422" width="82.6826171875" height="52.27199935913086" rx="10" ry="10" fill="#f0f4fc" stroke="#000000" stroke-width="1" stroke-dasharray=""/><text x="487.46337890625" y="203.2440044403076" fill="#1f2329" font-family="sans-serif" font-size="14" text-anchor="middle"><tspan x="487.46337890625" dy="0">Service</tspan></text><rect x="702.87158203125" y="8" width="147.2685546875" height="52.27199935913086" rx="10" ry="10" fill="#f0f4fc" stroke="#000000" stroke-width="1" stroke-dasharray=""/><text x="776.505859375" y="34.83599967956543" fill="#1f2329" font-family="sans-serif" font-size="14" text-anchor="middle"><tspan x="776.505859375" dy="0">LocalSkillProvider</tspan></text><rect x="716.10595703125" y="120.27200317382812" width="120.7998046875" height="52.27199935913086" rx="10" ry="10" fill="#f0f4fc" stroke="#000000" stroke-width="1" stroke-dasharray=""/><text x="776.505859375" y="147.10800285339354" fill="#1f2329" font-family="sans-serif" font-size="14" text-anchor="middle"><tspan x="776.505859375" dy="0">DriveProvider</tspan></text><rect x="719.60595703125" y="232.54400634765625" width="113.7998046875" height="52.27199935913086" rx="10" ry="10" fill="#f0f4fc" stroke="#000000" stroke-width="1" stroke-dasharray=""/><text x="776.505859375" y="259.38000602722167" fill="#1f2329" font-family="sans-serif" font-size="14" text-anchor="middle"><tspan x="776.505859375" dy="0">MailProvider</tspan></text><rect x="696.8046875" y="344.8160095214844" width="159.40234375" height="52.27199935913086" rx="10" ry="10" fill="#f0f4fc" stroke="#000000" stroke-width="1" stroke-dasharray=""/><text x="776.505859375" y="371.6520092010498" fill="#1f2329" font-family="sans-serif" font-size="14" text-anchor="middle"><tspan x="776.505859375" dy="0">TaskQueueProvider</tspan></text></svg>