<svg xmlns="http://www.w3.org/2000/svg" viewBox="-50 -50 477.8232421875 872.3839988708496" width="477.8232421875" height="872.3839988708496"><rect x="-50" y="-50" width="477.8232421875" height="872.3839988708496" fill="#ffffff"/><defs><marker id="arrow_triangle_arrow_000000" markerWidth="10" markerHeight="16" refX="9" refY="8" orient="auto" markerUnits="userSpaceOnUse"><polygon points="0 4, 10 8, 0 12" fill="#000000"/></marker><marker id="arrowhead_default" markerWidth="10" markerHeight="16" refX="9" refY="8" orient="auto" markerUnits="userSpaceOnUse"><polygon points="0 4, 10 8, 0 12" fill="#666666"/></marker></defs><path d="M 166.78099928423762 60.27199935913086 L 166.78099845256656 121.27200317465108" fill="none" stroke="#000000" stroke-width="1" stroke-dasharray="" stroke-linejoin="round" data-connector-id="c1:1" marker-end="url(#arrow_triangle_arrow_000000)"/><path d="M 166.78099845256656 172.54400253295898 L 166.78099561459385 233.54400639288895" fill="none" stroke="#000000" stroke-width="1" stroke-dasharray="" stroke-linejoin="round" data-connector-id="c1:2" marker-end="url(#arrow_triangle_arrow_000000)"/><path d="M 127.36000063671963 315.12200961704 L 127.36000063671963 326.18500900268555 L 111.46700286865234 326.18500900268555 L 111.46700286865234 386.07801055908203 L 47.89299964904785 386.07801055908203 L 47.89299964904785 475.3280029296875 L 32 475.3280029296875 L 32 564.3190155029297 L 32 632.5280151367188 L 32 687.1650085449219 L 45.807000160217285 687.1650085449219 L 45.807000160217285 722.1570129394531 L 101.03700256347656 722.1570129394531 L 101.03700256347656 728.5659993708771 L 114.84499998949468 728.5659993708771" fill="none" stroke="#000000" stroke-width="1" stroke-dasharray="" stroke-linejoin="round" data-connector-id="c1:3" marker-end="url(#arrow_triangle_arrow_000000)"/><rect x="20.4" y="466.6084422715929" width="23.200000000000003" height="24" fill="#ffffff" fill-opacity="0" rx="4" ry="4"/><text x="32" y="480.4084422715929" fill="#1f2329" font-family="sans-serif" font-size="12" text-anchor="middle" data-connector-id="c1:3" data-role="caption"><tspan x="32" dy="0">够</tspan></text><path d="M 194.24599989433773 323.52101045005656 L 194.24599989433773 333.1849956512451 L 201.65100240707397 333.1849956512451 L 201.65100240707397 378.45499420166016 L 231.27300262451172 378.45499420166016 L 231.27300262451172 421.19198612921707 L 238.67899552651215 421.19198612921707" fill="none" stroke="#000000" stroke-width="1" stroke-dasharray="" stroke-linejoin="round" data-connector-id="c1:4" marker-end="url(#arrow_triangle_arrow_000000)"/><rect x="210.16383793863588" y="366.45499420166016" width="36.400000000000006" height="24" fill="#ffffff" fill-opacity="0" rx="4" ry="4"/><text x="228.36383793863587" y="380.25499420166017" fill="#1f2329" font-family="sans-serif" font-size="12" text-anchor="middle" data-connector-id="c1:4" data-role="caption"><tspan x="228.36383793863587" dy="0">不够</tspan></text><path d="M 204.75899820931954 512.4459915048774 L 204.75899820931954 521.8969841003418 L 196.12200164794922 521.8969841003418 L 196.12200164794922 566.3159828186035 L 161.5740032196045 566.3159828186035 L 161.5740032196045 608.8400268562917 L 152.93799849692732 608.8400268562917" fill="none" stroke="#000000" stroke-width="1" stroke-dasharray="" stroke-linejoin="round" data-connector-id="c1:5" marker-end="url(#arrow_triangle_arrow_000000)"/><rect x="147.54756778530833" y="554.3159828186035" width="36.400000000000006" height="24" fill="#ffffff" fill-opacity="0" rx="4" ry="4"/><text x="165.74756778530835" y="568.1159828186035" fill="#1f2329" font-family="sans-serif" font-size="12" text-anchor="middle" data-connector-id="c1:5" data-role="caption"><tspan x="165.74756778530835" dy="0">可以</tspan></text><path d="M 272.5989990304224 512.4459915048774 L 272.5989990304224 521.8969841003418 L 281.23599910736084 521.8969841003418 L 281.23599910736084 566.3159828186035 L 315.78299713134766 566.3159828186035 L 315.78299713134766 608.8400268562917 L 324.4199982690625 608.8400268562917" fill="none" stroke="#000000" stroke-width="1" stroke-dasharray="" stroke-linejoin="round" data-connector-id="c1:6" marker-end="url(#arrow_triangle_arrow_000000)"/><rect x="293.41042915754895" y="554.3159828186035" width="36.400000000000006" height="24" fill="#ffffff" fill-opacity="0" rx="4" ry="4"/><text x="311.61042915754894" y="568.1159828186035" fill="#1f2329" font-family="sans-serif" font-size="12" text-anchor="middle" data-connector-id="c1:6" data-role="caption"><tspan x="311.61042915754894" dy="0">不行</tspan></text><path d="M 152.93799849692732 660.1120262145996 L 152.9380021095276 721.1119995125417" fill="none" stroke="#000000" stroke-width="1" stroke-dasharray="" stroke-linejoin="round" data-connector-id="c1:7" marker-end="url(#arrow_triangle_arrow_000000)"/><path d="M 324.4199982690625 660.1120262145996 L 324.4199981689453 665.1119995117188 L 324.4199981689453 692.3919982910156 L 302.1809997558594 692.3919982910156 L 302.1809997558594 726.5120010375977 L 213.22599983215332 726.5120010375977 L 213.22599983215332 733.7919994684527 L 190.98700201511383 733.7919994684527" fill="none" stroke="#000000" stroke-width="1" stroke-dasharray="" stroke-linejoin="round" data-connector-id="c1:8" marker-end="url(#arrow_triangle_arrow_000000)"/><rect x="104.50439453125" y="8" width="124.552734375" height="52.27199935913086" rx="10" ry="10" fill="#f0f4fc" stroke="#000000" stroke-width="1" stroke-dasharray=""/><text x="166.78076171875" y="34.83599967956543" fill="#1f2329" font-family="sans-serif" font-size="14" text-anchor="middle"><tspan x="166.78076171875" dy="0">准备 API 调用</tspan></text><rect x="95.85693359375" y="120.27200317382812" width="141.84765625" height="52.27199935913086" rx="10" ry="10" fill="#f0f4fc" stroke="#000000" stroke-width="1" stroke-dasharray=""/><text x="166.78076171875" y="147.10800285339354" fill="#1f2329" font-family="sans-serif" font-size="14" text-anchor="middle"><tspan x="166.78076171875" dy="0">跑 microcompact</tspan></text><polygon points="166.78076171875,232.54400634765625 245.26318359375,287.6800079345703 166.78076171875,342.8160095214844 88.29833984375,287.6800079345703" fill="#fef1ce" stroke="#000000" stroke-width="1" stroke-dasharray=""/><text x="166.78076171875" y="288.3800079345703" fill="#1f2329" font-family="sans-serif" font-size="14" text-anchor="middle"><tspan x="166.78076171875" dy="0">token 够吗</tspan></text><rect x="113.9375" y="720.1119995117188" width="78" height="52.27199935913086" rx="10" ry="10" fill="#f0f4fc" stroke="#000000" stroke-width="1" stroke-dasharray=""/><text x="152.9375" y="746.9479991912842" fill="#1f2329" font-family="sans-serif" font-size="14" text-anchor="middle"><tspan x="152.9375" dy="0">发请求</tspan></text><polygon points="238.6787109375,420.1919860839844 342.474609375,475.32798767089844 238.6787109375,530.4639892578125 134.8828125,475.32798767089844" fill="#fef1ce" stroke="#000000" stroke-width="1" stroke-dasharray=""/><text x="238.6787109375" y="476.0279876708984" fill="#1f2329" font-family="sans-serif" font-size="14" text-anchor="middle"><tspan x="238.6787109375" dy="0">能 autocompact 吗</tspan></text><rect x="94.8583984375" y="607.8400268554688" width="116.158203125" height="52.27199935913086" rx="10" ry="10" fill="#f0f4fc" stroke="#000000" stroke-width="1" stroke-dasharray=""/><text x="152.9375" y="634.6760265350342" fill="#1f2329" font-family="sans-serif" font-size="14" text-anchor="middle"><tspan x="152.9375" dy="0">autocompact</tspan></text><rect x="271.0166015625" y="607.8400268554688" width="106.806640625" height="52.27199935913086" rx="10" ry="10" fill="#f0f4fc" stroke="#000000" stroke-width="1" stroke-dasharray=""/><text x="324.419921875" y="634.6760265350342" fill="#1f2329" font-family="sans-serif" font-size="14" text-anchor="middle"><tspan x="324.419921875" dy="0">fullcompact</tspan></text></svg>