<svg xmlns="http://www.w3.org/2000/svg" viewBox="-50 -50 584.3447265625 610.0320091247559" width="584.3447265625" height="610.0320091247559"><rect x="-50" y="-50" width="584.3447265625" height="610.0320091247559" fill="#ffffff"/><defs><marker id="arrow_triangle_arrow_000000" markerWidth="10" markerHeight="16" refX="9" refY="8" orient="auto" markerUnits="userSpaceOnUse"><polygon points="0 4, 10 8, 0 12" fill="#000000"/></marker><marker id="arrowhead_default" markerWidth="10" markerHeight="16" refX="9" refY="8" orient="auto" markerUnits="userSpaceOnUse"><polygon points="0 4, 10 8, 0 12" fill="#666666"/></marker></defs><path d="M 266.3229968806263 72.12499922177903 L 266.3229968806263 79.97599983215332 L 285.65799713134766 79.97599983215332 L 285.65799713134766 117.99599838256836 L 362.9959945678711 117.99599838256836 L 362.9959945678711 158.9199981358691 L 382.33099846797995 158.9199981358691" fill="none" stroke="#000000" stroke-width="1" stroke-dasharray="" stroke-linejoin="round" data-connector-id="c1:1" marker-end="url(#arrow_triangle_arrow_000000)"/><path d="M 319.35700058194925 230.46399688720703 L 319.35700058194925 236.9120044708252 L 308.16200256347656 236.9120044708252 L 308.16200256347656 269.4730033874512 L 250.72699737548828 269.4730033874512 L 250.72699737548828 302.9980010986328 L 188.91099643707275 302.9980010986328 L 188.91099643707275 309.76699635367305 L 176.25600357272197 309.76699635367305" fill="none" stroke="#000000" stroke-width="1" stroke-dasharray="" stroke-linejoin="round" data-connector-id="c1:2" marker-end="url(#arrow_triangle_arrow_000000)"/><path d="M 107.2059997356846 307.8399963378906 L 106.34599828720093 301.3919982910156 L 106.34599828720093 263.10699462890625 L 102.90499818325043 263.10699462890625 L 102.04499816894531 194.19200134277344 L 102.04499816894531 125.17500305175781 L 110.40699863433838 125.17500305175781 L 110.40699863433838 79.92699999754996 L 152.21700003300793 79.92699999754996" fill="none" stroke="#000000" stroke-width="1" stroke-dasharray="" stroke-linejoin="round" data-connector-id="c1:3" marker-end="url(#arrow_triangle_arrow_000000)"/><path d="M 197.7299985784921 80.54399871826172 L 197.7299998998642 169.05599975668233" fill="none" stroke="#000000" stroke-width="1" stroke-dasharray="4, 4" stroke-linejoin="round" data-connector-id="c1:4" marker-end="url(#arrow_triangle_arrow_000000)"/><rect x="141.72999923917814" y="112.79999923747202" width="112" height="24" fill="#ffffff" fill-opacity="0" rx="4" ry="4"/><text x="197.72999923917814" y="126.59999923747202" fill="#1f2329" font-family="sans-serif" font-size="12" text-anchor="middle" data-connector-id="c1:4" data-role="caption"><tspan x="197.72999923917814" dy="0">source、owner、time</tspan></text><path d="M 409.43500064790715 230.46399688720703 L 409.43500064790715 236.9120044708252 L 414.25299739837646 236.9120044708252 L 414.25299739837646 271.0080032348633 L 433.52599716186523 271.0080032348633 L 433.52599716186523 318.9760131844167 L 438.34500074386597 318.9760131844167" fill="none" stroke="#000000" stroke-width="1" stroke-dasharray="4, 4" stroke-linejoin="round" data-connector-id="c1:5" marker-end="url(#arrow_triangle_arrow_000000)"/><rect x="356.52599716186523" y="275.78559775261533" width="154" height="24" fill="#ffffff" fill-opacity="0" rx="4" ry="4"/><text x="433.52599716186523" y="289.58559775261534" fill="#1f2329" font-family="sans-serif" font-size="12" text-anchor="middle" data-connector-id="c1:5" data-role="caption"><tspan x="433.52599716186523" dy="0">decision、assumption、risk</tspan></text><path d="M 112.04499947163276 380.38399505615234 L 112.04499864578247 458.7600097664479" fill="none" stroke="#000000" stroke-width="1" stroke-dasharray="4, 4" stroke-linejoin="round" data-connector-id="c1:6" marker-end="url(#arrow_triangle_arrow_000000)"/><rect x="20.044999058707617" y="407.5720024113001" width="184" height="24" fill="#ffffff" fill-opacity="0" rx="4" ry="4"/><text x="112.04499905870762" y="421.3720024113001" fill="#1f2329" font-family="sans-serif" font-size="12" text-anchor="middle" data-connector-id="c1:6" data-role="caption"><tspan x="112.04499905870762" dy="0">follow-up、escalation、approval</tspan></text><rect x="129.1376953125" y="8" width="137.185546875" height="72.54399871826172" rx="10" ry="10" fill="#f0f4fc" stroke="#000000" stroke-width="1" stroke-dasharray=""/><text x="197.73046875" y="35.171999359130865" fill="#1f2329" font-family="sans-serif" font-size="14" text-anchor="middle"><tspan x="197.73046875" dy="0">Factual Memory</tspan><tspan x="197.73046875" dy="19.599999999999998">发生了什么</tspan></text><rect x="303.73046875" y="157.9199981689453" width="157.201171875" height="72.54399871826172" rx="10" ry="10" fill="#f0f4fc" stroke="#000000" stroke-width="1" stroke-dasharray=""/><text x="382.3310546875" y="185.09199752807618" fill="#1f2329" font-family="sans-serif" font-size="14" text-anchor="middle"><tspan x="382.3310546875" dy="0">Interaction Memory</tspan><tspan x="382.3310546875" dy="19.599999999999998">为什么这样决定</tspan></text><rect x="46.9521484375" y="307.8399963378906" width="130.185546875" height="72.54399871826172" rx="10" ry="10" fill="#f0f4fc" stroke="#000000" stroke-width="1" stroke-dasharray=""/><text x="112.044921875" y="335.01199569702146" fill="#1f2329" font-family="sans-serif" font-size="14" text-anchor="middle"><tspan x="112.044921875" dy="0">Action Memory</tspan><tspan x="112.044921875" dy="19.599999999999998">下一步怎么做</tspan></text><rect x="151.73046875" y="168.05599975585938" width="92" height="52.27199935913086" rx="10" ry="10" fill="#f0f4fc" stroke="#000000" stroke-width="1" stroke-dasharray=""/><text x="197.73046875" y="194.8919994354248" fill="#1f2329" font-family="sans-serif" font-size="14" text-anchor="middle"><tspan x="197.73046875" dy="0">事实可信</tspan></text><rect x="392.3447265625" y="317.97601318359375" width="92" height="52.27199935913086" rx="10" ry="10" fill="#f0f4fc" stroke="#000000" stroke-width="1" stroke-dasharray=""/><text x="438.3447265625" y="344.81201286315917" fill="#1f2329" font-family="sans-serif" font-size="14" text-anchor="middle"><tspan x="438.3447265625" dy="0">推理可追</tspan></text><rect x="66.044921875" y="457.760009765625" width="92" height="52.27199935913086" rx="10" ry="10" fill="#f0f4fc" stroke="#000000" stroke-width="1" stroke-dasharray=""/><text x="112.044921875" y="484.5960094451904" fill="#1f2329" font-family="sans-serif" font-size="14" text-anchor="middle"><tspan x="112.044921875" dy="0">行动可控</tspan></text></svg>