<svg xmlns="http://www.w3.org/2000/svg" viewBox="-42 -42 911 218.52700424194336" width="911" height="218.52700424194336"><rect x="-42" y="-42" width="911" height="218.52700424194336" fill="#ffffff"/><defs><marker id="arrow_triangle_arrow_000000" markerWidth="10" markerHeight="16" refX="9" refY="8" orient="auto" markerUnits="userSpaceOnUse"><polygon points="0 4, 10 8, 0 12" fill="#000000"/></marker><marker id="arrowhead_default" markerWidth="10" markerHeight="16" refX="9" refY="8" orient="auto" markerUnits="userSpaceOnUse"><polygon points="0 4, 10 8, 0 12" fill="#666666"/></marker></defs><path d="M 100 38.381000490322776 L 100 36.97199821472168 L 111 36.97199821472168 L 111 32.76699838228524 L 166.16500091552734 32.76699838228524 L 166.16500091552734 37.07799816131592 L 221.8270034790039 37.07799816131592 L 221.8270034790039 38.50799949816496 L 232.99200000613928 38.50799949816496" fill="none" stroke="#000000" stroke-width="1" stroke-dasharray="" stroke-linejoin="round" data-connector-id="c1:1" marker-end="url(#arrow_triangle_arrow_000000)"/><path d="M 324 38.381000490322776 L 324 36.97199821472168 L 335 36.97199821472168 L 335 32.76699838228524 L 390.16500091552734 32.76699838228524 L 390.16500091552734 37.07799816131592 L 445.8270034790039 37.07799816131592 L 445.8270034790039 38.50799949816496 L 456.9920000061393 38.50799949816496" fill="none" stroke="#000000" stroke-width="1" stroke-dasharray="" stroke-linejoin="round" data-connector-id="c1:2" marker-end="url(#arrow_triangle_arrow_000000)"/><path d="M 548 38.381000490322776 L 548 36.97200107574463 L 559 36.97200107574463 L 559 32.5840008854866 L 614.9990005493164 32.5840008854866 L 614.9990005493164 36.16400098800659 L 673.9960021972656 36.16400098800659 L 673.9960021972656 37.411000220405185 L 685.9949999758974 37.411000220405185" fill="none" stroke="#000000" stroke-width="1" stroke-dasharray="" stroke-linejoin="round" data-connector-id="c1:3" marker-end="url(#arrow_triangle_arrow_000000)"/><path d="M 100 50.16300038991858 L 100 51.571999311447144 L 111 51.571999311447144 L 111 55.77699947357178 L 166.16500091552734 55.77699947357178 L 166.16500091552734 51.465999245643616 L 221.8270034790039 51.465999245643616 L 221.8270034790039 50.03600138207639 L 232.99200000613928 50.03600138207639" fill="none" stroke="#000000" stroke-width="1" stroke-dasharray="4, 4" stroke-linejoin="round" data-connector-id="c1:4" marker-end="url(#arrow_triangle_arrow_000000)"/><rect x="141.36500091552733" y="43.38250088210839" width="49.6" height="24" fill="#ffffff" fill-opacity="0" rx="4" ry="4"/><text x="166.16500091552734" y="57.182500882108386" fill="#1f2329" font-family="sans-serif" font-size="12" text-anchor="middle" data-connector-id="c1:4" data-role="caption"><tspan x="166.16500091552734" dy="0">有什么</tspan></text><path d="M 324 50.16300038991858 L 324 51.571999311447144 L 335 51.571999311447144 L 335 55.77699947357178 L 390.16500091552734 55.77699947357178 L 390.16500091552734 51.465999245643616 L 445.8270034790039 51.465999245643616 L 445.8270034790039 50.03600138207639 L 456.9920000061393 50.03600138207639" fill="none" stroke="#000000" stroke-width="1" stroke-dasharray="4, 4" stroke-linejoin="round" data-connector-id="c1:5" marker-end="url(#arrow_triangle_arrow_000000)"/><rect x="365.36500091552733" y="43.38250088210839" width="49.6" height="24" fill="#ffffff" fill-opacity="0" rx="4" ry="4"/><text x="390.16500091552734" y="57.182500882108386" fill="#1f2329" font-family="sans-serif" font-size="12" text-anchor="middle" data-connector-id="c1:5" data-role="caption"><tspan x="390.16500091552734" dy="0">在哪里</tspan></text><path d="M 548 50.16300038991858 L 548 51.57199823856354 L 559 51.57199823856354 L 559 55.95999813079834 L 614.9990005493164 55.95999813079834 L 614.9990005493164 52.379998207092285 L 673.9960021972656 52.379998207092285 L 673.9960021972656 51.13299849785653 L 685.9949999758974 51.13299849785653" fill="none" stroke="#000000" stroke-width="1" stroke-dasharray="4, 4" stroke-linejoin="round" data-connector-id="c1:6" marker-end="url(#arrow_triangle_arrow_000000)"/><rect x="590.1990005493165" y="41.33185632901805" width="49.6" height="24" fill="#ffffff" fill-opacity="0" rx="4" ry="4"/><text x="614.9990005493164" y="55.13185632901805" fill="#1f2329" font-family="sans-serif" font-size="12" text-anchor="middle" data-connector-id="c1:6" data-role="caption"><tspan x="614.9990005493164" dy="0">相关吗</tspan></text><path d="M 716.6410005688667 80.54399871826172 L 716.6410005688667 85.95400285720825 L 711.3680000305176 85.95400285720825 L 711.3680000305176 108.94500350952148 L 690.2740001678467 108.94500350952148 L 690.2740001678467 121.11700439453125 L 696.1669998168945 121.11700439453125 L 696.1669998168945 126.52700424194336 L 752 126.52700424194336 L 752 121.11700439453125 L 807.8330001831055 121.11700439453125 L 807.8330001831055 108.82600212097168 L 813.6100006103516 108.82600212097168 L 813.6100006103516 79.82799862600814 L 786.6610015630722 79.82799862600814" fill="none" stroke="#000000" stroke-width="1" stroke-dasharray="4, 4" stroke-linejoin="round" data-connector-id="c1:7" marker-end="url(#arrow_triangle_arrow_000000)"/><rect x="705.61915043607" y="109.11700439453125" width="121.60000000000001" height="24" fill="#ffffff" fill-opacity="0" rx="4" ry="4"/><text x="766.4191504360699" y="122.91700439453125" fill="#1f2329" font-family="sans-serif" font-size="12" text-anchor="middle" data-connector-id="c1:7" data-role="caption"><tspan x="766.4191504360699" dy="0">为什么，以及下一步</tspan></text><rect x="8" y="8" width="92" height="72.54399871826172" rx="10" ry="10" fill="#f0f4fc" stroke="#000000" stroke-width="1" stroke-dasharray=""/><text x="54" y="35.171999359130865" fill="#1f2329" font-family="sans-serif" font-size="14" text-anchor="middle"><tspan x="54" dy="0">数据</tspan><tspan x="54" dy="19.599999999999998">留下痕迹</tspan></text><rect x="232" y="8" width="92" height="72.54399871826172" rx="10" ry="10" fill="#f0f4fc" stroke="#000000" stroke-width="1" stroke-dasharray=""/><text x="278" y="35.171999359130865" fill="#1f2329" font-family="sans-serif" font-size="14" text-anchor="middle"><tspan x="278" dy="0">知识库</tspan><tspan x="278" dy="19.599999999999998">可被查找</tspan></text><rect x="456" y="8" width="92" height="72.54399871826172" rx="10" ry="10" fill="#f0f4fc" stroke="#000000" stroke-width="1" stroke-dasharray=""/><text x="502" y="35.171999359130865" fill="#1f2329" font-family="sans-serif" font-size="14" text-anchor="middle"><tspan x="502" dy="0">RAG</tspan><tspan x="502" dy="19.599999999999998">可被召回</tspan></text><rect x="685" y="8" width="134" height="72.54399871826172" rx="10" ry="10" fill="#f0f4fc" stroke="#000000" stroke-width="1" stroke-dasharray=""/><text x="752" y="35.171999359130865" fill="#1f2329" font-family="sans-serif" font-size="14" text-anchor="middle"><tspan x="752" dy="0">Company Brain</tspan><tspan x="752" dy="19.599999999999998">可被解释与行动</tspan></text></svg>