<svg xmlns="http://www.w3.org/2000/svg" viewBox="-50 -50 964.0927734375 282.6800003051758" width="964.0927734375" height="282.6800003051758"><rect x="-50" y="-50" width="964.0927734375" height="282.6800003051758" fill="#ffffff"/><defs><marker id="arrow_triangle_arrow_000000" markerWidth="10" markerHeight="16" refX="9" refY="8" orient="auto" markerUnits="userSpaceOnUse"><polygon points="0 4, 10 8, 0 12" fill="#000000"/></marker><marker id="arrowhead_default" markerWidth="10" markerHeight="16" refX="9" refY="8" orient="auto" markerUnits="userSpaceOnUse"><polygon points="0 4, 10 8, 0 12" fill="#666666"/></marker></defs><path d="M 424 34.13599967956543 L 580.9999999527881 34.13599967956543" fill="none" stroke="#000000" stroke-width="1" stroke-dasharray="" stroke-linejoin="round" data-connector-id="c1:1" marker-end="url(#arrow_triangle_arrow_000000)"/><rect x="484.2999999763941" y="22.13599967956543" width="36.400000000000006" height="24" fill="#ffffff" fill-opacity="0" rx="4" ry="4"/><text x="502.49999997639407" y="35.93599967956543" fill="#1f2329" font-family="sans-serif" font-size="12" text-anchor="middle" data-connector-id="c1:1" data-role="caption"><tspan x="502.49999997639407" dy="0">阅读</tspan></text><path d="M 170 146.40800094604492 L 297.1660000085285 146.40800285339355" fill="none" stroke="#000000" stroke-width="1" stroke-dasharray="" stroke-linejoin="round" data-connector-id="c1:2" marker-end="url(#arrow_triangle_arrow_000000)"/><rect x="215.38300000426426" y="134.40800189971924" width="36.400000000000006" height="24" fill="#ffffff" fill-opacity="0" rx="4" ry="4"/><text x="233.58300000426425" y="148.20800189971925" fill="#1f2329" font-family="sans-serif" font-size="12" text-anchor="middle" data-connector-id="c1:2" data-role="caption"><tspan x="233.58300000426425" dy="0">对话</tspan></text><path d="M 417.833984375 146.40800285339355 L 591.8139999676296 146.40800285339355" fill="none" stroke="#000000" stroke-width="1" stroke-dasharray="" stroke-linejoin="round" data-connector-id="c1:3" marker-end="url(#arrow_triangle_arrow_000000)"/><rect x="466.8239921713148" y="134.40800285339355" width="76" height="24" fill="#ffffff" fill-opacity="0" rx="4" ry="4"/><text x="504.8239921713148" y="148.20800285339357" fill="#1f2329" font-family="sans-serif" font-size="12" text-anchor="middle" data-connector-id="c1:3" data-role="caption"><tspan x="504.8239921713148" dy="0">阅读并执行</tspan></text><path d="M 698.0927734375 34.13599967956543 L 703.093017578125 34.13600158691406 L 730.6240158081055 34.13600158691406 L 730.6240158081055 39.22900152206421 L 773.2780003845692 39.22900152206421 L 773.2780003845692 64.69600158542762" fill="none" stroke="#000000" stroke-width="1" stroke-dasharray="" stroke-linejoin="round" data-connector-id="c1:4" marker-end="url(#arrow_triangle_arrow_000000)"/><path d="M 687.2779983296059 146.40800285339355 L 694.0810151100159 146.4079990386963 L 728.8210144042969 146.4079990386963 L 728.8210144042969 141.31499862670898 L 773.2780003845692 141.31499862670898 L 773.2780003845692 115.84799953575066" fill="none" stroke="#000000" stroke-width="1" stroke-dasharray="" stroke-linejoin="round" data-connector-id="c1:5" marker-end="url(#arrow_triangle_arrow_000000)"/><rect x="290" y="8" width="134" height="52.27199935913086" rx="10" ry="10" fill="#f0f4fc" stroke="#000000" stroke-width="1" stroke-dasharray=""/><text x="357" y="34.83599967956543" fill="#1f2329" font-family="sans-serif" font-size="14" text-anchor="middle"><tspan x="357" dy="0">愿意读文档的人</tspan></text><rect x="580" y="8" width="118.0927734375" height="52.27199935913086" rx="10" ry="10" fill="#f0f4fc" stroke="#000000" stroke-width="1" stroke-dasharray=""/><text x="639.04638671875" y="34.83599967956543" fill="#1f2329" font-family="sans-serif" font-size="14" text-anchor="middle"><tspan x="639.04638671875" dy="0">README.md</tspan></text><rect x="8" y="110.13600158691406" width="162" height="72.54399871826172" rx="10" ry="10" fill="#f0f4fc" stroke="#000000" stroke-width="1" stroke-dasharray=""/><text x="89" y="137.30800094604493" fill="#1f2329" font-family="sans-serif" font-size="14" text-anchor="middle"><tspan x="89" dy="0">只想说一句帮我装一下</tspan><tspan x="89" dy="19.599999999999998">的人</tspan></text><rect x="296.166015625" y="120.27200317382812" width="121.66796875" height="52.27199935913086" rx="10" ry="10" fill="#f0f4fc" stroke="#000000" stroke-width="1" stroke-dasharray=""/><text x="357" y="147.10800285339354" fill="#1f2329" font-family="sans-serif" font-size="14" text-anchor="middle"><tspan x="357" dy="0">Coding Agent</tspan></text><rect x="590.814453125" y="120.27200317382812" width="96.4638671875" height="52.27199935913086" rx="10" ry="10" fill="#f0f4fc" stroke="#000000" stroke-width="1" stroke-dasharray=""/><text x="639.04638671875" y="147.10800285339354" fill="#1f2329" font-family="sans-serif" font-size="14" text-anchor="middle"><tspan x="639.04638671875" dy="0">Install.md</tspan></text><rect x="758.0927734375" y="64.13600158691406" width="106" height="52.27199935913086" rx="10" ry="10" fill="#f0f4fc" stroke="#000000" stroke-width="1" stroke-dasharray=""/><text x="811.0927734375" y="90.9720012664795" fill="#1f2329" font-family="sans-serif" font-size="14" text-anchor="middle"><tspan x="811.0927734375" dy="0">同一个项目</tspan></text></svg>