<svg xmlns="http://www.w3.org/2000/svg" viewBox="-42 -42 629.3857421875 284.81600189208984" width="629.3857421875" height="284.81600189208984"><rect x="-42" y="-42" width="629.3857421875" height="284.81600189208984" fill="#ffffff"/><defs><marker id="arrow_triangle_arrow_000000" markerWidth="10" markerHeight="16" refX="9" refY="8" orient="auto" markerUnits="userSpaceOnUse"><polygon points="0 4, 10 8, 0 12" fill="#000000"/></marker><marker id="arrowhead_default" markerWidth="10" markerHeight="16" refX="9" refY="8" orient="auto" markerUnits="userSpaceOnUse"><polygon points="0 4, 10 8, 0 12" fill="#666666"/></marker></defs><path d="M 216.14000000000112 49.055000186160896 L 216.14000000000112 55.92400026321411 L 187.9499969482422 55.92400026321411 L 187.9499969482422 88.56900024414062 L 75.19000053405762 88.56900024414062 L 75.19000053405762 121.2720031407519 L 47 121.2720031407519" fill="none" stroke="#000000" stroke-width="1" stroke-dasharray="" stroke-linejoin="round" data-connector-id="c1:1" marker-end="url(#arrow_triangle_arrow_000000)"/><path d="M 240.88300083261856 60.27199935913086 L 240.88300083261856 65.27199935913086 L 233.9050064086914 65.27199935913086 L 233.9050064086914 90.43899917602539 L 205.99200773239136 90.43899917602539 L 205.99200773239136 121.2720031407519 L 199.01400050055236 121.2720031407519" fill="none" stroke="#000000" stroke-width="1" stroke-dasharray="" stroke-linejoin="round" data-connector-id="c1:2" marker-end="url(#arrow_triangle_arrow_000000)"/><path d="M 313.8369968950865 60.27199935913086 L 313.8369968950865 65.27199935913086 L 320.81500577926636 65.27199935913086 L 320.81500577926636 90.43899917602539 L 348.7280044555664 90.43899917602539 L 348.7280044555664 121.2720031407519 L 355.707001181785 121.2720031407519" fill="none" stroke="#000000" stroke-width="1" stroke-dasharray="" stroke-linejoin="round" data-connector-id="c1:3" marker-end="url(#arrow_triangle_arrow_000000)"/><path d="M 338.580001152819 49.68500099382845 L 338.580001152819 56.44900131225586 L 365.21498680114746 56.44900131225586 L 365.21498680114746 88.67399978637695 L 471.7519836425781 88.67399978637695 L 471.7519836425781 121.2720031407519 L 498.3859978914261 121.2720031407519" fill="none" stroke="#000000" stroke-width="1" stroke-dasharray="" stroke-linejoin="round" data-connector-id="c1:4" marker-end="url(#arrow_triangle_arrow_000000)"/><rect x="216.139892578125" y="8" width="122.4404296875" height="52.27199935913086" rx="10" ry="10" fill="#f0f4fc" stroke="#000000" stroke-width="1" stroke-dasharray=""/><text x="277.360107421875" y="34.83599967956543" fill="#1f2329" font-family="sans-serif" font-size="14" text-anchor="middle"><tspan x="277.360107421875" dy="0">Tool definition</tspan></text><rect x="8" y="120.27200317382812" width="78" height="72.54399871826172" rx="10" ry="10" fill="#f0f4fc" stroke="#000000" stroke-width="1" stroke-dasharray=""/><text x="47" y="147.444002532959" fill="#1f2329" font-family="sans-serif" font-size="14" text-anchor="middle"><tspan x="47" dy="0">Name</tspan><tspan x="47" dy="19.599999999999998">叫什么</tspan></text><rect x="146" y="120.27200317382812" width="106.02734375" height="72.54399871826172" rx="10" ry="10" fill="#f0f4fc" stroke="#000000" stroke-width="1" stroke-dasharray=""/><text x="199.013671875" y="147.444002532959" fill="#1f2329" font-family="sans-serif" font-size="14" text-anchor="middle"><tspan x="199.013671875" dy="0">Description</tspan><tspan x="199.013671875" dy="19.599999999999998">何时用</tspan></text><rect x="312.02734375" y="120.27200317382812" width="87.3583984375" height="72.54399871826172" rx="10" ry="10" fill="#f0f4fc" stroke="#000000" stroke-width="1" stroke-dasharray=""/><text x="355.70654296875" y="147.444002532959" fill="#1f2329" font-family="sans-serif" font-size="14" text-anchor="middle"><tspan x="355.70654296875" dy="0">Schema</tspan><tspan x="355.70654296875" dy="19.599999999999998">怎么传</tspan></text><rect x="459.3857421875" y="120.27200317382812" width="78" height="72.54399871826172" rx="10" ry="10" fill="#f0f4fc" stroke="#000000" stroke-width="1" stroke-dasharray=""/><text x="498.3857421875" y="147.444002532959" fill="#1f2329" font-family="sans-serif" font-size="14" text-anchor="middle"><tspan x="498.3857421875" dy="0">Result</tspan><tspan x="498.3857421875" dy="19.599999999999998">怎么回</tspan></text></svg>