<svg xmlns="http://www.w3.org/2000/svg" viewBox="-50 -50 513.721923828125 991.6320190429688" width="513.721923828125" height="991.6320190429688"><rect x="-50" y="-50" width="513.721923828125" height="991.6320190429688" fill="#ffffff"/><defs><marker id="arrow_triangle_arrow_000000" markerWidth="10" markerHeight="16" refX="9" refY="8" orient="auto" markerUnits="userSpaceOnUse"><polygon points="0 4, 10 8, 0 12" fill="#000000"/></marker><marker id="arrowhead_default" markerWidth="10" markerHeight="16" refX="9" refY="8" orient="auto" markerUnits="userSpaceOnUse"><polygon points="0 4, 10 8, 0 12" fill="#666666"/></marker></defs><rect x="112.8023681640625" y="8" width="196.1171875" height="411.8160095214844" rx="10" ry="10" fill="#ffffde" stroke="#c2c262" stroke-width="1" stroke-dasharray=""/><text x="210.8609619140625" y="34" fill="#1f2329" font-family="sans-serif" font-size="16" text-anchor="middle"><tspan x="210.8609619140625" dy="0">General Agent + AFS</tspan></text><rect x="8" y="479.8160095214844" width="405.721923828125" height="411.8160095214844" rx="10" ry="10" fill="#ffffde" stroke="#c2c262" stroke-width="1" stroke-dasharray=""/><text x="210.8609619140625" y="505.8160095214844" fill="#1f2329" font-family="sans-serif" font-size="16" text-anchor="middle"><tspan x="210.8609619140625" dy="0">Coding Agent + Sandbox</tspan></text><path d="M 210.86136860121042 102.77199935913086 L 210.86137000692543 188.77200317465108" fill="none" stroke="#000000" stroke-width="1" stroke-dasharray="" stroke-linejoin="round" data-connector-id="c1:1" marker-end="url(#arrow_triangle_arrow_000000)"/><path d="M 210.86137000692543 240.04400253295898 L 210.86137026036158 326.0440063484792" fill="none" stroke="#000000" stroke-width="1" stroke-dasharray="" stroke-linejoin="round" data-connector-id="c1:2" marker-end="url(#arrow_triangle_arrow_000000)"/><path d="M 227.81999913603067 574.5879783630371 L 227.81999863067176 660.5880126961355" fill="none" stroke="#000000" stroke-width="1" stroke-dasharray="" stroke-linejoin="round" data-connector-id="c1:3" marker-end="url(#arrow_triangle_arrow_000000)"/><path d="M 191.78699917501945 711.8600120544434 L 191.78699917501945 718.942985534668 L 182.02199935913086 718.942985534668 L 182.02199935913086 754.526985168457 L 142.95900058746338 754.526985168457 L 142.95900058746338 797.8599853523855 L 133.1939999947208 797.8599853523855" fill="none" stroke="#000000" stroke-width="1" stroke-dasharray="" stroke-linejoin="round" data-connector-id="c1:4" marker-end="url(#arrow_triangle_arrow_000000)"/><path d="M 263.8530033159768 711.8600120544434 L 263.8530033159768 718.942985534668 L 273.61799716949463 718.942985534668 L 273.61799716949463 754.526985168457 L 312.6809959411621 754.526985168457 L 312.6809959411621 797.8599853523855 L 322.4460001918487 797.8599853523855" fill="none" stroke="#000000" stroke-width="1" stroke-dasharray="" stroke-linejoin="round" data-connector-id="c1:5" marker-end="url(#arrow_triangle_arrow_000000)"/><rect x="174.5679931640625" y="50.5" width="72.5859375" height="52.27199935913086" rx="10" ry="10" fill="#f0f4fc" stroke="#000000" stroke-width="1" stroke-dasharray=""/><text x="210.8609619140625" y="77.33599967956543" fill="#1f2329" font-family="sans-serif" font-size="14" text-anchor="middle"><tspan x="210.8609619140625" dy="0">Agent</tspan></text><rect x="158.9923095703125" y="187.77200317382812" width="103.7373046875" height="52.27199935913086" rx="10" ry="10" fill="#f0f4fc" stroke="#000000" stroke-width="1" stroke-dasharray=""/><text x="210.8609619140625" y="214.60800285339354" fill="#1f2329" font-family="sans-serif" font-size="14" text-anchor="middle"><tspan x="210.8609619140625" dy="0">AFS Client</tspan></text><rect x="152.8023681640625" y="325.04400634765625" width="116.1171875" height="52.27199935913086" rx="10" ry="10" fill="#f0f4fc" stroke="#000000" stroke-width="1" stroke-dasharray=""/><text x="210.8609619140625" y="351.88000602722167" fill="#1f2329" font-family="sans-serif" font-size="14" text-anchor="middle"><tspan x="210.8609619140625" dy="0">虚拟文件 I/O</tspan></text><rect x="191.527099609375" y="522.3159790039062" width="72.5859375" height="52.27199935913086" rx="10" ry="10" fill="#f0f4fc" stroke="#000000" stroke-width="1" stroke-dasharray=""/><text x="227.820068359375" y="549.1519786834717" fill="#1f2329" font-family="sans-serif" font-size="14" text-anchor="middle"><tspan x="227.820068359375" dy="0">Agent</tspan></text><rect x="169.327392578125" y="659.5880126953125" width="116.9853515625" height="52.27199935913086" rx="10" ry="10" fill="#f0f4fc" stroke="#000000" stroke-width="1" stroke-dasharray=""/><text x="227.820068359375" y="686.424012374878" fill="#1f2329" font-family="sans-serif" font-size="14" text-anchor="middle"><tspan x="227.820068359375" dy="0">Sandbox VM</tspan></text><rect x="48" y="796.8599853515625" width="170.3876953125" height="52.27199935913086" rx="10" ry="10" fill="#f0f4fc" stroke="#000000" stroke-width="1" stroke-dasharray=""/><text x="133.19384765625" y="823.695985031128" fill="#1f2329" font-family="sans-serif" font-size="14" text-anchor="middle"><tspan x="133.19384765625" dy="0">bash / npm / browser</tspan></text><rect x="278.3876953125" y="796.8599853515625" width="88.1171875" height="52.27199935913086" rx="10" ry="10" fill="#f0f4fc" stroke="#000000" stroke-width="1" stroke-dasharray=""/><text x="322.4462890625" y="823.695985031128" fill="#1f2329" font-family="sans-serif" font-size="14" text-anchor="middle"><tspan x="322.4462890625" dy="0">文件 I/O</tspan></text></svg>