<svg xmlns="http://www.w3.org/2000/svg" viewBox="-50 -50 1175.8828125 272.544002532959" width="1175.8828125" height="272.544002532959"><rect x="-50" y="-50" width="1175.8828125" height="272.544002532959" fill="#ffffff"/><defs><marker id="arrow_triangle_arrow_000000" markerWidth="10" markerHeight="16" refX="9" refY="8" orient="auto" markerUnits="userSpaceOnUse"><polygon points="0 4, 10 8, 0 12" fill="#000000"/></marker><marker id="arrowhead_default" markerWidth="10" markerHeight="16" refX="9" refY="8" orient="auto" markerUnits="userSpaceOnUse"><polygon points="0 4, 10 8, 0 12" fill="#666666"/></marker></defs><path d="M 118.716796875 90.27199935913086 L 179.71699999272823 90.27200317382812" fill="none" stroke="#000000" stroke-width="1" stroke-dasharray="" stroke-linejoin="round" data-connector-id="c1:1" marker-end="url(#arrow_triangle_arrow_000000)"/><path d="M 313.34399604797363 72.7850026133001 L 313.34399604797363 66.34400177001953 L 333.4679946899414 66.34400177001953 L 333.4679946899414 40.578001499176025 L 431.1889953613281 40.578001499176025 L 431.1889953613281 34.13600158691406 L 520.2229919433594 34.13600158691406 L 537.4510000021428 34.13599967956543" fill="none" stroke="#000000" stroke-width="1" stroke-dasharray="" stroke-linejoin="round" data-connector-id="c1:2" marker-end="url(#arrow_triangle_arrow_000000)"/><rect x="358.75055049416596" y="28.578001499176025" width="100.96000000000001" height="24" fill="#ffffff" fill-opacity="0" rx="4" ry="4"/><text x="409.230550494166" y="42.37800149917602" fill="#1f2329" font-family="sans-serif" font-size="12" text-anchor="middle" data-connector-id="c1:2" data-role="caption"><tspan x="409.230550494166" dy="0">传统改 messages</tspan></text><path d="M 654.2430025806534 34.13599967956543 L 722.2430000001059 34.13599967956543" fill="none" stroke="#000000" stroke-width="1" stroke-dasharray="" stroke-linejoin="round" data-connector-id="c1:3" marker-end="url(#arrow_triangle_arrow_000000)"/><path d="M 858.4287109375 34.13599967956543 L 922.5359999904549 34.13599967956543" fill="none" stroke="#000000" stroke-width="1" stroke-dasharray="" stroke-linejoin="round" data-connector-id="c1:4" marker-end="url(#arrow_triangle_arrow_000000)"/><path d="M 313.34399604797363 107.75900373435616 L 313.34399604797363 114.20000267028809 L 333.4679946899414 114.20000267028809 L 333.4679946899414 139.96600341796875 L 430.0219955444336 139.96600341796875 L 430.0219955444336 146.40800094604492 L 514.3899993896484 146.40800094604492 L 530.4509999979218 146.40800285339355" fill="none" stroke="#000000" stroke-width="1" stroke-dasharray="" stroke-linejoin="round" data-connector-id="c1:5" marker-end="url(#arrow_triangle_arrow_000000)"/><rect x="351.65926357111687" y="127.96600341796875" width="105.76" height="24" fill="#ffffff" fill-opacity="0" rx="4" ry="4"/><text x="404.53926357111686" y="141.76600341796876" fill="#1f2329" font-family="sans-serif" font-size="12" text-anchor="middle" data-connector-id="c1:5" data-role="caption"><tspan x="404.53926357111686" dy="0">cache_edits 协议</tspan></text><path d="M 661.2429990987875 146.40800285339355 L 722.2430000001059 146.40800285339355" fill="none" stroke="#000000" stroke-width="1" stroke-dasharray="" stroke-linejoin="round" data-connector-id="c1:6" marker-end="url(#arrow_triangle_arrow_000000)"/><path d="M 858.4287109375 146.40800285339355 L 919.429000009236 146.40800285339355" fill="none" stroke="#000000" stroke-width="1" stroke-dasharray="" stroke-linejoin="round" data-connector-id="c1:7" marker-end="url(#arrow_triangle_arrow_000000)"/><rect x="8" y="54" width="110.716796875" height="72.54399871826172" rx="10" ry="10" fill="#f0f4fc" stroke="#000000" stroke-width="1" stroke-dasharray=""/><text x="63.3583984375" y="81.17199935913087" fill="#1f2329" font-family="sans-serif" font-size="14" text-anchor="middle"><tspan x="63.3583984375" dy="0">需要清理旧</tspan><tspan x="63.3583984375" dy="19.599999999999998">tool_result</tspan></text><polygon points="258.716796875,35.13600158691406 338.716796875,90.27200317382812 258.716796875,145.4080047607422 178.716796875,90.27200317382812" fill="#fef1ce" stroke="#000000" stroke-width="1" stroke-dasharray=""/><text x="258.716796875" y="90.97200317382813" fill="#1f2329" font-family="sans-serif" font-size="14" text-anchor="middle"><tspan x="258.716796875" dy="0">选哪条路径</tspan></text><rect x="536.451171875" y="8" width="117.7919921875" height="52.27199935913086" rx="10" ry="10" fill="#f0f4fc" stroke="#000000" stroke-width="1" stroke-dasharray=""/><text x="595.34716796875" y="34.83599967956543" fill="#1f2329" font-family="sans-serif" font-size="14" text-anchor="middle"><tspan x="595.34716796875" dy="0">前缀 hash 变</tspan></text><rect x="721.2431640625" y="8" width="137.185546875" height="52.27199935913086" rx="10" ry="10" fill="#f0f4fc" stroke="#000000" stroke-width="1" stroke-dasharray=""/><text x="789.8359375" y="34.83599967956543" fill="#1f2329" font-family="sans-serif" font-size="14" text-anchor="middle"><tspan x="789.8359375" dy="0">Cache 整体失效</tspan></text><rect x="921.53564453125" y="8" width="151.240234375" height="52.27199935913086" rx="10" ry="10" fill="#f0f4fc" stroke="#000000" stroke-width="1" stroke-dasharray=""/><text x="997.15576171875" y="34.83599967956543" fill="#1f2329" font-family="sans-serif" font-size="14" text-anchor="middle"><tspan x="997.15576171875" dy="0">按 100% 原价计费</tspan></text><rect x="529.451171875" y="120.27200317382812" width="131.7919921875" height="52.27199935913086" rx="10" ry="10" fill="#f0f4fc" stroke="#000000" stroke-width="1" stroke-dasharray=""/><text x="595.34716796875" y="147.10800285339354" fill="#1f2329" font-family="sans-serif" font-size="14" text-anchor="middle"><tspan x="595.34716796875" dy="0">前缀 hash 不变</tspan></text><rect x="721.2431640625" y="120.27200317382812" width="137.185546875" height="52.27199935913086" rx="10" ry="10" fill="#f0f4fc" stroke="#000000" stroke-width="1" stroke-dasharray=""/><text x="789.8359375" y="147.10800285339354" fill="#1f2329" font-family="sans-serif" font-size="14" text-anchor="middle"><tspan x="789.8359375" dy="0">Cache 命中保留</tspan></text><rect x="918.4287109375" y="120.27200317382812" width="157.4541015625" height="52.27199935913086" rx="10" ry="10" fill="#f0f4fc" stroke="#000000" stroke-width="1" stroke-dasharray=""/><text x="997.15576171875" y="147.10800285339354" fill="#1f2329" font-family="sans-serif" font-size="14" text-anchor="middle"><tspan x="997.15576171875" dy="0">仍按 10% 折扣计费</tspan></text></svg>