<svg xmlns="http://www.w3.org/2000/svg" viewBox="-50 -50 983.08203125 228.81600189208984" width="983.08203125" height="228.81600189208984"><rect x="-50" y="-50" width="983.08203125" height="228.81600189208984" fill="#ffffff"/><defs><marker id="arrow_triangle_arrow_000000" markerWidth="10" markerHeight="16" refX="9" refY="8" orient="auto" markerUnits="userSpaceOnUse"><polygon points="0 4, 10 8, 0 12" fill="#000000"/></marker><marker id="arrowhead_default" markerWidth="10" markerHeight="16" refX="9" refY="8" orient="auto" markerUnits="userSpaceOnUse"><polygon points="0 4, 10 8, 0 12" fill="#666666"/></marker></defs><path d="M 114 58.056001727735406 L 114 55.758999824523926 L 119 55.758999824523926 L 119 46.56899929046631 L 144.16699981689453 46.56899929046631 L 144.16699981689453 44.27199935913086 L 175.00000001490116 44.27199935913086" fill="none" stroke="#000000" stroke-width="1" stroke-dasharray="" stroke-linejoin="round" data-connector-id="c1:1" marker-end="url(#arrow_triangle_arrow_000000)"/><path d="M 280 44.27199935913086 L 341.0000000242144 44.27199935913086" fill="none" stroke="#000000" stroke-width="1" stroke-dasharray="" stroke-linejoin="round" data-connector-id="c1:2" marker-end="url(#arrow_triangle_arrow_000000)"/><path d="M 488 44.27199935913086 L 548.9999999943939 44.27199935913086" fill="none" stroke="#000000" stroke-width="1" stroke-dasharray="" stroke-linejoin="round" data-connector-id="c1:3" marker-end="url(#arrow_triangle_arrow_000000)"/><path d="M 661.0819975489285 44.27199935913086 L 666.0819702148438 44.27199935913086 L 691.2399711608887 44.27199935913086 L 691.2399711608887 46.04399931430817 L 722.0280000176281 46.04399931430817 L 722.0280000176281 54.90400061567766" fill="none" stroke="#000000" stroke-width="1" stroke-dasharray="" stroke-linejoin="round" data-connector-id="c1:4" marker-end="url(#arrow_triangle_arrow_000000)"/><path d="M 721.08203125 110.2370024717925 L 721.08203125 111.955002784729 L 716.08203125 111.955002784729 L 716.08203125 118.826003074646 L 681.6589965820312 118.826003074646 L 681.6589965820312 120.54400253295898 L 604.541015625 120.54400253295898 L 515.0899963378906 120.54400253295898 L 414 120.54400253295898 L 313.5 120.54400253295898 L 227 120.54400253295898 L 227 118.17700290679932 L 152.68200302124023 118.17700290679932 L 152.68200302124023 106.34200194032883 L 113.0909970998764 106.34200194032883" fill="none" stroke="#000000" stroke-width="1" stroke-dasharray="" stroke-linejoin="round" data-connector-id="c1:5" marker-end="url(#arrow_triangle_arrow_000000)"/><rect x="8" y="46.13600158691406" width="106" height="72.54399871826172" rx="10" ry="10" fill="#f0f4fc" stroke="#000000" stroke-width="1" stroke-dasharray=""/><text x="61" y="73.30800094604493" fill="#1f2329" font-family="sans-serif" font-size="14" text-anchor="middle"><tspan x="61" dy="0">事实层</tspan><tspan x="61" dy="19.599999999999998">证据与状态</tspan></text><rect x="174" y="8" width="106" height="72.54399871826172" rx="10" ry="10" fill="#f0f4fc" stroke="#000000" stroke-width="1" stroke-dasharray=""/><text x="227" y="35.171999359130865" fill="#1f2329" font-family="sans-serif" font-size="14" text-anchor="middle"><tspan x="227" dy="0">交互层</tspan><tspan x="227" dy="19.599999999999998">含义与推理</tspan></text><rect x="340" y="8" width="148" height="72.54399871826172" rx="10" ry="10" fill="#f0f4fc" stroke="#000000" stroke-width="1" stroke-dasharray=""/><text x="414" y="35.171999359130865" fill="#1f2329" font-family="sans-serif" font-size="14" text-anchor="middle"><tspan x="414" dy="0">风险识别</tspan><tspan x="414" dy="19.599999999999998">冲突、遗漏、过期</tspan></text><rect x="548" y="8" width="113.08203125" height="72.54399871826172" rx="10" ry="10" fill="#f0f4fc" stroke="#000000" stroke-width="1" stroke-dasharray=""/><text x="604.541015625" y="35.171999359130865" fill="#1f2329" font-family="sans-serif" font-size="14" text-anchor="middle"><tspan x="604.541015625" dy="0">Policy Layer</tspan><tspan x="604.541015625" dy="19.599999999999998">权限与边界</tspan></text><rect x="721.08203125" y="36" width="162" height="92.81600189208984" rx="10" ry="10" fill="#f0f4fc" stroke="#000000" stroke-width="1" stroke-dasharray=""/><text x="802.08203125" y="73.30800094604493" fill="#1f2329" font-family="sans-serif" font-size="14" text-anchor="middle"><tspan x="802.08203125" dy="0">Action Router</tspan><tspan x="802.08203125" dy="19.599999999999998">提醒、升级、创建任务</tspan></text></svg>