<svg xmlns="http://www.w3.org/2000/svg" viewBox="-50 -50 1614.3800506591797 729.3600120544434" width="1614.3800506591797" height="729.3600120544434"><rect x="-50" y="-50" width="1614.3800506591797" height="729.3600120544434" fill="#ffffff"/><defs><marker id="arrow_triangle_arrow_000000" markerWidth="10" markerHeight="16" refX="9" refY="8" orient="auto" markerUnits="userSpaceOnUse"><polygon points="0 4, 10 8, 0 12" fill="#000000"/></marker><marker id="arrowhead_default" markerWidth="10" markerHeight="16" refX="9" refY="8" orient="auto" markerUnits="userSpaceOnUse"><polygon points="0 4, 10 8, 0 12" fill="#666666"/></marker></defs><rect x="1107.1083984375" y="404.8160095214844" width="387.271484375" height="112.27200317382812" rx="10" ry="10" fill="#ffffde" stroke="#c2c262" stroke-width="1" stroke-dasharray=""/><text x="1300.744140625" y="430.8160095214844" fill="#1f2329" font-family="sans-serif" font-size="16" text-anchor="middle"><tspan x="1300.744140625" dy="0">Repo Workers</tspan></text><rect x="8" y="120.27200317382812" width="1439.026123046875" height="112.27200317382812" rx="10" ry="10" fill="#ffffde" stroke="#c2c262" stroke-width="1" stroke-dasharray=""/><text x="727.5130615234375" y="146.27200317382812" fill="#1f2329" font-family="sans-serif" font-size="16" text-anchor="middle"><tspan x="727.5130615234375" dy="0">Harness</tspan></text><path d="M 716.5749999999915 185.55100154348293 L 716.5749999999915 193.38399505615234 L 642.3270111083984 193.38399505615234 L 642.3270111083984 229.71199417114258 L 345.33499908447266 229.71199417114258 L 345.33499908447266 262.6729965209961 L 266.90099716186523 262.6729965209961 L 266.90099716186523 293.3190063312553 L 245.9760009869933 293.3190063312553" fill="none" stroke="#000000" stroke-width="1" stroke-dasharray="" stroke-linejoin="round" data-connector-id="c1:1" marker-end="url(#arrow_triangle_arrow_000000)"/><path d="M 718.1729999272511 202.54400253295898 L 718.1729999272511 207.54400634765625 L 701.8970260620117 207.54400634765625 L 701.8970260620117 232.54400634765625 L 636.7900276184082 232.54400634765625 L 636.7900276184082 262.67200469970703 L 616.2760276794434 262.67200469970703 L 616.2760276794434 293.3150063183999 L 595.0900002131821 293.3150063183999" fill="none" stroke="#000000" stroke-width="1" stroke-dasharray="" stroke-linejoin="round" data-connector-id="c1:2" marker-end="url(#arrow_triangle_arrow_000000)"/><path d="M 889.934996595257 184.42800146379113 L 889.934996595257 192.44699382781982 L 976.6059951782227 192.44699382781982 L 976.6059951782227 229.52499389648438 L 1323.2900085449219 229.52499389648438 L 1323.2900085449219 262.70799255371094 L 1409.041015625 262.70799255371094 L 1409.041015625 293.5290063246126 L 1404.4409962103236 293.5290063246126" fill="none" stroke="#000000" stroke-width="1" stroke-dasharray="" stroke-linejoin="round" data-connector-id="c1:3" marker-end="url(#arrow_triangle_arrow_000000)"/><path d="M 803.2549964764039 202.54400253295898 L 803.2550011535059 293.5440063484792" fill="none" stroke="#000000" stroke-width="1" stroke-dasharray="" stroke-linejoin="round" data-connector-id="c1:4" marker-end="url(#arrow_triangle_arrow_000000)"/><path d="M 889.934996595257 197.4490016636853 L 914.0309982299805 197.4490016636853 L 914.0309982299805 203.29800510406494 L 1010.4150009155273 203.29800510406494 L 1010.4150009155273 231.69500350952148 L 1034.511001586914 231.69500350952148 L 1034.511001586914 262.7110061645508 L 1034.511001098028 293.5440063484792" fill="none" stroke="#000000" stroke-width="1" stroke-dasharray="" stroke-linejoin="round" data-connector-id="c1:5" marker-end="url(#arrow_triangle_arrow_000000)"/><path d="M 484.0420000000115 188.0960016658221 L 484.0420000000115 195.5039930343628 L 433.281005859375 195.5039930343628 L 433.281005859375 230.13599395751953 L 230.23800659179688 230.13599395751953 L 230.23800659179688 262.6729965209961 L 183.66200494766235 262.6729965209961 L 183.66200494766235 293.3190063312553 L 204.58800057400367 293.3190063312553" fill="none" stroke="#000000" stroke-width="1" stroke-dasharray="" stroke-linejoin="round" data-connector-id="c1:6" marker-end="url(#arrow_triangle_arrow_000000)"/><path d="M 564.1339991128771 202.54400253295898 L 564.1339721679688 207.54400634765625 L 564.1339721679688 232.54400634765625 L 565.053972184658 262.7080078125 L 565.053972184658 293.5290063246126 L 569.6529988040566 293.5290063246126" fill="none" stroke="#000000" stroke-width="1" stroke-dasharray="" stroke-linejoin="round" data-connector-id="c1:7" marker-end="url(#arrow_triangle_arrow_000000)"/><path d="M 644.2259978367947 183.46800305198462 L 644.2259978367947 191.64800262451172 L 737.0110168457031 191.64800262451172 L 737.0110168457031 229.3650016784668 L 1108.1520080566406 229.3650016784668 L 1108.1520080566406 263.5530014038086 L 1222.239990234375 263.5530014038086 L 1222.239990234375 292.5870056152344 L 1307.4509887695312 292.5870056152344 L 1307.4509887695312 298.59600642234943 L 1328.752999996047 298.59600642234943" fill="none" stroke="#000000" stroke-width="1" stroke-dasharray="" stroke-linejoin="round" data-connector-id="c1:8" marker-end="url(#arrow_triangle_arrow_000000)"/><path d="M 225.28200291463872 344.8160057067871 L 225.28199768066406 349.8160095214844 L 225.28199768066406 374.8160095214844 L 225.28199768066406 404.93400955200195 L 220.193998336792 404.93400955200195 L 220.193998336792 435.52500953638037 L 194.7540009021759 435.52500953638037" fill="none" stroke="#000000" stroke-width="1" stroke-dasharray="" stroke-linejoin="round" data-connector-id="c1:9" marker-end="url(#arrow_triangle_arrow_000000)"/><path d="M 574.1339972256683 344.8160057067871 L 574.1339950561523 349.8160095214844 L 574.1339950561523 374.8160095214844 L 574.1339950561523 404.88901138305664 L 563.6569938659668 404.88901138305664 L 563.6569938659668 430.1790084838867 L 521.7509937286377 430.1790084838867 L 521.7509937286377 435.25200951093836 L 511.27499663678464 435.25200951093836" fill="none" stroke="#000000" stroke-width="1" stroke-dasharray="" stroke-linejoin="round" data-connector-id="c1:10" marker-end="url(#arrow_triangle_arrow_000000)"/><path d="M 1453.2319983463967 344.8160057067871 L 1453.2319983463967 349.8160095214844 L 1463.4240493774414 349.8160095214844 L 1463.4240493774414 374.8160095214844 L 1504.1890487670898 374.8160095214844 L 1504.1890487670898 409.17201232910156 L 1514.3800506591797 409.17201232910156 L 1514.3800506591797 460.95201110839844 L 1514.3800506591797 512.7320098876953 L 1514.3800506591797 548.5440063476562 L 1494.7500534057617 548.5440063476562 L 1494.7500534057617 579.3660125732422 L 1416.231050491333 579.3660125732422 L 1416.231050491333 585.8220124807044 L 1396.601996981306 585.8220124807044" fill="none" stroke="#000000" stroke-width="1" stroke-dasharray="" stroke-linejoin="round" data-connector-id="c1:11" marker-end="url(#arrow_triangle_arrow_000000)"/><path d="M 803.2550011535059 344.8160057067871 L 803.2550163269043 349.8160095214844 L 803.2550163269043 374.8160095214844 L 803.2550163269043 404.93201065063477 L 797.9530162811279 404.93201065063477 L 797.9530162811279 435.5100095125138 L 771.442001415242 435.5100095125138" fill="none" stroke="#000000" stroke-width="1" stroke-dasharray="" stroke-linejoin="round" data-connector-id="c1:12" marker-end="url(#arrow_triangle_arrow_000000)"/><path d="M 1034.511001098028 344.8160057067871 L 1034.510971069336 349.8160095214844 L 1034.510971069336 374.8160095214844 L 1034.510971069336 404.93201065063477 L 1029.2749710083008 404.93201065063477 L 1029.2749710083008 435.51500950424196 L 1003.0949951149523 435.51500950424196" fill="none" stroke="#000000" stroke-width="1" stroke-dasharray="" stroke-linejoin="round" data-connector-id="c1:13" marker-end="url(#arrow_triangle_arrow_000000)"/><path d="M 1399.960001848871 344.8160057067871 L 1399.9600015949109 435.8160095223073" fill="none" stroke="#000000" stroke-width="1" stroke-dasharray="" stroke-linejoin="round" data-connector-id="c1:14" marker-end="url(#arrow_triangle_arrow_000000)"/><path d="M 1327.791015625 340.7420046380755 L 1309.2129516601562 340.7420046380755 L 1309.2129516601562 346.4210042953491 L 1234.9019508361816 346.4210042953491 L 1234.9019508361816 374.1370048522949 L 1216.324951171875 374.1370048522949 L 1216.324951171875 404.9830017089844 L 1216.325004075421 435.8160095223073" fill="none" stroke="#000000" stroke-width="1" stroke-dasharray="" stroke-linejoin="round" data-connector-id="c1:15" marker-end="url(#arrow_triangle_arrow_000000)"/><path d="M 1399.9600015949109 487.08800888061523 L 1399.959955215454 492.0880126953125 L 1399.959955215454 517.0880126953125 L 1399.959955215454 547.2060127258301 L 1394.8299541473389 547.2060127258301 L 1394.8299541473389 577.794012676226 L 1369.1789982417831 577.794012676226" fill="none" stroke="#000000" stroke-width="1" stroke-dasharray="" stroke-linejoin="round" data-connector-id="c1:16" marker-end="url(#arrow_triangle_arrow_000000)"/><path d="M 1216.325004075421 487.08800888061523 L 1216.324951171875 492.0880126953125 L 1216.324951171875 517.0880126953125 L 1216.324951171875 547.554012298584 L 1228.7259511947632 547.554012298584 L 1228.7259511947632 574.4190139770508 L 1278.3339500427246 574.4190139770508 L 1278.3339500427246 579.8850127512619 L 1290.7350000198112 579.8850127512619" fill="none" stroke="#000000" stroke-width="1" stroke-dasharray="" stroke-linejoin="round" data-connector-id="c1:17" marker-end="url(#arrow_triangle_arrow_000000)"/><path d="M 234.13427734375 201.15200312222987 L 234.13427734375 206.38399267196655 L 214.05699920654297 206.38399267196655 L 214.05699920654297 232.31199264526367 L 133.74899673461914 232.31199264526367 L 133.74899673461914 266.8999938964844 L 113.6719970703125 266.8999938964844 L 113.6719970703125 318.67999267578125 L 113.6719970703125 370.4599914550781 L 113.6719970703125 404.9339904785156 L 118.75999689102173 404.9339904785156 L 118.75999689102173 435.52500953638037 L 144.19999934919178 435.52500953638037" fill="none" stroke="#000000" stroke-width="1" stroke-dasharray="" stroke-linejoin="round" data-connector-id="c1:18" marker-end="url(#arrow_triangle_arrow_000000)"/><path d="M 332.72099537053145 202.54400253295898 L 333.4160082936287 207.54400634765625 L 333.4160082936287 232.54400634765625 L 336.19700837135315 232.54400634765625 L 336.89200830459595 266.90000915527344 L 336.89200830459595 318.6800079345703 L 336.89200830459595 370.4600067138672 L 336.89200830459595 404.88600158691406 L 347.84700870513916 404.88600158691406 L 347.84700870513916 430.16600036621094 L 391.6700096130371 430.16600036621094 L 391.6700096130371 435.236009508199 L 402.626000491422 435.236009508199" fill="none" stroke="#000000" stroke-width="1" stroke-dasharray="" stroke-linejoin="round" data-connector-id="c1:19" marker-end="url(#arrow_triangle_arrow_000000)"/><path d="M 234.13427734375 195.37100379678236 L 234.13427734375 201.56700229644775 L 203.11199951171875 201.56700229644775 L 203.11199951171875 231.34900283813477 L 79.02199935913086 231.34900283813477 L 79.02199935913086 266.9000015258789 L 48 266.9000015258789 L 48 318.6800003051758 L 48 370.4600067138672 L 48 409.1719970703125 L 48 460.9519958496094 L 48 512.7319946289062 L 48 551.06201171875 L 255.13699340820312 551.06201171875 L 255.13699340820312 591.9590148925781 L 1083.6829833984375 591.9590148925781 L 1083.6829833984375 600.934012950363 L 1290.8189999835267 600.934012950363" fill="none" stroke="#000000" stroke-width="1" stroke-dasharray="" stroke-linejoin="round" data-connector-id="c1:20" marker-end="url(#arrow_triangle_arrow_000000)"/><path d="M 424.04150390625 191.30500372742335 L 424.04150390625 198.17799282073975 L 467.84999084472656 198.17799282073975 L 467.84999084472656 230.67099380493164 L 643.0839996337891 230.67099380493164 L 643.0839996337891 266.8999938964844 L 686.8919982910156 266.8999938964844 L 686.8919982910156 318.67999267578125 L 686.8919982910156 370.4599914550781 L 686.8919982910156 404.93199157714844 L 692.1940002441406 404.93199157714844 L 692.1940002441406 435.5100095125138 L 718.7050016796275 435.5100095125138" fill="none" stroke="#000000" stroke-width="1" stroke-dasharray="" stroke-linejoin="round" data-connector-id="c1:21" marker-end="url(#arrow_triangle_arrow_000000)"/><path d="M 424.04150390625 185.43400250622108 L 424.04150390625 193.28600597381592 L 506.6379928588867 193.28600597381592 L 506.6379928588867 229.6920051574707 L 837.0220031738281 229.6920051574707 L 837.0220031738281 266.90000915527344 L 919.6179809570312 266.90000915527344 L 919.6179809570312 318.6800079345703 L 919.6179809570312 370.4600067138672 L 919.6179809570312 404.9320068359375 L 924.85400390625 404.9320068359375 L 924.85400390625 435.51500950424196 L 951.0330013767816 435.51500950424196" fill="none" stroke="#000000" stroke-width="1" stroke-dasharray="" stroke-linejoin="round" data-connector-id="c1:22" marker-end="url(#arrow_triangle_arrow_000000)"/><path d="M 803.2550030074199 60.27199935913086 L 803.255020921657 121.27200316958289" fill="none" stroke="#000000" stroke-width="1" stroke-dasharray="" stroke-linejoin="round" data-connector-id="c1:23" marker-end="url(#arrow_triangle_arrow_000000)"/><rect x="1345.541015625" y="434.8160095214844" width="108.8388671875" height="52.27199935913086" rx="10" ry="10" fill="#f0f4fc" stroke="#000000" stroke-width="1" stroke-dasharray=""/><text x="1399.96044921875" y="461.6520092010498" fill="#1f2329" font-family="sans-serif" font-size="14" text-anchor="middle"><tspan x="1399.96044921875" dy="0">iOS Worker</tspan></text><rect x="1147.1083984375" y="434.8160095214844" width="138.4326171875" height="52.27199935913086" rx="10" ry="10" fill="#f0f4fc" stroke="#000000" stroke-width="1" stroke-dasharray=""/><text x="1216.32470703125" y="461.6520092010498" fill="#1f2329" font-family="sans-serif" font-size="14" text-anchor="middle"><tspan x="1216.32470703125" dy="0">Android Worker</tspan></text><rect x="716.57470703125" y="150.27200317382812" width="173.3603515625" height="52.27199935913086" rx="10" ry="10" fill="#f0f4fc" stroke="#000000" stroke-width="1" stroke-dasharray=""/><text x="803.2548828125" y="177.10800285339354" fill="#1f2329" font-family="sans-serif" font-size="14" text-anchor="middle"><tspan x="803.2548828125" dy="0">LangGraph Workflow</tspan></text><rect x="484.04150390625" y="150.27200317382812" width="160.1845703125" height="52.27199935913086" rx="10" ry="10" fill="#f0f4fc" stroke="#000000" stroke-width="1" stroke-dasharray=""/><text x="564.1337890625" y="177.10800285339354" fill="#1f2329" font-family="sans-serif" font-size="14" text-anchor="middle"><tspan x="564.1337890625" dy="0">LangChain Routing</tspan></text><rect x="234.13427734375" y="150.27200317382812" width="189.9072265625" height="52.27199935913086" rx="10" ry="10" fill="#f0f4fc" stroke="#000000" stroke-width="1" stroke-dasharray=""/><text x="329.087890625" y="177.10800285339354" fill="#1f2329" font-family="sans-serif" font-size="14" text-anchor="middle"><tspan x="329.087890625" dy="0">Run State and Approval</tspan></text><rect x="725.69580078125" y="8" width="155.1181640625" height="52.27199935913086" rx="10" ry="10" fill="#f0f4fc" stroke="#000000" stroke-width="1" stroke-dasharray=""/><text x="803.2548828125" y="34.83599967956543" fill="#1f2329" font-family="sans-serif" font-size="14" text-anchor="middle"><tspan x="803.2548828125" dy="0">Migration Request</tspan></text><rect x="153.671875" y="292.54400634765625" width="143.2197265625" height="52.27199935913086" rx="10" ry="10" fill="#f0f4fc" stroke="#000000" stroke-width="1" stroke-dasharray=""/><text x="225.28173828125" y="319.38000602722167" fill="#1f2329" font-family="sans-serif" font-size="14" text-anchor="middle"><tspan x="225.28173828125" dy="0">Contract Worker</tspan></text><rect x="501.37548828125" y="292.54400634765625" width="145.5166015625" height="52.27199935913086" rx="10" ry="10" fill="#f0f4fc" stroke="#000000" stroke-width="1" stroke-dasharray=""/><text x="574.1337890625" y="319.38000602722167" fill="#1f2329" font-family="sans-serif" font-size="14" text-anchor="middle"><tspan x="574.1337890625" dy="0">Evidence Worker</tspan></text><rect x="1327.791015625" y="292.54400634765625" width="144.3388671875" height="52.27199935913086" rx="10" ry="10" fill="#f0f4fc" stroke="#000000" stroke-width="1" stroke-dasharray=""/><text x="1399.96044921875" y="319.38000602722167" fill="#1f2329" font-family="sans-serif" font-size="14" text-anchor="middle"><tspan x="1399.96044921875" dy="0">Planning Worker</tspan></text><rect x="726.89208984375" y="292.54400634765625" width="152.7255859375" height="52.27199935913086" rx="10" ry="10" fill="#f0f4fc" stroke="#000000" stroke-width="1" stroke-dasharray=""/><text x="803.2548828125" y="319.38000602722167" fill="#1f2329" font-family="sans-serif" font-size="14" text-anchor="middle"><tspan x="803.2548828125" dy="0">Validation Worker</tspan></text><rect x="959.61767578125" y="292.54400634765625" width="149.7861328125" height="52.27199935913086" rx="10" ry="10" fill="#f0f4fc" stroke="#000000" stroke-width="1" stroke-dasharray=""/><text x="1034.5107421875" y="319.38000602722167" fill="#1f2329" font-family="sans-serif" font-size="14" text-anchor="middle"><tspan x="1034.5107421875" dy="0">Reconcile Worker</tspan></text><rect x="98.133056640625" y="434.8160095214844" width="142.6875" height="52.27199935913086" rx="10" ry="10" fill="#f0f4fc" stroke="#000000" stroke-width="1" stroke-dasharray=""/><text x="169.476806640625" y="461.6520092010498" fill="#1f2329" font-family="sans-serif" font-size="14" text-anchor="middle"><tspan x="169.476806640625" dy="0">Shared Contract</tspan></text><rect x="387.313720703125" y="434.8160095214844" width="141.7646484375" height="52.27199935913086" rx="10" ry="10" fill="#f0f4fc" stroke="#000000" stroke-width="1" stroke-dasharray=""/><text x="458.196044921875" y="461.6520092010498" fill="#1f2329" font-family="sans-serif" font-size="14" text-anchor="middle"><tspan x="458.196044921875" dy="0">source evidence</tspan></text><rect x="1289.8203125" y="577.0880126953125" width="107.7314453125" height="52.27199935913086" rx="10" ry="10" fill="#f0f4fc" stroke="#000000" stroke-width="1" stroke-dasharray=""/><text x="1343.68603515625" y="603.924012374878" fill="#1f2329" font-family="sans-serif" font-size="14" text-anchor="middle"><tspan x="1343.68603515625" dy="0">target plan</tspan></text><rect x="672.119873046875" y="434.8160095214844" width="145.9072265625" height="52.27199935913086" rx="10" ry="10" fill="#f0f4fc" stroke="#000000" stroke-width="1" stroke-dasharray=""/><text x="745.073486328125" y="461.6520092010498" fill="#1f2329" font-family="sans-serif" font-size="14" text-anchor="middle"><tspan x="745.073486328125" dy="0">validation report</tspan></text><rect x="891.868896484375" y="434.8160095214844" width="170.390625" height="52.27199935913086" rx="10" ry="10" fill="#f0f4fc" stroke="#000000" stroke-width="1" stroke-dasharray=""/><text x="977.064208984375" y="461.6520092010498" fill="#1f2329" font-family="sans-serif" font-size="14" text-anchor="middle"><tspan x="977.064208984375" dy="0">reconciliation report</tspan></text></svg>