<svg xmlns="http://www.w3.org/2000/svg" viewBox="983.3203125 226.31640625 339.67578125 506.15625" width="339.67578125" height="506.15625"><rect x="983.3203125" y="226.31640625" width="339.67578125" height="506.15625" fill="#ffffff"/><defs><marker id="arrow_line_arrow_000000" markerWidth="10" markerHeight="16" refX="9" refY="8" orient="auto" markerUnits="userSpaceOnUse"><polygon points="0 4, 10 8, 0 12" fill="#000000"/></marker><marker id="arrowhead_default" markerWidth="10" markerHeight="16" refX="9" refY="8" orient="auto" markerUnits="userSpaceOnUse"><polygon points="0 4, 10 8, 0 12" fill="#666666"/></marker></defs><rect x="1069.3203125" y="276.31640625" width="167.67578125" height="80" rx="10" ry="10" fill="#f0f4fc" stroke="#000000" stroke-width="1" stroke-dasharray=""/><text x="1153.158203125" y="317.01640625" fill="#1f2329" font-family="sans-serif" font-size="14" text-anchor="middle"><tspan x="1153.158203125" dy="0">UI Component</tspan></text><rect x="1069.3203125" y="458.8125" width="167.67578125" height="80" rx="10" ry="10" fill="#f0f4fc" stroke="#000000" stroke-width="1" stroke-dasharray=""/><text x="1153.158203125" y="499.5125" fill="#1f2329" font-family="sans-serif" font-size="14" text-anchor="middle"><tspan x="1153.158203125" dy="0">Coordinator</tspan></text><rect x="1069.3203125" y="602.47265625" width="167.67578125" height="80" rx="10" ry="10" fill="#f0f4fc" stroke="#000000" stroke-width="1" stroke-dasharray=""/><text x="1153.158203125" y="643.17265625" fill="#1f2329" font-family="sans-serif" font-size="14" text-anchor="middle"><tspan x="1153.158203125" dy="0">State Machine</tspan></text><path d="M 1069.3203125 316.31640625 L 1033.3203125 316.31640625 L 1033.3203125 498.8125 L 1069.3203125 498.8125" fill="none" stroke="#000000" stroke-width="1" stroke-dasharray="" stroke-linejoin="round" data-connector-id="c1:512" marker-end="url(#arrow_line_arrow_000000)"/><rect x="954.4003125" y="400.11352929798886" width="157.83999999999997" height="24" fill="#ffffff" fill-opacity="0" rx="4" ry="4"/><text x="1033.3203125" y="413.9135292979889" fill="#1f2329" font-family="sans-serif" font-size="12" text-anchor="middle" data-connector-id="c1:512" data-role="caption"><tspan x="1033.3203125" dy="0">User Action: Click Accept</tspan></text><path d="M 1069.3203125 498.8125 L 1033.3203125 498.8125 L 1033.3203125 642.47265625 L 1069.3203125 642.47265625" fill="none" stroke="#000000" stroke-width="1" stroke-dasharray="" stroke-linejoin="round" data-connector-id="c1:513" marker-end="url(#arrow_line_arrow_000000)"/><rect x="977.8003125" y="572.5680650121067" width="111.03999999999999" height="24" fill="#ffffff" fill-opacity="0" rx="4" ry="4"/><text x="1033.3203125" y="586.3680650121066" fill="#1f2329" font-family="sans-serif" font-size="12" text-anchor="middle" data-connector-id="c1:513" data-role="caption"><tspan x="1033.3203125" dy="0">Send Accept Event</tspan></text><path d="M 1236.99609375 642.47265625 L 1272.99609375 642.47265625 L 1272.99609375 498.8125 L 1236.99609375 498.8125" fill="none" stroke="#000000" stroke-width="1" stroke-dasharray="" stroke-linejoin="round" data-connector-id="c1:514" marker-end="url(#arrow_line_arrow_000000)"/><rect x="1172.1160937500001" y="557.1867462005466" width="201.75999999999996" height="24" fill="#ffffff" fill-opacity="0" rx="4" ry="4"/><text x="1272.99609375" y="570.9867462005466" fill="#1f2329" font-family="sans-serif" font-size="12" text-anchor="middle" data-connector-id="c1:514" data-role="caption"><tspan x="1272.99609375" dy="0">transit(RECEIVED -&gt; ACCEPTED)</tspan></text><path d="M 1236.99609375 498.8125 L 1272.99609375 498.8125 L 1272.99609375 316.31640625 L 1236.99609375 316.31640625" fill="none" stroke="#000000" stroke-width="1" stroke-dasharray="" stroke-linejoin="round" data-connector-id="c1:515" marker-end="url(#arrow_line_arrow_000000)"/><rect x="1240.15609375" y="371.32682237029076" width="65.67999999999999" height="24" fill="#ffffff" fill-opacity="0" rx="4" ry="4"/><text x="1272.99609375" y="385.12682237029077" fill="#1f2329" font-family="sans-serif" font-size="12" text-anchor="middle" data-connector-id="c1:515" data-role="caption"><tspan x="1272.99609375" dy="0">Update UI</tspan></text></svg>